<?xml version="1.0" encoding="UTF-8"?>
<svg width="69px" height="69px" viewBox="0 0 69 69" version="1.1" xmlns="http://www.w3.org/2000/svg" xmlns:xlink="http://www.w3.org/1999/xlink">
    <!-- Generator: Sketch 43.1 (39012) - http://www.bohemiancoding.com/sketch -->
    <title>Group 6</title>
    <desc>Created with Sketch.</desc>
    <defs></defs>
    <g id="Marketing" stroke="none" stroke-width="1" fill="none" fill-rule="evenodd">
        <g id="Network-Management" transform="translate(-686.000000, -632.000000)">
            <g id="Group-6" transform="translate(686.000000, 632.000000)">
                <rect id="Rectangle-3" fill="#C8EDF6" x="29" y="19" width="14" height="12"></rect>
                <rect id="Rectangle-3-Copy" fill="#C8EDF6" x="31.092282" y="43" width="9.81543596" height="7.72829046"></rect>
                <rect id="Rectangle-3-Copy-2" fill="#C8EDF6" x="42.3099231" y="43" width="9.81543596" height="7.72829046"></rect>
                <rect id="Rectangle-3-Copy-3" fill="#C8EDF6" x="19.8746409" y="43" width="9.81543596" height="7.72829046"></rect>
                <g id="Group-3" fill-rule="nonzero" fill="#5DC9E3">
                    <path d="M34.5,68.5 C15.7223185,68.5 0.5,53.2776815 0.5,34.5 C0.5,15.7223185 15.7223185,0.5 34.5,0.5 C53.2776815,0.5 68.5,15.7223185 68.5,34.5 C68.5,53.2776815 53.2776815,68.5 34.5,68.5 Z M34.5,67.5 C52.7253967,67.5 67.5,52.7253967 67.5,34.5 C67.5,16.2746033 52.7253967,1.5 34.5,1.5 C16.2746033,1.5 1.5,16.2746033 1.5,34.5 C1.5,52.7253967 16.2746033,67.5 34.5,67.5 Z" id="Oval-6-Copy"></path>
                    <path d="M28,28 L40,28 L40,18 L28,18 L28,28 Z M27,17 L41,17 L41,29 L27,29 L27,17 Z" id="Rectangle-3"></path>
                    <path d="M30.092282,47.7282905 L37.907718,47.7282905 L37.907718,42 L30.092282,42 L30.092282,47.7282905 Z M29.092282,41 L38.907718,41 L38.907718,48.7282905 L29.092282,48.7282905 L29.092282,41 Z" id="Rectangle-3-Copy"></path>
                    <path d="M41.3099231,47.7282905 L49.1253591,47.7282905 L49.1253591,42 L41.3099231,42 L41.3099231,47.7282905 Z M40.3099231,41 L50.1253591,41 L50.1253591,48.7282905 L40.3099231,48.7282905 L40.3099231,41 Z" id="Rectangle-3-Copy-2"></path>
                    <path d="M18.8746409,47.7282905 L26.6900769,47.7282905 L26.6900769,42 L18.8746409,42 L18.8746409,47.7282905 Z M17.8746409,41 L27.6900769,41 L27.6900769,48.7282905 L17.8746409,48.7282905 L17.8746409,41 Z" id="Rectangle-3-Copy-3"></path>
                    <polygon id="Line" points="33.3 30 33.3 40 34.3 40 34.3 30"></polygon>
                    <polygon id="Line" points="44.811683 39.1453664 45.1680819 38.2110325 33.5113578 33.7646097 21.8546336 38.2110325 22.2110325 39.1453664 33.5113578 34.8348909"></polygon>
                </g>
            </g>
        </g>
    </g>
</svg>