<?xml version="1.0" encoding="utf-8"?>
<!-- Generator: Adobe Illustrator 21.0.0, SVG Export Plug-In . SVG Version: 6.00 Build 0)  -->
<svg version="1.1" id="Layer_1" xmlns="http://www.w3.org/2000/svg" xmlns:xlink="http://www.w3.org/1999/xlink" x="0px" y="0px"
	 viewBox="0 0 132.4 25" style="enable-background:new 0 0 132.4 25;" xml:space="preserve">
<style type="text/css">
	.st0{fill:#FFFFFF;}
</style>
<g>
	<path class="st0" d="M41.7,18.1h-2.9l-3.1-5l-1.1,0.8v4.2h-2.5V6.2h2.5v5.4l1-1.4l3.2-4h2.8l-4.1,5.3L41.7,18.1z"/>
	<path class="st0" d="M49.4,18.1L49.1,17H49c-0.3,0.4-0.6,0.7-1.1,1c-0.5,0.2-1,0.3-1.7,0.3c-1.1,0-1.9-0.3-2.4-0.9
		c-0.5-0.6-0.8-1.4-0.8-2.5V9h2.5v5.3c0,0.7,0.1,1.1,0.3,1.5c0.2,0.3,0.6,0.5,1.1,0.5c0.7,0,1.2-0.2,1.5-0.7
		c0.3-0.5,0.5-1.2,0.5-2.3V9h2.5v9.1H49.4z"/>
	<path class="st0" d="M59,8.9c1.1,0,1.9,0.4,2.5,1.3s0.9,2,0.9,3.4c0,1.5-0.3,2.7-0.9,3.5c-0.6,0.8-1.5,1.2-2.6,1.2
		c-1.1,0-1.9-0.4-2.5-1.2h-0.2l-0.4,1h-1.9V5.5h2.5v2.9c0,0.4,0,1-0.1,1.8h0.1C57,9.3,57.8,8.9,59,8.9z M58.2,10.9
		c-0.6,0-1.1,0.2-1.3,0.6c-0.3,0.4-0.4,1-0.4,1.9v0.3c0,1,0.1,1.7,0.4,2.1s0.7,0.6,1.4,0.6c0.5,0,0.9-0.2,1.2-0.7s0.5-1.2,0.5-2
		c0-0.9-0.2-1.6-0.5-2S58.7,10.9,58.2,10.9z"/>
	<path class="st0" d="M72.7,13.6c0,1.5-0.4,2.6-1.2,3.5c-0.8,0.8-1.9,1.3-3.3,1.3c-0.9,0-1.6-0.2-2.3-0.6c-0.7-0.4-1.2-0.9-1.5-1.6
		c-0.4-0.7-0.5-1.6-0.5-2.5c0-1.5,0.4-2.6,1.2-3.5c0.8-0.8,1.9-1.2,3.3-1.2c0.9,0,1.6,0.2,2.3,0.6c0.7,0.4,1.2,0.9,1.5,1.6
		C72.5,11.8,72.7,12.6,72.7,13.6z M66.4,13.6c0,0.9,0.1,1.6,0.4,2c0.3,0.5,0.8,0.7,1.4,0.7c0.7,0,1.1-0.2,1.4-0.7s0.4-1.1,0.4-2
		c0-0.9-0.1-1.6-0.4-2c-0.3-0.5-0.8-0.7-1.4-0.7c-0.7,0-1.1,0.2-1.4,0.7S66.4,12.7,66.4,13.6z"/>
	<path class="st0" d="M89,18.1h-2.5V13h-4.7v5.1h-2.5V6.2h2.5v4.7h4.7V6.2H89V18.1z"/>
	<path class="st0" d="M95.9,18.3c-1.5,0-2.6-0.4-3.4-1.2c-0.8-0.8-1.2-2-1.2-3.4c0-1.5,0.4-2.7,1.1-3.5c0.8-0.8,1.8-1.2,3.2-1.2
		c1.3,0,2.3,0.4,3,1.1c0.7,0.7,1.1,1.7,1.1,3v1.2h-5.9c0,0.7,0.2,1.3,0.6,1.7s0.9,0.6,1.6,0.6c0.5,0,1.1-0.1,1.6-0.2s1-0.3,1.5-0.5
		v1.9c-0.4,0.2-0.9,0.4-1.4,0.5C97.3,18.2,96.7,18.3,95.9,18.3z M95.6,10.6c-0.5,0-0.9,0.2-1.2,0.5c-0.3,0.3-0.5,0.8-0.5,1.4h3.5
		c0-0.6-0.2-1.1-0.5-1.4C96.5,10.8,96.1,10.6,95.6,10.6z"/>
	<path class="st0" d="M107.4,18.1l-0.5-1.2h-0.1c-0.4,0.5-0.8,0.9-1.3,1.1c-0.4,0.2-1,0.3-1.7,0.3c-0.9,0-1.6-0.2-2.1-0.7
		c-0.5-0.5-0.8-1.2-0.8-2.1c0-1,0.3-1.7,1-2.1s1.7-0.7,3.1-0.8l1.6,0v-0.4c0-0.9-0.5-1.4-1.4-1.4c-0.7,0-1.6,0.2-2.6,0.7l-0.8-1.7
		c1-0.5,2.2-0.8,3.5-0.8c1.2,0,2.2,0.3,2.8,0.8s1,1.3,1,2.4v6.1H107.4z M106.7,13.9l-1,0c-0.7,0-1.3,0.2-1.6,0.4
		c-0.4,0.2-0.5,0.6-0.5,1.1c0,0.7,0.4,1,1.2,1c0.6,0,1-0.2,1.4-0.5c0.3-0.3,0.5-0.8,0.5-1.3V13.9z"/>
	<path class="st0" d="M114.2,18.1h-2.5V5.5h2.5V18.1z"/>
	<path class="st0" d="M120.6,16.3c0.4,0,1-0.1,1.6-0.3v1.8c-0.6,0.3-1.4,0.4-2.3,0.4c-1,0-1.7-0.3-2.2-0.8c-0.5-0.5-0.7-1.3-0.7-2.3
		v-4.4h-1.2v-1l1.4-0.8l0.7-1.9h1.6V9h2.5v1.9h-2.5v4.4c0,0.4,0.1,0.6,0.3,0.8S120.3,16.3,120.6,16.3z"/>
	<path class="st0" d="M132.4,18.1h-2.5v-5.3c0-1.3-0.5-2-1.5-2c-0.7,0-1.2,0.2-1.5,0.7c-0.3,0.5-0.5,1.2-0.5,2.3v4.3H124V5.5h2.5
		v2.6c0,0.2,0,0.7-0.1,1.4l-0.1,0.7h0.1c0.6-0.9,1.4-1.3,2.6-1.3c1.1,0,1.9,0.3,2.4,0.9c0.6,0.6,0.8,1.4,0.8,2.5V18.1z"/>
</g>
<path class="st0" d="M18.9,10.1c-0.6-0.6-1.5-0.6-2.1,0l-3.4,3.3l-3.4,3.3c-0.6,0.6-1.5,0.6-2.1,0L6.1,15c0.6,0.6,1.5,0.6,2.1,0
	l3.4-3.3l3.4-3.3c0.6-0.6,1.5-0.6,2.1,0L18.9,10.1z"/>
<path class="st0" d="M5.2,13.9C5.2,13.9,5.2,13.9,5.2,13.9L5.2,13.9l3.4-3.3c0.6-0.6,1.5-0.6,2.1,0L9.1,8.8C8.5,8.2,7.6,8.2,7,8.8
	l-3.4,3.3L5.2,13.9z"/>
<path class="st0" d="M19.8,11.3C19.8,11.3,19.8,11.3,19.8,11.3L19.8,11.3l-3.4,3.3c-0.6,0.6-1.5,0.6-2.1,0l1.7,1.7
	c0.6,0.6,1.5,0.6,2.1,0l3.4-3.3L19.8,11.3z"/>
<path class="st0" d="M12.5,25C5.6,25,0,19.4,0,12.5C0,5.6,5.6,0,12.5,0C19.4,0,25,5.6,25,12.5C25,19.4,19.4,25,12.5,25z M12.5,1.5
	c-6.1,0-11,4.9-11,11s4.9,11,11,11s11-4.9,11-11S18.6,1.5,12.5,1.5z"/>
</svg>
