<?xml version="1.0" encoding="UTF-8"?>
<svg width="482px" height="435px" viewBox="0 0 482 435" version="1.1" xmlns="http://www.w3.org/2000/svg" xmlns:xlink="http://www.w3.org/1999/xlink">
    <!-- Generator: Sketch 43.1 (39012) - http://www.bohemiancoding.com/sketch -->
    <title>Group 10</title>
    <desc>Created with Sketch.</desc>
    <defs>
        <rect id="path-1" x="0" y="0" width="427" height="441"></rect>
        <filter x="-6.6%" y="-4.6%" width="113.1%" height="109.2%" filterUnits="objectBoundingBox" id="filter-3">
            <feOffset dx="0" dy="0" in="SourceAlpha" result="shadowOffsetOuter1"></feOffset>
            <feGaussianBlur stdDeviation="8.5" in="shadowOffsetOuter1" result="shadowBlurOuter1"></feGaussianBlur>
            <feColorMatrix values="0 0 0 0 0.713887117   0 0 0 0 0.713887117   0 0 0 0 0.713887117  0 0 0 0.5 0" type="matrix" in="shadowBlurOuter1" result="shadowMatrixOuter1"></feColorMatrix>
            <feMerge>
                <feMergeNode in="shadowMatrixOuter1"></feMergeNode>
                <feMergeNode in="SourceGraphic"></feMergeNode>
            </feMerge>
        </filter>
        <ellipse id="path-4" cx="194.482455" cy="31.4184022" rx="3.14696529" ry="2.96400021"></ellipse>
        <rect id="path-5" x="22.6213674" y="59.2800042" width="344.347481" height="432.744031" rx="1.5"></rect>
        <rect id="path-7" x="42" y="120" width="305" height="312" rx="2"></rect>
        <rect id="path-8" x="11" y="83" width="367" height="24.5938184" rx="2"></rect>
        <filter x="-13.8%" y="-15.4%" width="126.8%" height="130.7%" filterUnits="objectBoundingBox" id="filter-9">
            <feOffset dx="0" dy="0" in="SourceAlpha" result="shadowOffsetOuter1"></feOffset>
            <feGaussianBlur stdDeviation="6.5" in="shadowOffsetOuter1" result="shadowBlurOuter1"></feGaussianBlur>
            <feColorMatrix values="0 0 0 0 0.706845238   0 0 0 0 0.706845238   0 0 0 0 0.706845238  0 0 0 0.5 0" type="matrix" in="shadowBlurOuter1" result="shadowMatrixOuter1"></feColorMatrix>
            <feMerge>
                <feMergeNode in="shadowMatrixOuter1"></feMergeNode>
                <feMergeNode in="SourceGraphic"></feMergeNode>
            </feMerge>
        </filter>
    </defs>
    <g id="Marketing" stroke="none" stroke-width="1" fill="none" fill-rule="evenodd">
        <g id="Artboard-2" transform="translate(-836.000000, -688.000000)">
            <g id="Group-10" transform="translate(834.000000, 682.000000)">
                <g id="Group-8">
                    <mask id="mask-2" fill="white">
                        <use xlink:href="#path-1"></use>
                    </mask>
                    <g id="Mask"></g>
                    <g mask="url(#mask-2)">
                        <g transform="translate(18.000000, 22.000000)">
                            <g id="Group-2" stroke-width="1" fill="none" transform="translate(0.000000, 0.801339)">
                                <g id="Tablet" filter="url(#filter-3)" transform="translate(1.256743, 0.000000)">
                                    <rect id="base" fill="#FFFFFF" x="0" y="0" width="387.076731" height="551.304039" rx="4"></rect>
                                    <g id="sen">
                                        <use fill="#E0E0E0" fill-rule="evenodd" xlink:href="#path-4"></use>
                                        <ellipse stroke="#F9F9F9" stroke-width="0.5" cx="194.482455" cy="31.4184022" rx="2.89696529" ry="2.71400021"></ellipse>
                                    </g>
                                </g>
                                <mask id="mask-6" fill="white">
                                    <use xlink:href="#path-5"></use>
                                </mask>
                                <g id="Your-screen">
                                    <use fill="#43445B" fill-rule="evenodd" xlink:href="#path-5"></use>
                                    <rect stroke="#E0E0E0" stroke-width="1" x="22.1213674" y="58.7800042" width="345.347481" height="433.744031" rx="1.5"></rect>
                                </g>
                                <rect id="Rectangle-2" fill="#F7F7F7" mask="url(#mask-6)" x="21" y="59.1986614" width="356" height="370"></rect>
                                <g id="Rectangle-3" mask="url(#mask-6)">
                                    <use fill="#FFFFFF" fill-rule="evenodd" xlink:href="#path-7"></use>
                                    <rect stroke="#E6E6E6" stroke-width="1" x="42.5" y="120.5" width="304" height="311" rx="2"></rect>
                                </g>
                                <g id="Rectangle-3-Copy" mask="url(#mask-6)">
                                    <use fill="#FFFFFF" fill-rule="evenodd" xlink:href="#path-8"></use>
                                    <rect stroke="#E6E6E6" stroke-width="1" x="11.5" y="83.5" width="366" height="23.5938184" rx="2"></rect>
                                </g>
                                <rect id="Rectangle-17" fill="#5DC9E3" mask="url(#mask-6)" x="9.94087404" y="59.5927137" width="367.059126" height="24.5938184"></rect>
                            </g>
                            <rect id="Rectangle-15-Copy-2" fill="#E6E6E6" x="63.1619537" y="160.661158" width="253.650386" height="9.45916091"></rect>
                            <rect id="Rectangle-15-Copy-5" fill="#E6E6E6" x="41.1053985" y="92.5551994" width="86.2210797" height="9.45916091"></rect>
                            <rect id="Rectangle-15-Copy-6" fill="#E6E6E6" x="307.789203" y="92.5551994" width="52.1336761" height="9.45916091"></rect>
                            <rect id="Rectangle-15-Copy-4" fill="#E6E6E6" x="62.159383" y="134.175507" width="137.352185" height="21.7560701"></rect>
                            <rect id="Rectangle-15-Copy-3" fill="#E6E6E6" x="63.1619537" y="172.012151" width="214.550129" height="9.45916091"></rect>
                            <rect id="Rectangle-15-Copy" fill="#E6E6E6" x="62.159383" y="258.090515" width="247.634961" height="9.45916091"></rect>
                            <rect id="Rectangle-15-Copy" fill="#E6E6E6" x="62.159383" y="207.011046" width="247.634961" height="9.45916091"></rect>
                            <rect id="Rectangle-15-Copy" fill="#E6E6E6" x="62.159383" y="308.224068" width="247.634961" height="9.45916091"></rect>
                            <rect id="Rectangle-15-Copy" fill="#E6E6E6" x="62.159383" y="357.411705" width="247.634961" height="9.45916091"></rect>
                            <rect id="Rectangle-15-Copy" fill="#E6E6E6" x="62.159383" y="411.328922" width="247.634961" height="9.45916091"></rect>
                            <polygon id="Star-2" fill="#F2C96E" points="73.688946 239.408673 66.9120389 242.77017 68.206313 235.650404 62.72368 230.608157 70.3004925 229.569397 73.688946 223.09162 77.0773996 229.569397 84.654212 230.608157 79.171579 235.650404 80.4658531 242.77017"></polygon>
                            <polygon id="Star-2" fill="#F2C96E" points="113.791774 239.408673 107.014867 242.77017 108.309141 235.650404 102.826508 230.608157 110.40332 229.569397 113.791774 223.09162 117.180227 229.569397 124.75704 230.608157 119.274407 235.650404 120.568681 242.77017"></polygon>
                            <polygon id="Star-2" fill="#F2C96E" points="153.894602 239.408673 147.117694 242.77017 148.411969 235.650404 142.929336 230.608157 150.506148 229.569397 153.894602 223.09162 157.283055 229.569397 164.859868 230.608157 159.377235 235.650404 160.671509 242.77017"></polygon>
                            <polygon id="Star-2" fill="#F2C96E" points="73.688946 290.488141 66.9120389 293.849639 68.206313 286.729873 62.72368 281.687626 70.3004925 280.648866 73.688946 274.171089 77.0773996 280.648866 84.654212 281.687626 79.171579 286.729873 80.4658531 293.849639"></polygon>
                            <polygon id="Star-2" fill="#F2C96E" points="113.791774 290.488141 107.014867 293.849639 108.309141 286.729873 102.826508 281.687626 110.40332 280.648866 113.791774 274.171089 117.180227 280.648866 124.75704 281.687626 119.274407 286.729873 120.568681 293.849639"></polygon>
                            <polygon id="Star-2" fill="#F2C96E" points="153.894602 290.488141 147.117694 293.849639 148.411969 286.729873 142.929336 281.687626 150.506148 280.648866 153.894602 274.171089 157.283055 280.648866 164.859868 281.687626 159.377235 286.729873 160.671509 293.849639"></polygon>
                            <polygon id="Star-2" fill="#F2C96E" points="193.997429 239.408673 187.220522 242.77017 188.514796 235.650404 183.032163 230.608157 190.608976 229.569397 193.997429 223.09162 197.385883 229.569397 204.962695 230.608157 199.480062 235.650404 200.774336 242.77017"></polygon>
                            <polygon id="Star-2" fill="#F2C96E" points="73.688946 341.56761 66.9120389 344.929108 68.206313 337.809342 62.72368 332.767095 70.3004925 331.728335 73.688946 325.250558 77.0773996 331.728335 84.654212 332.767095 79.171579 337.809342 80.4658531 344.929108"></polygon>
                            <polygon id="Star-2" fill="#F2C96E" points="113.791774 341.56761 107.014867 344.929108 108.309141 337.809342 102.826508 332.767095 110.40332 331.728335 113.791774 325.250558 117.180227 331.728335 124.75704 332.767095 119.274407 337.809342 120.568681 344.929108"></polygon>
                            <polygon id="Star-2" fill="#F2C96E" points="153.894602 341.56761 147.117694 344.929108 148.411969 337.809342 142.929336 332.767095 150.506148 331.728335 153.894602 325.250558 157.283055 331.728335 164.859868 332.767095 159.377235 337.809342 160.671509 344.929108"></polygon>
                            <polygon id="Star-2" fill="#F2C96E" points="193.997429 341.56761 187.220522 344.929108 188.514796 337.809342 183.032163 332.767095 190.608976 331.728335 193.997429 325.250558 197.385883 331.728335 204.962695 332.767095 199.480062 337.809342 200.774336 344.929108"></polygon>
                            <polygon id="Star-2" fill="#F2C96E" points="73.688946 391.701163 66.9120389 395.062661 68.206313 387.942894 62.72368 382.900648 70.3004925 381.861888 73.688946 375.384111 77.0773996 381.861888 84.654212 382.900648 79.171579 387.942894 80.4658531 395.062661"></polygon>
                            <polygon id="Star-2" fill="#F2C96E" points="113.791774 391.701163 107.014867 395.062661 108.309141 387.942894 102.826508 382.900648 110.40332 381.861888 113.791774 375.384111 117.180227 381.861888 124.75704 382.900648 119.274407 387.942894 120.568681 395.062661"></polygon>
                            <polygon id="Star-2" fill="#F2C96E" points="153.894602 391.701163 147.117694 395.062661 148.411969 387.942894 142.929336 382.900648 150.506148 381.861888 153.894602 375.384111 157.283055 381.861888 164.859868 382.900648 159.377235 387.942894 160.671509 395.062661"></polygon>
                            <polygon id="Star-2" fill="#F2C96E" points="193.997429 391.701163 187.220522 395.062661 188.514796 387.942894 183.032163 382.900648 190.608976 381.861888 193.997429 375.384111 197.385883 381.861888 204.962695 382.900648 199.480062 387.942894 200.774336 395.062661"></polygon>
                            <polygon id="Star-2" fill="#F2C96E" points="234.100257 341.56761 227.32335 344.929108 228.617624 337.809342 223.134991 332.767095 230.711804 331.728335 234.100257 325.250558 237.488711 331.728335 245.065523 332.767095 239.58289 337.809342 240.877164 344.929108"></polygon>
                        </g>
                    </g>
                </g>
                <g id="Group-7" filter="url(#filter-9)" transform="translate(322.000000, 226.000000)">
                    <rect id="Rectangle-Copy-9" fill="#FFFFFF" x="0" y="0" width="148.567379" height="126.999798" rx="2.45999998"></rect>
                    <path d="M49.8914553,13.6100914 C49.2374807,13.6100914 48.7311251,13.8557953 48.3723733,14.3472105 C48.0136215,14.8386257 47.8342483,15.5234203 47.8342483,16.4016148 C47.8342483,18.2290067 48.5199771,19.142689 49.8914553,19.142689 C50.4669529,19.142689 51.1638926,18.9988167 51.9822951,18.7110679 L51.9822951,20.1684898 C51.3096355,20.4487646 50.5585102,20.5888999 49.7288967,20.5888999 C48.5367944,20.5888999 47.6249806,20.2273508 46.993428,19.5042417 C46.3618753,18.7811326 46.0461038,17.7431971 46.0461038,16.3904039 C46.0461038,15.5383683 46.2011868,14.7919142 46.5113577,14.1510191 C46.8215285,13.510124 47.2671588,13.0187161 47.8482619,12.6767808 C48.4293651,12.3348455 49.1104227,12.1638804 49.8914553,12.1638804 C50.6874358,12.1638804 51.4871414,12.356333 52.2905959,12.7412437 L51.730049,14.1538218 C51.4236152,14.0080789 51.1153175,13.8810229 50.8051467,13.77265 C50.4949759,13.664277 50.1904151,13.6100914 49.8914553,13.6100914 Z M55.4632912,16.1381578 L56.035049,16.1381578 C56.5694397,16.1381578 56.9692924,16.0325892 57.2346193,15.8214488 C57.4999461,15.6103084 57.6326076,15.3029449 57.6326076,14.8993492 C57.6326076,14.4920164 57.5214335,14.1911926 57.2990822,13.9968687 C57.0767308,13.8025448 56.728261,13.7053843 56.2536623,13.7053843 L55.4632912,13.7053843 L55.4632912,16.1381578 Z M59.3871193,14.837689 C59.3871193,15.7196205 59.1115198,16.3941385 58.5603126,16.8612632 C58.0091054,17.3283879 57.2252819,17.5619468 56.2088185,17.5619468 L55.4632912,17.5619468 L55.4632912,20.4767905 L53.7255959,20.4767905 L53.7255959,12.2815953 L56.3433498,12.2815953 C57.3373912,12.2815953 58.0931876,12.4955352 58.6107618,12.9234215 C59.128336,13.3513077 59.3871193,13.9893905 59.3871193,14.837689 Z M62.0833497,17.2760679 L60.065381,14.2098765 L62.0048731,14.2098765 L63.2212599,16.2054234 L64.4488575,14.2098765 L66.3883497,14.2098765 L64.3479591,17.2760679 L66.4836426,20.4767905 L64.538545,20.4767905 L63.2212599,18.329896 L61.8983692,20.4767905 L59.9588771,20.4767905 L62.0833497,17.2760679 Z M75.3907324,18.2009702 C75.3907324,18.9408958 75.1244753,19.5238587 74.5919531,19.9498765 C74.0594309,20.3758942 73.3185822,20.5888999 72.3693848,20.5888999 C71.4949273,20.5888999 70.7213803,20.4244745 70.0487207,20.0956187 L70.0487207,18.4812437 C70.6017964,18.7278855 71.0698484,18.9016533 71.4528906,19.0025523 C71.8359329,19.1034512 72.1862712,19.1538999 72.503916,19.1538999 C72.8850898,19.1538999 73.1775055,19.0810296 73.3811719,18.9352866 C73.5848383,18.7895437 73.6866699,18.5728011 73.6866699,18.2850523 C73.6866699,18.1243614 73.6418266,17.9814233 73.5521387,17.8562339 C73.4624507,17.7310445 73.3307235,17.6105281 73.1569531,17.4946812 C72.9831827,17.3788343 72.6291075,17.1938556 72.0947168,16.9397398 C71.5939591,16.7043089 71.2183964,16.4782239 70.9680176,16.2614781 C70.7176387,16.0447322 70.5177124,15.7924886 70.3682324,15.5047398 C70.2187525,15.216991 70.1440137,14.8806662 70.1440137,14.4957554 C70.1440137,13.7707779 70.3897176,13.2008942 70.8811328,12.7860875 C71.372548,12.3712807 72.0517372,12.1638804 72.9187207,12.1638804 C73.3447385,12.1638804 73.7511309,12.2143292 74.1379101,12.3152281 C74.5246894,12.416127 74.9292134,12.5581308 75.3514941,12.7412437 L74.7909473,14.0921617 C74.3537185,13.9127858 73.9921694,13.7875982 73.7062891,13.7165953 C73.4204087,13.6455923 73.1392039,13.6100914 72.862666,13.6100914 C72.5338102,13.6100914 72.2815666,13.6866987 72.1059277,13.8399156 C71.9302888,13.9931325 71.8424707,14.1930589 71.8424707,14.4397007 C71.8424707,14.5929177 71.8779717,14.7265133 71.9489746,14.8404918 C72.0199776,14.9544702 72.1330201,15.06471 72.2881055,15.1712144 C72.4431909,15.2777188 72.8103454,15.4692371 73.3895801,15.7457749 C74.1556646,16.1120007 74.6807049,16.4791553 74.9647168,16.8472495 C75.2487286,17.2153438 75.3907324,17.6665796 75.3907324,18.2009702 Z M79.2865331,20.5888999 C77.3358203,20.5888999 76.3604785,19.5182661 76.3604785,17.3769663 C76.3604785,16.311922 76.6258014,15.4982029 77.156455,14.9357847 C77.6871087,14.3733666 78.4475764,14.0921617 79.4378808,14.0921617 C80.1628584,14.0921617 80.8130862,14.2341655 81.3885839,14.5181773 L80.8840917,15.8410679 C80.6150279,15.732695 80.3646528,15.6439426 80.1329589,15.5748082 C79.9012651,15.5056737 79.6695747,15.471107 79.4378808,15.471107 C78.5484753,15.471107 78.1037793,16.1026501 78.1037793,17.3657554 C78.1037793,18.5914907 78.5484753,19.2043491 79.4378808,19.2043491 C79.7667366,19.2043491 80.0712974,19.1604401 80.3515722,19.0726206 C80.631847,18.9848012 80.9121177,18.8474686 81.1923925,18.6606187 L81.1923925,20.123646 C80.9158547,20.2992849 80.6365183,20.4207355 80.3543749,20.4880015 C80.0722316,20.5552674 79.7162879,20.5888999 79.2865331,20.5888999 Z M84.0063378,17.3321226 C84.0063378,17.9524642 84.1081695,18.4214504 84.3118358,18.7390952 C84.5155022,19.0567401 84.8471558,19.2155601 85.3068065,19.2155601 C85.7627203,19.2155601 86.0906369,19.0576743 86.2905663,18.741898 C86.4904957,18.4261217 86.5904589,17.9562012 86.5904589,17.3321226 C86.5904589,16.711781 86.4895614,16.2465317 86.2877636,15.9363609 C86.0859657,15.6261901 85.7552463,15.471107 85.2955956,15.471107 C84.8396819,15.471107 84.510831,15.6252558 84.3090331,15.9335582 C84.1072352,16.2418605 84.0063378,16.708044 84.0063378,17.3321226 Z M88.3393651,17.3321226 C88.3393651,18.352323 88.0703053,19.1501601 87.5321776,19.7256577 C86.9940499,20.3011554 86.2447931,20.5888999 85.2843847,20.5888999 C84.682728,20.5888999 84.1520823,20.4571727 83.6924315,20.1937144 C83.2327808,19.930256 82.8796398,19.5518907 82.632998,19.058607 C82.3863561,18.5653232 82.263037,17.9898342 82.263037,17.3321226 C82.263037,16.3081852 82.5302284,15.5122166 83.0646191,14.9441929 C83.5990097,14.3761693 84.350135,14.0921617 85.3180175,14.0921617 C85.9196741,14.0921617 86.4503199,14.2229546 86.9099706,14.4845445 C87.3696213,14.7461343 87.7227623,15.121697 87.9694042,15.6112437 C88.216046,16.1007904 88.3393651,16.674411 88.3393651,17.3321226 Z M93.2497557,14.0921617 C93.4814495,14.0921617 93.673902,14.1089779 93.827119,14.1426109 L93.6981932,15.7457749 C93.5599243,15.708405 93.3917619,15.6897203 93.193701,15.6897203 C92.6480993,15.6897203 92.2230222,15.8298556 91.9184569,16.1101304 C91.6138915,16.3904053 91.4616112,16.7827841 91.4616112,17.2872788 L91.4616112,20.4767905 L89.7519432,20.4767905 L89.7519432,14.2098765 L91.0468065,14.2098765 L91.2990526,15.2637046 L91.3831346,15.2637046 C91.5774585,14.9124268 91.8399787,14.6293535 92.170703,14.4144761 C92.5014273,14.1995988 92.8611079,14.0921617 93.2497557,14.0921617 Z M97.3305369,15.3085484 C96.9680481,15.3085484 96.6840405,15.4234594 96.4785057,15.6532847 C96.2729708,15.8831101 96.1552571,16.2091583 96.1253611,16.631439 L98.5245017,16.631439 C98.5170277,16.2091583 98.406788,15.8831101 98.1937791,15.6532847 C97.9807702,15.4234594 97.6930257,15.3085484 97.3305369,15.3085484 Z M97.5715721,20.5888999 C96.5625826,20.5888999 95.7740879,20.3104977 95.2060643,19.7536851 C94.6380406,19.1968724 94.354033,18.4083777 94.354033,17.3881773 C94.354033,16.3380809 94.6165532,15.5262303 95.1416014,14.9526011 C95.6666496,14.378972 96.3925505,14.0921617 97.319326,14.0921617 C98.2049944,14.0921617 98.8944602,14.3444053 99.3877439,14.8489 C99.8810276,15.3533947 100.127666,16.0503343 100.127666,16.9397398 L100.127666,17.7693492 L96.0861228,17.7693492 C96.1048078,18.2551589 96.2486801,18.6344585 96.5177439,18.9072593 C96.7868078,19.1800601 97.1642389,19.3164585 97.6500486,19.3164585 C98.0274854,19.3164585 98.3843633,19.2772206 98.7206931,19.1987437 C99.0570229,19.1202667 99.4082955,18.9950792 99.7745213,18.8231773 L99.7745213,20.1460679 C99.4755614,20.2955478 99.1560529,20.4067218 98.8159861,20.4795933 C98.4759193,20.5524647 98.0611188,20.5888999 97.5715721,20.5888999 Z" id="CPx-Score" fill="#9B9B9B"></path>
                    <path d="M68.008742,71.9025383 L63.925158,71.9025383 L63.925158,78.225507 L60.9330389,78.225507 L60.9330389,71.9025383 L47.5531855,71.9025383 L47.5531855,69.1738763 L60.6131268,50.562519 L63.925158,50.562519 L63.925158,69.0609661 L68.008742,69.0609661 L68.008742,71.9025383 Z M60.9330389,69.0609661 L60.9330389,59.9152435 C60.9330389,58.1212176 60.9957662,56.0951279 61.1212225,53.8369135 L60.9706756,53.8369135 C60.3684851,55.0412945 59.80394,56.0386576 59.2770233,56.8290326 L50.6770331,69.0609661 L60.9330389,69.0609661 Z M71.6406853,76.230761 C71.6406853,75.3902034 71.8320034,74.7535219 72.2146453,74.3206975 C72.5972871,73.8878731 73.1461505,73.6714641 73.8612517,73.6714641 C74.5888986,73.6714641 75.15658,73.8878731 75.5643132,74.3206975 C75.9720464,74.7535219 76.1759099,75.3902034 76.1759099,76.230761 C76.1759099,77.0462273 75.96891,77.6734996 75.554904,78.1125969 C75.140898,78.5516941 74.5763529,78.7712395 73.8612517,78.7712395 C73.2214243,78.7712395 72.6913791,78.5736487 72.2711003,78.1784611 C71.8508215,77.7832736 71.6406853,77.1340467 71.6406853,76.230761 Z M89.5181266,61.4207123 C92.4161684,61.4207123 94.6963034,62.1389391 96.3586001,63.5754144 C98.0208968,65.0118897 98.8520327,66.9783885 98.8520327,69.47497 C98.8520327,72.3228293 97.9456242,74.5559189 96.1327798,76.1743059 C94.3199355,77.7926929 91.8202551,78.6018742 88.6336637,78.6018742 C85.5348917,78.6018742 83.1700749,78.1063291 81.5391423,77.1152238 L81.5391423,74.1042864 C82.4173367,74.66884 83.5087907,75.111067 84.8135368,75.4309807 C86.1182828,75.7508944 87.4041912,75.9108489 88.6713004,75.9108489 C90.8793322,75.9108489 92.5949222,75.3902128 93.8181216,74.348925 C95.0413211,73.3076373 95.6529117,71.8021836 95.6529117,69.8325188 C95.6529117,65.9935544 93.3006403,64.0741009 88.596027,64.0741009 C87.4041916,64.0741009 85.8109198,64.2560099 83.8161637,64.6198333 L82.1977848,63.5848236 L83.2327946,50.7130659 L96.9137417,50.7130659 L96.9137417,53.5922748 L85.9050016,53.5922748 L85.2087223,61.8535345 C86.6514704,61.5649849 88.0879241,61.4207123 89.5181266,61.4207123 Z" id="4.5" fill="#656262"></path>
                    <path d="M64.7793914,90.6109664 C64.7793914,91.7352689 64.4951169,92.6193226 63.9265594,93.2631539 C63.3580019,93.9069852 62.5676387,94.2288961 61.5554461,94.2288961 C60.5208316,94.2288961 59.7224607,93.9125907 59.1603094,93.2799703 C58.5981582,92.64735 58.3170868,91.7544878 58.3170868,90.601357 C58.3170868,89.4578357 58.598959,88.5713797 59.1627118,87.9419625 C59.7264646,87.3125453 60.5272378,86.9978415 61.5650555,86.9978415 C62.5740449,86.9978415 63.3620058,87.3181508 63.9289617,87.9587789 C64.4959177,88.5994071 64.7793914,89.4834608 64.7793914,90.6109664 Z M59.1819305,90.6109664 C59.1819305,91.5622993 59.3845262,92.283796 59.7897235,92.7754781 C60.1949208,93.2671603 60.7834892,93.5129976 61.5554461,93.5129976 C62.3338094,93.5129976 62.921577,93.267961 63.3187664,92.7778805 C63.7159559,92.2877999 63.9145477,91.5655024 63.9145477,90.6109664 C63.9145477,89.6660398 63.7167567,88.9493478 63.3211688,88.4608688 C62.9255809,87.9723898 62.3402156,87.7281539 61.5650555,87.7281539 C60.7866923,87.7281539 60.1949208,87.9739913 59.7897235,88.4656735 C59.3845262,88.9573556 59.1819305,89.6724461 59.1819305,90.6109664 Z M67.3787273,94.1328023 L65.3799774,88.8668649 L66.2352117,88.8668649 L67.369118,91.9899117 C67.6253692,92.7202279 67.7759146,93.1942856 67.8207586,93.4120992 L67.8591961,93.4120992 C67.8944306,93.2423327 68.0057381,92.8907933 68.1931219,92.3574703 C68.3805056,91.8241473 68.8009116,90.6606238 69.4543523,88.8668649 L70.3095867,88.8668649 L68.3108367,94.1328023 L67.3787273,94.1328023 Z M73.379782,94.2288961 C72.6014187,94.2288961 71.9872256,93.9918672 71.5371843,93.5178023 C71.087143,93.0437375 70.8621257,92.3855019 70.8621257,91.5430758 C70.8621257,90.6942434 71.0711276,90.0199924 71.4891375,89.5203024 C71.9071474,89.0206124 72.4684894,88.7707711 73.1731804,88.7707711 C73.8330275,88.7707711 74.3551316,88.9877807 74.7395085,89.4218063 C75.1238854,89.8558319 75.316071,90.4283847 75.316071,91.139482 L75.316071,91.6439742 L71.688532,91.6439742 C71.7045477,92.2621804 71.8606985,92.7314336 72.156989,93.0517477 C72.4532796,93.3720618 72.8704824,93.5322164 73.4086101,93.5322164 C73.975566,93.5322164 74.5361073,93.413702 75.0902507,93.1766695 L75.0902507,93.8877633 C74.8083743,94.0094826 74.5417168,94.0967669 74.2902702,94.1496187 C74.0388237,94.2024706 73.7353306,94.2288961 73.379782,94.2288961 Z M73.163571,89.4386227 C72.7407564,89.4386227 72.4036309,89.5763557 72.1521843,89.8518258 C71.9007378,90.1272959 71.7525947,90.508464 71.7077507,90.9953414 L74.4608366,90.9953414 C74.4608366,90.4924483 74.3487284,90.1072764 74.1245085,89.8398141 C73.9002887,89.5723518 73.5799794,89.4386227 73.163571,89.4386227 Z M79.0781413,88.7707711 C79.3119706,88.7707711 79.5217732,88.7899897 79.7075554,88.8284274 L79.5970475,89.5683492 C79.379234,89.5203021 79.1870484,89.4962789 79.020485,89.4962789 C78.5944673,89.4962789 78.2301155,89.669246 77.9274186,90.0151852 C77.6247218,90.3611244 77.4733757,90.7919404 77.4733757,91.3076461 L77.4733757,94.1328023 L76.6757976,94.1328023 L76.6757976,88.8668649 L77.3340397,88.8668649 L77.4253288,89.8422164 L77.4637663,89.8422164 C77.6591579,89.4994803 77.8945852,89.2352252 78.1700554,89.049443 C78.4455255,88.8636608 78.7482178,88.7707711 79.0781413,88.7707711 Z M83.7338834,94.1328023 L83.5753288,93.3832711 L83.5368913,93.3832711 C83.2742337,93.7131946 83.0123808,93.9366103 82.7513249,94.053525 C82.4902689,94.1704396 82.1643542,94.2288961 81.773571,94.2288961 C81.251459,94.2288961 80.8422639,94.0943662 80.5459733,93.8253023 C80.2496828,93.5562385 80.1015397,93.1734689 80.1015397,92.676982 C80.1015397,91.6135392 80.9519609,91.0562011 82.6528288,91.0049508 L83.5465006,90.9761227 L83.5465006,90.6494039 C83.5465006,90.2361987 83.4576148,89.9311041 83.2798405,89.734111 C83.1020662,89.5371178 82.8177917,89.4386227 82.4270085,89.4386227 C81.9881781,89.4386227 81.4916987,89.5731526 80.9375553,89.8422164 L80.6925163,89.2320211 C80.9519707,89.0910829 81.2362452,88.9805762 81.5453483,88.9004977 C81.8544514,88.8204192 82.1643507,88.7803805 82.4750553,88.7803805 C83.102871,88.7803805 83.5681202,88.919715 83.870817,89.1983883 C84.1735139,89.4770616 84.32486,89.923893 84.32486,90.5388961 L84.32486,94.1328023 L83.7338834,94.1328023 Z M81.9321256,93.5706539 C82.4286125,93.5706539 82.8185891,93.4345224 83.102067,93.1622555 C83.385545,92.8899885 83.5272819,92.5088204 83.5272819,92.0187398 L83.5272819,91.5430758 L82.7297038,91.5767086 C82.0954818,91.5991306 81.6382403,91.6976257 81.3579655,91.8721969 C81.0776907,92.0467681 80.9375553,92.3182302 80.9375553,92.6865914 C80.9375553,92.9748741 81.0248396,93.194286 81.1994108,93.3448336 C81.373982,93.4953812 81.6182178,93.5706539 81.9321256,93.5706539 Z M86.7656412,94.1328023 L85.9680631,94.1328023 L85.9680631,86.6567086 L86.7656412,86.6567086 L86.7656412,94.1328023 Z M89.2544693,94.1328023 L88.4568912,94.1328023 L88.4568912,86.6567086 L89.2544693,86.6567086 L89.2544693,94.1328023 Z" id="Overall" fill="#656262"></path>
                    <path d="M58.18592,106.736069 L59.6705685,106.736069 L59.6705685,107.233354 L58.18592,107.233354 L58.18592,108.768452 L57.6850314,108.768452 L57.6850314,107.233354 L56.20759,107.233354 L56.20759,106.736069 L57.6850314,106.736069 L57.6850314,105.193764 L58.18592,105.193764 L58.18592,106.736069 Z M63.9046993,106.945073 C63.9046993,107.855566 63.7611607,108.535422 63.4740792,108.984663 C63.1869977,109.433903 62.7479737,109.65852 62.1569942,109.65852 C61.5900383,109.65852 61.1588219,109.428498 60.8633321,108.968447 C60.5678424,108.508396 60.4200997,107.833945 60.4200997,106.945073 C60.4200997,106.027373 60.5630377,105.346316 60.8489181,104.90188 C61.1347984,104.457444 61.5708194,104.235229 62.1569942,104.235229 C62.7287549,104.235229 63.1629742,104.467053 63.4596651,104.930708 C63.756356,105.394362 63.9046993,106.065811 63.9046993,106.945073 Z M61.0254903,106.945073 C61.0254903,107.711425 61.1155773,108.269363 61.295754,108.618906 C61.4759307,108.968449 61.7630079,109.143218 62.1569942,109.143218 C62.5557853,109.143218 62.8446642,108.966046 63.0236397,108.611699 C63.2026152,108.257352 63.2921016,107.701815 63.2921016,106.945073 C63.2921016,106.188331 63.2026152,105.633996 63.0236397,105.282051 C62.8446642,104.930105 62.5557853,104.754136 62.1569942,104.754136 C61.7630079,104.754136 61.4759307,104.927703 61.295754,105.274844 C61.1155773,105.621984 61.0254903,106.178722 61.0254903,106.945073 Z M64.8199923,109.204477 C64.8199923,109.043519 64.8566276,108.921602 64.9298995,108.83872 C65.0031713,108.755839 65.1082728,108.714399 65.2452071,108.714399 C65.3845437,108.714399 65.4932487,108.755839 65.5713253,108.83872 C65.6494018,108.921602 65.6884395,109.043519 65.6884395,109.204477 C65.6884395,109.36063 65.6488012,109.480746 65.5695235,109.564829 C65.4902458,109.648911 65.3821414,109.690952 65.2452071,109.690952 C65.1226869,109.690952 65.0211889,109.653115 64.94071,109.577441 C64.8602311,109.501767 64.8199923,109.377447 64.8199923,109.204477 Z M68.8126875,109.58645 L68.228918,109.58645 L68.228918,105.831587 C68.228918,105.51928 68.2385273,105.223795 68.2577461,104.945122 C68.2072967,104.995571 68.1508421,105.048422 68.0883809,105.103677 C68.0259196,105.158931 67.7400436,105.393157 67.2307442,105.806362 L66.9136348,105.395561 L68.3081953,104.31811 L68.8126875,104.31811 L68.8126875,109.58645 Z M74.2828242,109.164839 C74.3885279,109.164839 74.4906264,109.157031 74.589123,109.141416 C74.6876196,109.1258 74.765695,109.109585 74.8233515,109.092768 L74.8233515,109.550415 C74.7584879,109.581645 74.6629957,109.60747 74.536872,109.62789 C74.4107484,109.64831 74.2972388,109.65852 74.1963398,109.65852 C73.4323907,109.65852 73.0504219,109.256132 73.0504219,108.451343 L73.0504219,106.10185 L72.4846699,106.10185 L72.4846699,105.813569 L73.0504219,105.564927 L73.302668,104.721704 L73.6486055,104.721704 L73.6486055,105.636997 L74.7945234,105.636997 L74.7945234,106.10185 L73.6486055,106.10185 L73.6486055,108.426118 C73.6486055,108.663951 73.70506,108.846527 73.8179707,108.973852 C73.9308814,109.101177 74.085831,109.164839 74.2828242,109.164839 Z M78.3151581,109.58645 L78.3151581,107.031557 C78.3151581,106.709642 78.2418874,106.46941 78.0953437,106.310854 C77.9488,106.152299 77.7193785,106.073022 77.4070722,106.073022 C76.9914647,106.073022 76.6881718,106.185931 76.4971845,106.411753 C76.3061973,106.637574 76.210705,107.007531 76.210705,107.521636 L76.210705,109.58645 L75.6125215,109.58645 L75.6125215,103.97938 L76.210705,103.97938 L76.210705,105.676636 C76.210705,105.880836 76.2010958,106.050199 76.1818769,106.184731 L76.2179121,106.184731 C76.3356275,105.994945 76.5031893,105.845401 76.7206025,105.736094 C76.9380157,105.626786 77.1860552,105.572134 77.4647285,105.572134 C77.947602,105.572134 78.3097517,105.686844 78.5511884,105.916269 C78.7926252,106.145694 78.9133417,106.510246 78.9133417,107.009936 L78.9133417,109.58645 L78.3151581,109.58645 Z M80.7403241,109.58645 L80.1421406,109.58645 L80.1421406,105.636997 L80.7403241,105.636997 L80.7403241,109.58645 Z M80.0916913,104.566753 C80.0916913,104.429818 80.1253238,104.329522 80.1925898,104.265859 C80.2598557,104.202197 80.3439369,104.170366 80.4448359,104.170366 C80.5409301,104.170366 80.6238101,104.202797 80.6934784,104.267661 C80.7631468,104.332525 80.7979804,104.432221 80.7979804,104.566753 C80.7979804,104.701285 80.7631468,104.801582 80.6934784,104.867646 C80.6238101,104.933711 80.5409301,104.966743 80.4448359,104.966743 C80.3439369,104.966743 80.2598557,104.933711 80.1925898,104.867646 C80.1253238,104.801582 80.0916913,104.701285 80.0916913,104.566753 Z M84.5564472,108.508999 C84.5564472,108.876559 84.4195149,109.160033 84.1456464,109.359428 C83.8717778,109.558824 83.4874067,109.65852 82.9925214,109.65852 C82.4688078,109.65852 82.0604135,109.57564 81.7673261,109.409878 L81.7673261,108.854936 C81.9571122,108.951031 82.1607088,109.026704 82.378122,109.081958 C82.5955352,109.137212 82.8051376,109.164839 83.0069355,109.164839 C83.3192417,109.164839 83.5594737,109.114991 83.7276386,109.015293 C83.8958035,108.915595 83.9798847,108.763648 83.9798847,108.559448 C83.9798847,108.405697 83.9132203,108.27417 83.7798895,108.164863 C83.6465588,108.055556 83.3865077,107.926431 82.9997284,107.777485 C82.632168,107.640551 82.3709157,107.521035 82.2159638,107.418935 C82.0610118,107.316835 81.9457005,107.200923 81.8700263,107.071196 C81.7943521,106.941469 81.7565155,106.786519 81.7565155,106.606343 C81.7565155,106.284427 81.887442,106.030382 82.1492987,105.844199 C82.4111555,105.658016 82.7703023,105.564927 83.2267499,105.564927 C83.6519669,105.564927 84.0675682,105.65141 84.4735663,105.82438 L84.2609589,106.310854 C83.8645702,106.147494 83.5054234,106.065815 83.1835077,106.065815 C82.9000297,106.065815 82.6862233,106.110258 82.5420819,106.199145 C82.3979406,106.288032 82.325871,106.410551 82.325871,106.566704 C82.325871,106.672408 82.3528971,106.762495 82.4069501,106.836968 C82.4610031,106.911441 82.5480872,106.982309 82.668205,107.049575 C82.7883228,107.116841 83.0189455,107.214135 83.36008,107.34146 C83.8285393,107.512027 84.145045,107.683793 84.3096063,107.856762 C84.4741677,108.029732 84.5564472,108.247142 84.5564472,108.508999 Z M92.4805779,109.58645 L92.4805779,107.017143 C92.4805779,106.702435 92.413313,106.466407 92.2787811,106.309053 C92.1442492,106.151698 91.9352473,106.073022 91.6517694,106.073022 C91.2794042,106.073022 91.0043386,106.179926 90.8265643,106.393735 C90.64879,106.607545 90.5599041,106.936663 90.5599041,107.381098 L90.5599041,109.58645 L89.9617205,109.58645 L89.9617205,107.017143 C89.9617205,106.702435 89.8944556,106.466407 89.7599237,106.309053 C89.6253918,106.151698 89.4151888,106.073022 89.1293084,106.073022 C88.7545409,106.073022 88.4800759,106.185331 88.3059051,106.409951 C88.1317343,106.634571 88.0446503,107.002727 88.0446503,107.514429 L88.0446503,109.58645 L87.4464667,109.58645 L87.4464667,105.636997 L87.9329413,105.636997 L88.0302362,106.177524 L88.0590643,106.177524 C88.171975,105.985336 88.3311287,105.835191 88.5365301,105.727085 C88.7419315,105.618979 88.9719537,105.564927 89.2266034,105.564927 C89.8440088,105.564927 90.2475985,105.788342 90.4373846,106.23518 L90.4662127,106.23518 C90.5839282,106.028578 90.7544929,105.86522 90.9779119,105.745102 C91.201331,105.624985 91.4559769,105.564927 91.7418573,105.564927 C92.1886954,105.564927 92.5232184,105.679637 92.7454363,105.909062 C92.9676542,106.138487 93.0787615,106.505442 93.0787615,107.009936 L93.0787615,109.58645 L92.4805779,109.58645 Z M97.7200896,107.60812 C97.7200896,108.251951 97.557933,108.754637 97.233615,109.116191 C96.909297,109.477746 96.4612644,109.65852 95.8895037,109.65852 C95.5363574,109.65852 95.2228547,109.57564 94.9489861,109.409878 C94.6751176,109.244115 94.4637134,109.006286 94.3147674,108.696382 C94.1658213,108.386478 94.0913494,108.023727 94.0913494,107.60812 C94.0913494,106.964289 94.2523048,106.462804 94.5742205,106.103652 C94.8961362,105.7445 95.3429676,105.564927 95.9147283,105.564927 C96.4672701,105.564927 96.9062941,105.748704 97.2318133,106.116264 C97.5573325,106.483825 97.7200896,106.981105 97.7200896,107.60812 Z M94.7111541,107.60812 C94.7111541,108.112615 94.8120515,108.496986 95.0138494,108.761245 C95.2156473,109.025504 95.5123338,109.157632 95.9039178,109.157632 C96.2955017,109.157632 96.5927888,109.026105 96.7957879,108.763047 C96.9987869,108.499989 97.1002849,108.115017 97.1002849,107.60812 C97.1002849,107.106028 96.9987869,106.724659 96.7957879,106.464004 C96.5927888,106.203348 96.2930994,106.073022 95.8967107,106.073022 C95.5051267,106.073022 95.2096414,106.201546 95.0102459,106.458598 C94.8108504,106.715651 94.7111541,107.098821 94.7111541,107.60812 Z M101.471349,109.58645 L101.471349,107.031557 C101.471349,106.709642 101.398079,106.46941 101.251535,106.310854 C101.104991,106.152299 100.87557,106.073022 100.563263,106.073022 C100.150058,106.073022 99.847366,106.18473 99.6551775,106.408149 C99.462989,106.631568 99.3668962,107.000324 99.3668962,107.514429 L99.3668962,109.58645 L98.7687127,109.58645 L98.7687127,105.636997 L99.2551873,105.636997 L99.3524822,106.177524 L99.3813103,106.177524 C99.5038305,105.982933 99.6755963,105.832188 99.896613,105.725283 C100.11763,105.618378 100.363868,105.564927 100.635334,105.564927 C101.111,105.564927 101.468946,105.679637 101.709181,105.909062 C101.949417,106.138487 102.069533,106.505442 102.069533,107.009936 L102.069533,109.58645 L101.471349,109.58645 Z M104.573976,109.164839 C104.67968,109.164839 104.781779,109.157031 104.880275,109.141416 C104.978772,109.1258 105.056847,109.109585 105.114504,109.092768 L105.114504,109.550415 C105.04964,109.581645 104.954148,109.60747 104.828024,109.62789 C104.7019,109.64831 104.588391,109.65852 104.487492,109.65852 C103.723543,109.65852 103.341574,109.256132 103.341574,108.451343 L103.341574,106.10185 L102.775822,106.10185 L102.775822,105.813569 L103.341574,105.564927 L103.59382,104.721704 L103.939758,104.721704 L103.939758,105.636997 L105.085675,105.636997 L105.085675,106.10185 L103.939758,106.10185 L103.939758,108.426118 C103.939758,108.663951 103.996212,108.846527 104.109123,108.973852 C104.222033,109.101177 104.376983,109.164839 104.573976,109.164839 Z M108.60631,109.58645 L108.60631,107.031557 C108.60631,106.709642 108.533039,106.46941 108.386496,106.310854 C108.239952,106.152299 108.010531,106.073022 107.698224,106.073022 C107.282617,106.073022 106.979324,106.185931 106.788337,106.411753 C106.597349,106.637574 106.501857,107.007531 106.501857,107.521636 L106.501857,109.58645 L105.903674,109.58645 L105.903674,103.97938 L106.501857,103.97938 L106.501857,105.676636 C106.501857,105.880836 106.492248,106.050199 106.473029,106.184731 L106.509064,106.184731 C106.62678,105.994945 106.794341,105.845401 107.011755,105.736094 C107.229168,105.626786 107.477207,105.572134 107.755881,105.572134 C108.238754,105.572134 108.600904,105.686844 108.842341,105.916269 C109.083777,106.145694 109.204494,106.510246 109.204494,107.009936 L109.204494,109.58645 L108.60631,109.58645 Z" id="+0.1-this-month" fill="#9B9B9B"></path>
                    <path d="M49.3921916,105.341041 C49.6515147,104.969099 50.0767652,104.975991 50.3312835,105.341041 L52.6694132,108.694571 C52.9287363,109.066512 52.7677841,109.36803 52.322087,109.36803 L47.4013882,109.36803 C46.9502421,109.36803 46.7995436,109.059621 47.0540619,108.694571 L49.3921916,105.341041 Z" id="Triangle-Copy" fill="#64CCC6"></path>
                    <path d="M0.688515909,32.3849421 L147.747003,32.3849421" id="Line" stroke="#E6E6E6" stroke-width="0.819999993" stroke-linecap="square"></path>
                </g>
            </g>
        </g>
    </g>
</svg>