<?xml version="1.0" encoding="UTF-8"?>
<svg width="456px" height="407px" viewBox="0 0 456 407" version="1.1" xmlns="http://www.w3.org/2000/svg" xmlns:xlink="http://www.w3.org/1999/xlink">
    <!-- Generator: Sketch 43.1 (39012) - http://www.bohemiancoding.com/sketch -->
    <title>Group 13</title>
    <desc>Created with Sketch.</desc>
    <defs>
        <path d="M0,259.741613 C0,258.086969 1.34268413,256.745615 3.00760946,256.745615 L35.6361961,256.745615 L47.6472661,247 L59.1460943,256.745615 L387.000355,256.745615 C388.657013,256.745615 390,258.08354 390,259.741613 L390,386.749617 C390,388.404261 388.664292,389.745615 387.001845,389.745615 L2.99815456,389.745615 C1.34231952,389.745615 0,388.40769 0,386.749617 L0,259.741613 Z" id="path-1"></path>
        <filter x="-6.5%" y="-17.9%" width="113.1%" height="135.7%" filterUnits="objectBoundingBox" id="filter-2">
            <feOffset dx="0" dy="0" in="SourceAlpha" result="shadowOffsetOuter1"></feOffset>
            <feGaussianBlur stdDeviation="8.5" in="shadowOffsetOuter1" result="shadowBlurOuter1"></feGaussianBlur>
            <feComposite in="shadowBlurOuter1" in2="SourceAlpha" operator="out" result="shadowBlurOuter1"></feComposite>
            <feColorMatrix values="0 0 0 0 0.71372549   0 0 0 0 0.71372549   0 0 0 0 0.71372549  0 0 0 0.5 0" type="matrix" in="shadowBlurOuter1"></feColorMatrix>
        </filter>
        <circle id="path-3" cx="75" cy="217" r="10"></circle>
        <filter x="-37.5%" y="-37.5%" width="175.0%" height="175.0%" filterUnits="objectBoundingBox" id="filter-4">
            <feMorphology radius="1.5" operator="dilate" in="SourceAlpha" result="shadowSpreadOuter1"></feMorphology>
            <feOffset dx="0" dy="0" in="shadowSpreadOuter1" result="shadowOffsetOuter1"></feOffset>
            <feGaussianBlur stdDeviation="2" in="shadowOffsetOuter1" result="shadowBlurOuter1"></feGaussianBlur>
            <feComposite in="shadowBlurOuter1" in2="SourceAlpha" operator="out" result="shadowBlurOuter1"></feComposite>
            <feColorMatrix values="0 0 0 0 0   0 0 0 0 0   0 0 0 0 0  0 0 0 0.5 0" type="matrix" in="shadowBlurOuter1"></feColorMatrix>
        </filter>
    </defs>
    <g id="Marketing" stroke="none" stroke-width="1" fill="none" fill-rule="evenodd">
        <g id="Artboard-2" transform="translate(-157.000000, -807.000000)">
            <g id="Group-13" transform="translate(174.000000, 807.000000)">
                <g id="Group-11">
                    <g id="Group-6" opacity="0.235224185" transform="translate(28.000000, 0.000000)" fill="#D40202">
                        <polygon id="Triangle-Copy-4" transform="translate(363.697298, 269.156369) rotate(-210.000000) translate(-363.697298, -269.156369) " points="363.697298 194.244443 461.392312 344.068296 266.002284 344.068296"></polygon>
                        <polygon id="Path-4-Copy-2" fill-rule="nonzero" points="317.373302 222.993828 343.539466 204.120535 243.462897 64.9899114 126.49851 136.987696 36.818302 0.639468681 0.259490484 0.639468681 116.508419 181.042008 234.8151 108.21797"></polygon>
                    </g>
                    <g id="alarm" transform="translate(17.000000, 156.000000)" fill-rule="nonzero" fill="#FFFFFF">
                        <path d="M62.16,57.4820745 C57.3552,53.9804007 54.6,48.6280169 54.6,42.8027645 L54.6,30.5734032 C54.6,20.3292749 47.4852,11.6668107 37.8,9.0008099 L37.8,6.11468064 C37.8,2.74345338 34.9734,0 31.5,0 C28.0266,0 25.2,2.74345338 25.2,6.11468064 L25.2,9.0008099 C15.5148,11.6708871 8.4,20.3292749 8.4,30.5734032 L8.4,42.8027645 C8.4,48.6280169 5.6448,53.9763242 0.84,57.4820745 C0.1176,58.007937 -0.1764,58.9251391 0.1092,59.7567357 C0.3948,60.5883322 1.197,61.1508829 2.1,61.1508829 L21.21,61.1508829 C21.0714,61.8194213 20.9958,62.5001891 20.9958,63.1891097 C20.9958,68.806463 25.7082,73.3802441 31.4958,73.3802441 C37.2834,73.3802441 41.9958,68.806463 41.9958,63.1891097 C41.9958,62.5042655 41.9244,61.8194213 41.7858,61.1508829 L60.8958,61.1508829 C61.7988,61.1508829 62.601,60.5883322 62.8866,59.7567357 C63.1722,58.9251391 62.8782,58.007937 62.1558,57.4820745 L62.16,57.4820745 Z M29.4,6.11468064 C29.4,4.9895794 30.3408,4.07645376 31.5,4.07645376 C32.6592,4.07645376 33.6,4.9895794 33.6,6.11468064 L33.6,8.24666596 C32.907,8.18551915 32.2098,8.15290752 31.5,8.15290752 C30.7902,8.15290752 30.093,8.18551915 29.4,8.24666596 L29.4,6.11468064 Z M37.8,63.1850333 C37.8,66.5562606 34.9734,69.2997139 31.5,69.2997139 C28.0266,69.2997139 25.2,66.5562606 25.2,63.1850333 C25.2,62.4879597 25.326,61.799039 25.5612,61.1468064 L37.4388,61.1468064 C37.674,61.799039 37.8,62.4879597 37.8,63.1850333 Z M7.3164,57.0703526 C8.3874,55.8107284 9.3198,54.4369635 10.0842,52.9898224 C11.7558,49.8183414 12.6,46.3900438 12.6,42.8027645 L12.6,30.5734032 C12.6,20.4597214 21.0798,12.2293613 31.5,12.2293613 C41.9202,12.2293613 50.4,20.4597214 50.4,30.5734032 L50.4,42.8027645 C50.4,46.3900438 51.2484,49.8183414 52.9158,52.9898224 C53.6802,54.44104 54.6126,55.8107284 55.6836,57.0703526 L7.3122,57.0703526 L7.3164,57.0703526 Z" id="Shape"></path>
                    </g>
                    <g id="Rectangle-Copy-9">
                        <use fill="black" fill-opacity="1" filter="url(#filter-2)" xlink:href="#path-1"></use>
                        <use fill="#FFFFFF" fill-rule="evenodd" xlink:href="#path-1"></use>
                        <path stroke="#E6E6E6" stroke-width="1" d="M47.6403114,247.649527 L58.8228171,257.127049 L58.9627129,257.245615 L59.1460943,257.245615 L387.000355,257.245615 C388.382282,257.245615 389.5,258.361092 389.5,259.741613 L389.5,386.749617 C389.5,388.130494 388.385776,389.245615 387.001845,389.245615 L2.99815456,389.245615 C1.61710688,389.245615 0.5,388.130195 0.5,386.749617 L0.5,259.741613 C0.5,258.362114 1.61982965,257.245615 3.00760946,257.245615 L35.6361961,257.245615 L35.8135275,257.245615 L35.9512319,257.133884 L47.6403114,247.649527 Z"></path>
                    </g>
                    <g id="Oval-3">
                        <use fill="black" fill-opacity="1" filter="url(#filter-4)" xlink:href="#path-3"></use>
                        <use stroke="#FFFFFF" stroke-width="3" fill="#FF7C87" fill-rule="evenodd" xlink:href="#path-3"></use>
                    </g>
                    <ellipse id="Oval-4" fill="#FF7C87" cx="45" cy="326" rx="26" ry="26"></ellipse>
                    <polygon id="Triangle-Copy-3" fill="#FFFFFF" transform="translate(54.488704, 334.970815) rotate(-210.000000) translate(-54.488704, -334.970815) " points="54.4887035 330.385713 60.4887035 339.555917 48.4887035 339.555917"></polygon>
                    <polyline id="Path-4-Copy" stroke="#FFFFFF" stroke-width="2" points="33 318 39.6142188 328.22943 46.8388782 323.797407 52.4471922 331.567779"></polyline>
                </g>
                <path d="M89.0625,326.1875 C88.5520808,326.1875 88.1250017,326.122396 87.78125,325.992188 L87.78125,324.421875 C88.2187522,324.531251 88.5989567,324.585938 88.921875,324.585938 C89.9427134,324.585938 90.453125,323.940111 90.453125,322.648438 L90.453125,311.578125 L92.328125,311.578125 L92.328125,322.585938 C92.328125,323.75261 92.050784,324.644528 91.4960938,325.261719 C90.9414035,325.878909 90.1302137,326.1875 89.0625,326.1875 Z M100.5,323 L100.132812,321.796875 L100.070312,321.796875 C99.6536438,322.322919 99.2343771,322.680989 98.8125,322.871094 C98.3906229,323.061199 97.8489616,323.15625 97.1875,323.15625 C96.3385374,323.15625 95.6757836,322.927086 95.1992188,322.46875 C94.7226539,322.010414 94.484375,321.361983 94.484375,320.523438 C94.484375,319.632808 94.8151009,318.96094 95.4765625,318.507812 C96.1380241,318.054685 97.1458266,317.807292 98.5,317.765625 L99.9921875,317.71875 L99.9921875,317.257812 C99.9921875,316.705726 99.8632825,316.29297 99.6054688,316.019531 C99.347655,315.746092 98.9479194,315.609375 98.40625,315.609375 C97.9635395,315.609375 97.5390645,315.674479 97.1328125,315.804688 C96.7265605,315.934896 96.3359394,316.088541 95.9609375,316.265625 L95.3671875,314.953125 C95.8359398,314.708332 96.3489555,314.522136 96.90625,314.394531 C97.4635445,314.266926 97.9895809,314.203125 98.484375,314.203125 C99.5833388,314.203125 100.412758,314.442706 100.972656,314.921875 C101.532555,315.401044 101.8125,316.153641 101.8125,317.179688 L101.8125,323 L100.5,323 Z M97.765625,321.75 C98.432295,321.75 98.9674459,321.563804 99.3710938,321.191406 C99.7747416,320.819009 99.9765625,320.296878 99.9765625,319.625 L99.9765625,318.875 L98.8671875,318.921875 C98.0025998,318.953125 97.3736999,319.097655 96.9804688,319.355469 C96.5872376,319.613283 96.390625,320.00781 96.390625,320.539062 C96.390625,320.924481 96.5052072,321.222655 96.734375,321.433594 C96.9635428,321.644532 97.3072894,321.75 97.765625,321.75 Z M111.65625,323 L109.8125,323 L109.8125,317.671875 C109.8125,317.010413 109.687501,316.516929 109.4375,316.191406 C109.187499,315.865884 108.796878,315.703125 108.265625,315.703125 C107.557288,315.703125 107.037762,315.933591 106.707031,316.394531 C106.3763,316.855471 106.210938,317.62239 106.210938,318.695312 L106.210938,323 L104.375,323 L104.375,314.359375 L105.8125,314.359375 L106.070312,315.492188 L106.164062,315.492188 C106.403647,315.080727 106.7513,314.763022 107.207031,314.539062 C107.662763,314.315103 108.16406,314.203125 108.710938,314.203125 C110.039069,314.203125 110.919269,314.656245 111.351562,315.5625 L111.476562,315.5625 C111.731772,315.135415 112.091144,314.802085 112.554688,314.5625 C113.018231,314.322915 113.549476,314.203125 114.148438,314.203125 C115.179693,314.203125 115.930987,314.463539 116.402344,314.984375 C116.8737,315.505211 117.109375,316.299474 117.109375,317.367188 L117.109375,323 L115.273438,323 L115.273438,317.671875 C115.273438,317.010413 115.147137,316.516929 114.894531,316.191406 C114.641926,315.865884 114.250003,315.703125 113.71875,315.703125 C113.005205,315.703125 112.483075,315.925779 112.152344,316.371094 C111.821613,316.816408 111.65625,317.499995 111.65625,318.421875 L111.65625,323 Z M123.445312,323.15625 C122.101556,323.15625 121.050785,322.764327 120.292969,321.980469 C119.535152,321.196611 119.15625,320.117194 119.15625,318.742188 C119.15625,317.330722 119.507809,316.221358 120.210938,315.414062 C120.914066,314.606767 121.880202,314.203125 123.109375,314.203125 C124.250006,314.203125 125.151038,314.549476 125.8125,315.242188 C126.473962,315.934899 126.804688,316.888015 126.804688,318.101562 L126.804688,319.09375 L121.046875,319.09375 C121.072917,319.932296 121.299477,320.576821 121.726562,321.027344 C122.153648,321.477867 122.755204,321.703125 123.53125,321.703125 C124.041669,321.703125 124.516925,321.654948 124.957031,321.558594 C125.397138,321.462239 125.869789,321.302084 126.375,321.078125 L126.375,322.570312 C125.927081,322.783855 125.473961,322.934895 125.015625,323.023438 C124.557289,323.11198 124.033857,323.15625 123.445312,323.15625 Z M123.109375,315.59375 C122.526039,315.59375 122.058596,315.778644 121.707031,316.148438 C121.355467,316.518231 121.145834,317.057288 121.078125,317.765625 L125,317.765625 C124.989583,317.05208 124.81771,316.511721 124.484375,316.144531 C124.15104,315.777342 123.692711,315.59375 123.109375,315.59375 Z M134.695312,320.539062 C134.695312,321.382817 134.388024,322.029946 133.773438,322.480469 C133.158851,322.930992 132.278652,323.15625 131.132812,323.15625 C129.981765,323.15625 129.057295,322.981773 128.359375,322.632812 L128.359375,321.046875 C129.375005,321.515627 130.320308,321.75 131.195312,321.75 C132.325526,321.75 132.890625,321.408858 132.890625,320.726562 C132.890625,320.507811 132.828126,320.325522 132.703125,320.179688 C132.578124,320.033853 132.372397,319.882813 132.085938,319.726562 C131.799478,319.570312 131.401044,319.39323 130.890625,319.195312 C129.895828,318.809894 129.222658,318.424481 128.871094,318.039062 C128.519529,317.653644 128.34375,317.153649 128.34375,316.539062 C128.34375,315.799475 128.641924,315.225262 129.238281,314.816406 C129.834638,314.40755 130.645828,314.203125 131.671875,314.203125 C132.687505,314.203125 133.648433,314.408852 134.554688,314.820312 L133.960938,316.203125 C133.028641,315.817706 132.244795,315.625 131.609375,315.625 C130.64062,315.625 130.15625,315.901039 130.15625,316.453125 C130.15625,316.72396 130.282551,316.953124 130.535156,317.140625 C130.787762,317.328126 131.338537,317.585936 132.1875,317.914062 C132.901045,318.190106 133.419269,318.442707 133.742188,318.671875 C134.065106,318.901043 134.304687,319.165363 134.460938,319.464844 C134.617188,319.764324 134.695312,320.122394 134.695312,320.539062 Z M150.320312,317.179688 C150.320312,319.065114 149.79688,320.506505 148.75,321.503906 C147.70312,322.501307 146.195322,323 144.226562,323 L141.03125,323 L141.03125,311.578125 L144.5625,311.578125 C146.380217,311.578125 147.794266,312.067703 148.804688,313.046875 C149.815109,314.026047 150.320312,315.403637 150.320312,317.179688 Z M148.351562,317.242188 C148.351562,314.507799 147.072929,313.140625 144.515625,313.140625 L142.898438,313.140625 L142.898438,321.429688 L144.226562,321.429688 C146.976576,321.429688 148.351562,320.033868 148.351562,317.242188 Z M156.351562,323.15625 C155.007806,323.15625 153.957035,322.764327 153.199219,321.980469 C152.441402,321.196611 152.0625,320.117194 152.0625,318.742188 C152.0625,317.330722 152.414059,316.221358 153.117188,315.414062 C153.820316,314.606767 154.786452,314.203125 156.015625,314.203125 C157.156256,314.203125 158.057288,314.549476 158.71875,315.242188 C159.380212,315.934899 159.710938,316.888015 159.710938,318.101562 L159.710938,319.09375 L153.953125,319.09375 C153.979167,319.932296 154.205727,320.576821 154.632812,321.027344 C155.059898,321.477867 155.661454,321.703125 156.4375,321.703125 C156.947919,321.703125 157.423175,321.654948 157.863281,321.558594 C158.303388,321.462239 158.776039,321.302084 159.28125,321.078125 L159.28125,322.570312 C158.833331,322.783855 158.380211,322.934895 157.921875,323.023438 C157.463539,323.11198 156.940107,323.15625 156.351562,323.15625 Z M156.015625,315.59375 C155.432289,315.59375 154.964846,315.778644 154.613281,316.148438 C154.261717,316.518231 154.052084,317.057288 153.984375,317.765625 L157.90625,317.765625 C157.895833,317.05208 157.72396,316.511721 157.390625,316.144531 C157.05729,315.777342 156.598961,315.59375 156.015625,315.59375 Z M163.632812,323 L161.796875,323 L161.796875,310.84375 L163.632812,310.84375 L163.632812,323 Z M173.554688,314.359375 L173.554688,315.367188 L172.078125,315.640625 C172.213542,315.822918 172.32552,316.046874 172.414062,316.3125 C172.502605,316.578126 172.546875,316.859374 172.546875,317.15625 C172.546875,318.046879 172.239586,318.747393 171.625,319.257812 C171.010414,319.768232 170.164068,320.023438 169.085938,320.023438 C168.809894,320.023438 168.559897,320.002604 168.335938,319.960938 C167.940102,320.20573 167.742188,320.492186 167.742188,320.820312 C167.742188,321.01823 167.834634,321.166666 168.019531,321.265625 C168.204428,321.364584 168.544268,321.414062 169.039062,321.414062 L170.546875,321.414062 C171.500005,321.414062 172.223956,321.617185 172.71875,322.023438 C173.213544,322.42969 173.460938,323.015621 173.460938,323.78125 C173.460938,324.760422 173.057296,325.515622 172.25,326.046875 C171.442704,326.578128 170.276049,326.84375 168.75,326.84375 C167.572911,326.84375 166.674482,326.635419 166.054688,326.21875 C165.434893,325.802081 165.125,325.208337 165.125,324.4375 C165.125,323.906247 165.292967,323.459637 165.628906,323.097656 C165.964845,322.735675 166.434893,322.484376 167.039062,322.34375 C166.79427,322.239583 166.592449,322.071616 166.433594,321.839844 C166.274739,321.608072 166.195312,321.364585 166.195312,321.109375 C166.195312,320.786457 166.286457,320.513022 166.46875,320.289062 C166.651043,320.065103 166.921873,319.843751 167.28125,319.625 C166.833331,319.432291 166.470053,319.118492 166.191406,318.683594 C165.912759,318.248696 165.773438,317.739586 165.773438,317.15625 C165.773438,316.218745 166.069007,315.49219 166.660156,314.976562 C167.251305,314.460935 168.093745,314.203125 169.1875,314.203125 C169.432293,314.203125 169.688801,314.220052 169.957031,314.253906 C170.225262,314.287761 170.427083,314.322916 170.5625,314.359375 L173.554688,314.359375 Z M166.765625,324.34375 C166.765625,324.739585 166.944009,325.04427 167.300781,325.257812 C167.657554,325.471355 168.158851,325.578125 168.804688,325.578125 C169.804692,325.578125 170.549477,325.434897 171.039062,325.148438 C171.528648,324.861978 171.773438,324.481773 171.773438,324.007812 C171.773438,323.632811 171.639324,323.365886 171.371094,323.207031 C171.102863,323.048176 170.60417,322.96875 169.875,322.96875 L168.484375,322.96875 C167.958331,322.96875 167.540366,323.092447 167.230469,323.339844 C166.920571,323.587241 166.765625,323.921873 166.765625,324.34375 Z M167.554688,317.15625 C167.554688,317.697919 167.694009,318.114582 167.972656,318.40625 C168.251303,318.697918 168.651039,318.84375 169.171875,318.84375 C170.23438,318.84375 170.765625,318.276047 170.765625,317.140625 C170.765625,316.578122 170.634116,316.144533 170.371094,315.839844 C170.108072,315.535155 169.708336,315.382812 169.171875,315.382812 C168.640622,315.382812 168.238283,315.533853 167.964844,315.835938 C167.691405,316.138022 167.554688,316.578122 167.554688,317.15625 Z M180.5625,323 L180.195312,321.796875 L180.132812,321.796875 C179.716144,322.322919 179.296877,322.680989 178.875,322.871094 C178.453123,323.061199 177.911462,323.15625 177.25,323.15625 C176.401037,323.15625 175.738284,322.927086 175.261719,322.46875 C174.785154,322.010414 174.546875,321.361983 174.546875,320.523438 C174.546875,319.632808 174.877601,318.96094 175.539062,318.507812 C176.200524,318.054685 177.208327,317.807292 178.5625,317.765625 L180.054688,317.71875 L180.054688,317.257812 C180.054688,316.705726 179.925783,316.29297 179.667969,316.019531 C179.410155,315.746092 179.010419,315.609375 178.46875,315.609375 C178.026039,315.609375 177.601565,315.674479 177.195312,315.804688 C176.78906,315.934896 176.398439,316.088541 176.023438,316.265625 L175.429688,314.953125 C175.89844,314.708332 176.411456,314.522136 176.96875,314.394531 C177.526044,314.266926 178.052081,314.203125 178.546875,314.203125 C179.645839,314.203125 180.475258,314.442706 181.035156,314.921875 C181.595055,315.401044 181.875,316.153641 181.875,317.179688 L181.875,323 L180.5625,323 Z M177.828125,321.75 C178.494795,321.75 179.029946,321.563804 179.433594,321.191406 C179.837242,320.819009 180.039062,320.296878 180.039062,319.625 L180.039062,318.875 L178.929688,318.921875 C178.0651,318.953125 177.4362,319.097655 177.042969,319.355469 C176.649738,319.613283 176.453125,320.00781 176.453125,320.539062 C176.453125,320.924481 176.567707,321.222655 176.796875,321.433594 C177.026043,321.644532 177.369789,321.75 177.828125,321.75 Z M187.351562,323.15625 C186.273432,323.15625 185.432295,322.765629 184.828125,321.984375 C184.223955,321.203121 183.921875,320.106778 183.921875,318.695312 C183.921875,317.278639 184.227862,316.175785 184.839844,315.386719 C185.451826,314.597652 186.299474,314.203125 187.382812,314.203125 C188.518235,314.203125 189.38281,314.622392 189.976562,315.460938 L190.070312,315.460938 C189.98177,314.841143 189.9375,314.351564 189.9375,313.992188 L189.9375,310.84375 L191.78125,310.84375 L191.78125,323 L190.34375,323 L190.023438,321.867188 L189.9375,321.867188 C189.348955,322.726567 188.486985,323.15625 187.351562,323.15625 Z M187.84375,321.671875 C188.598962,321.671875 189.148436,321.459638 189.492188,321.035156 C189.835939,320.610675 190.013021,319.92188 190.023438,318.96875 L190.023438,318.710938 C190.023438,317.62239 189.846356,316.848961 189.492188,316.390625 C189.138019,315.932289 188.583337,315.703125 187.828125,315.703125 C187.182288,315.703125 186.684898,315.964841 186.335938,316.488281 C185.986977,317.011721 185.8125,317.757808 185.8125,318.726562 C185.8125,319.684901 185.981769,320.415362 186.320312,320.917969 C186.658856,321.420575 187.166663,321.671875 187.84375,321.671875 Z M202.070312,318.664062 C202.070312,320.075528 201.708337,321.177079 200.984375,321.96875 C200.260413,322.760421 199.252611,323.15625 197.960938,323.15625 C197.153642,323.15625 196.440107,322.97396 195.820312,322.609375 C195.200518,322.24479 194.72396,321.721358 194.390625,321.039062 C194.05729,320.356767 193.890625,319.565109 193.890625,318.664062 C193.890625,317.263014 194.249996,316.169275 194.96875,315.382812 C195.687504,314.59635 196.700514,314.203125 198.007812,314.203125 C199.257819,314.203125 200.247392,314.605465 200.976562,315.410156 C201.705733,316.214848 202.070312,317.299472 202.070312,318.664062 Z M195.78125,318.664062 C195.78125,320.658864 196.518222,321.65625 197.992188,321.65625 C199.450528,321.65625 200.179688,320.658864 200.179688,318.664062 C200.179688,316.690094 199.44532,315.703125 197.976562,315.703125 C197.205725,315.703125 196.647137,315.958331 196.300781,316.46875 C195.954425,316.979169 195.78125,317.710933 195.78125,318.664062 Z M205.5625,311.578125 L205.242188,315.703125 L204.070312,315.703125 L203.75,311.578125 L205.5625,311.578125 Z M213.242188,320.539062 C213.242188,321.382817 212.934899,322.029946 212.320312,322.480469 C211.705726,322.930992 210.825527,323.15625 209.679688,323.15625 C208.52864,323.15625 207.60417,322.981773 206.90625,322.632812 L206.90625,321.046875 C207.92188,321.515627 208.867183,321.75 209.742188,321.75 C210.872401,321.75 211.4375,321.408858 211.4375,320.726562 C211.4375,320.507811 211.375001,320.325522 211.25,320.179688 C211.124999,320.033853 210.919272,319.882813 210.632812,319.726562 C210.346353,319.570312 209.947919,319.39323 209.4375,319.195312 C208.442703,318.809894 207.769533,318.424481 207.417969,318.039062 C207.066404,317.653644 206.890625,317.153649 206.890625,316.539062 C206.890625,315.799475 207.188799,315.225262 207.785156,314.816406 C208.381513,314.40755 209.192703,314.203125 210.21875,314.203125 C211.23438,314.203125 212.195308,314.408852 213.101562,314.820312 L212.507812,316.203125 C211.575516,315.817706 210.79167,315.625 210.15625,315.625 C209.187495,315.625 208.703125,315.901039 208.703125,316.453125 C208.703125,316.72396 208.829426,316.953124 209.082031,317.140625 C209.334637,317.328126 209.885412,317.585936 210.734375,317.914062 C211.44792,318.190106 211.966144,318.442707 212.289062,318.671875 C212.611981,318.901043 212.851562,319.165363 213.007812,319.464844 C213.164063,319.764324 213.242188,320.122394 213.242188,320.539062 Z M224.4375,313.015625 C223.364578,313.015625 222.520836,313.39583 221.90625,314.15625 C221.291664,314.91667 220.984375,315.966139 220.984375,317.304688 C220.984375,318.705736 221.279945,319.765621 221.871094,320.484375 C222.462243,321.203129 223.317703,321.5625 224.4375,321.5625 C224.921877,321.5625 225.390623,321.514323 225.84375,321.417969 C226.296877,321.321614 226.768227,321.197917 227.257812,321.046875 L227.257812,322.648438 C226.361975,322.986981 225.34636,323.15625 224.210938,323.15625 C222.539054,323.15625 221.255213,322.649745 220.359375,321.636719 C219.463537,320.623693 219.015625,319.174489 219.015625,317.289062 C219.015625,316.101557 219.233071,315.062504 219.667969,314.171875 C220.102867,313.281246 220.731767,312.598961 221.554688,312.125 C222.377608,311.651039 223.343744,311.414062 224.453125,311.414062 C225.619798,311.414062 226.697912,311.658852 227.6875,312.148438 L227.015625,313.703125 C226.630206,313.520832 226.222658,313.360678 225.792969,313.222656 C225.363279,313.084635 224.911461,313.015625 224.4375,313.015625 Z M231.359375,323 L229.523438,323 L229.523438,310.84375 L231.359375,310.84375 L231.359375,323 Z M239.390625,323 L239.023438,321.796875 L238.960938,321.796875 C238.544269,322.322919 238.125002,322.680989 237.703125,322.871094 C237.281248,323.061199 236.739587,323.15625 236.078125,323.15625 C235.229162,323.15625 234.566409,322.927086 234.089844,322.46875 C233.613279,322.010414 233.375,321.361983 233.375,320.523438 C233.375,319.632808 233.705726,318.96094 234.367188,318.507812 C235.028649,318.054685 236.036452,317.807292 237.390625,317.765625 L238.882812,317.71875 L238.882812,317.257812 C238.882812,316.705726 238.753908,316.29297 238.496094,316.019531 C238.23828,315.746092 237.838544,315.609375 237.296875,315.609375 C236.854164,315.609375 236.42969,315.674479 236.023438,315.804688 C235.617185,315.934896 235.226564,316.088541 234.851562,316.265625 L234.257812,314.953125 C234.726565,314.708332 235.239581,314.522136 235.796875,314.394531 C236.354169,314.266926 236.880206,314.203125 237.375,314.203125 C238.473964,314.203125 239.303383,314.442706 239.863281,314.921875 C240.42318,315.401044 240.703125,316.153641 240.703125,317.179688 L240.703125,323 L239.390625,323 Z M236.65625,321.75 C237.32292,321.75 237.858071,321.563804 238.261719,321.191406 C238.665367,320.819009 238.867188,320.296878 238.867188,319.625 L238.867188,318.875 L237.757812,318.921875 C236.893225,318.953125 236.264325,319.097655 235.871094,319.355469 C235.477863,319.613283 235.28125,320.00781 235.28125,320.539062 C235.28125,320.924481 235.395832,321.222655 235.625,321.433594 C235.854168,321.644532 236.197914,321.75 236.65625,321.75 Z M247.648438,314.203125 C248.018231,314.203125 248.322915,314.229166 248.5625,314.28125 L248.382813,315.992188 C248.122395,315.929687 247.851564,315.898438 247.570313,315.898438 C246.835934,315.898438 246.240888,316.138018 245.785156,316.617188 C245.329425,317.096357 245.101563,317.718746 245.101563,318.484375 L245.101563,323 L243.265625,323 L243.265625,314.359375 L244.703125,314.359375 L244.945313,315.882812 L245.039063,315.882812 C245.325522,315.367185 245.699216,314.958335 246.160156,314.65625 C246.621096,314.354165 247.117185,314.203125 247.648438,314.203125 Z M252,323 L250.164063,323 L250.164063,314.359375 L252,314.359375 L252,323 Z M250.054688,312.070312 C250.054688,311.742186 250.14453,311.489584 250.324219,311.3125 C250.503907,311.135416 250.760415,311.046875 251.09375,311.046875 C251.416668,311.046875 251.667968,311.135416 251.847656,311.3125 C252.027345,311.489584 252.117188,311.742186 252.117188,312.070312 C252.117188,312.382814 252.027345,312.628905 251.847656,312.808594 C251.667968,312.988282 251.416668,313.078125 251.09375,313.078125 C250.760415,313.078125 250.503907,312.988282 250.324219,312.808594 C250.14453,312.628905 250.054688,312.382814 250.054688,312.070312 Z M257.84375,321.671875 C258.291669,321.671875 258.739581,321.601563 259.1875,321.460938 L259.1875,322.84375 C258.984374,322.932292 258.722658,323.00651 258.402344,323.066406 C258.08203,323.126302 257.750002,323.15625 257.40625,323.15625 C255.666658,323.15625 254.796875,322.239593 254.796875,320.40625 L254.796875,315.75 L253.617188,315.75 L253.617188,314.9375 L254.882813,314.265625 L255.507813,312.4375 L256.640625,312.4375 L256.640625,314.359375 L259.101562,314.359375 L259.101562,315.75 L256.640625,315.75 L256.640625,320.375 C256.640625,320.817711 256.751301,321.14453 256.972656,321.355469 C257.194012,321.566407 257.484373,321.671875 257.84375,321.671875 Z M259.601562,314.359375 L261.601562,314.359375 L263.359375,319.257812 C263.625001,319.955733 263.802083,320.611976 263.890625,321.226562 L263.953125,321.226562 C264,320.940103 264.085937,320.59245 264.210938,320.183594 C264.335938,319.774738 264.99739,317.833351 266.195312,314.359375 L268.179688,314.359375 L264.484375,324.148438 C263.812497,325.945321 262.692716,326.84375 261.125,326.84375 C260.718748,326.84375 260.322919,326.79948 259.9375,326.710938 L259.9375,325.257812 C260.213543,325.320313 260.528644,325.351562 260.882812,325.351562 C261.768234,325.351562 262.390623,324.838547 262.75,323.8125 L263.070312,323 L259.601562,314.359375 Z M281.40625,315.03125 C281.40625,316.223964 281.015629,317.138018 280.234375,317.773438 C279.453121,318.408857 278.341153,318.726562 276.898438,318.726562 L275.710938,318.726562 L275.710938,323 L273.84375,323 L273.84375,311.578125 L277.132812,311.578125 C278.559903,311.578125 279.628903,311.869789 280.339844,312.453125 C281.050785,313.036461 281.40625,313.895828 281.40625,315.03125 Z M275.710938,317.15625 L276.703125,317.15625 C277.661463,317.15625 278.364581,316.989585 278.8125,316.65625 C279.260419,316.322915 279.484375,315.802087 279.484375,315.09375 C279.484375,314.437497 279.283856,313.947918 278.882812,313.625 C278.481769,313.302082 277.856775,313.140625 277.007812,313.140625 L275.710938,313.140625 L275.710938,317.15625 Z M285.414062,318.585938 L282.515625,314.359375 L284.609375,314.359375 L286.578125,317.382812 L288.5625,314.359375 L290.640625,314.359375 L287.734375,318.585938 L290.789062,323 L288.710938,323 L286.578125,319.765625 L284.453125,323 L282.375,323 L285.414062,318.585938 Z M302.265625,320.539062 C302.265625,321.382817 301.958336,322.029946 301.34375,322.480469 C300.729164,322.930992 299.848964,323.15625 298.703125,323.15625 C297.552078,323.15625 296.627608,322.981773 295.929688,322.632812 L295.929688,321.046875 C296.945318,321.515627 297.890621,321.75 298.765625,321.75 C299.895839,321.75 300.460938,321.408858 300.460938,320.726562 C300.460938,320.507811 300.398438,320.325522 300.273438,320.179688 C300.148437,320.033853 299.94271,319.882813 299.65625,319.726562 C299.36979,319.570312 298.971357,319.39323 298.460938,319.195312 C297.466141,318.809894 296.792971,318.424481 296.441406,318.039062 C296.089842,317.653644 295.914062,317.153649 295.914062,316.539062 C295.914062,315.799475 296.212237,315.225262 296.808594,314.816406 C297.404951,314.40755 298.216141,314.203125 299.242188,314.203125 C300.257818,314.203125 301.218745,314.408852 302.125,314.820312 L301.53125,316.203125 C300.598954,315.817706 299.815107,315.625 299.179688,315.625 C298.210933,315.625 297.726562,315.901039 297.726562,316.453125 C297.726562,316.72396 297.852863,316.953124 298.105469,317.140625 C298.358074,317.328126 298.90885,317.585936 299.757812,317.914062 C300.471358,318.190106 300.989582,318.442707 301.3125,318.671875 C301.635418,318.901043 301.874999,319.165363 302.03125,319.464844 C302.187501,319.764324 302.265625,320.122394 302.265625,320.539062 Z M307.734375,323.15625 C306.427077,323.15625 305.433597,322.774743 304.753906,322.011719 C304.074215,321.248694 303.734375,320.153653 303.734375,318.726562 C303.734375,317.27343 304.08984,316.156254 304.800781,315.375 C305.511722,314.593746 306.539056,314.203125 307.882812,314.203125 C308.794275,314.203125 309.61458,314.372394 310.34375,314.710938 L309.789062,316.1875 C309.013017,315.885415 308.372398,315.734375 307.867188,315.734375 C306.372388,315.734375 305.625,316.726553 305.625,318.710938 C305.625,319.679692 305.811196,320.40755 306.183594,320.894531 C306.555991,321.381513 307.101559,321.625 307.820312,321.625 C308.638025,321.625 309.411455,321.421877 310.140625,321.015625 L310.140625,322.617188 C309.812498,322.809897 309.462241,322.947916 309.089844,323.03125 C308.717446,323.114584 308.265628,323.15625 307.734375,323.15625 Z M319.835938,318.664062 C319.835938,320.075528 319.473962,321.177079 318.75,321.96875 C318.026038,322.760421 317.018236,323.15625 315.726562,323.15625 C314.919267,323.15625 314.205732,322.97396 313.585938,322.609375 C312.966143,322.24479 312.489585,321.721358 312.15625,321.039062 C311.822915,320.356767 311.65625,319.565109 311.65625,318.664062 C311.65625,317.263014 312.015621,316.169275 312.734375,315.382812 C313.453129,314.59635 314.466139,314.203125 315.773438,314.203125 C317.023444,314.203125 318.013017,314.605465 318.742188,315.410156 C319.471358,316.214848 319.835938,317.299472 319.835938,318.664062 Z M313.546875,318.664062 C313.546875,320.658864 314.283847,321.65625 315.757812,321.65625 C317.216153,321.65625 317.945312,320.658864 317.945312,318.664062 C317.945312,316.690094 317.210945,315.703125 315.742188,315.703125 C314.97135,315.703125 314.412762,315.958331 314.066406,316.46875 C313.72005,316.979169 313.546875,317.710933 313.546875,318.664062 Z M326.328125,314.203125 C326.697919,314.203125 327.002603,314.229166 327.242188,314.28125 L327.0625,315.992188 C326.802082,315.929687 326.531251,315.898438 326.25,315.898438 C325.515621,315.898438 324.920575,316.138018 324.464844,316.617188 C324.009112,317.096357 323.78125,317.718746 323.78125,318.484375 L323.78125,323 L321.945312,323 L321.945312,314.359375 L323.382812,314.359375 L323.625,315.882812 L323.71875,315.882812 C324.00521,315.367185 324.378904,314.958335 324.839844,314.65625 C325.300784,314.354165 325.796872,314.203125 326.328125,314.203125 Z M332.296875,323.15625 C330.953118,323.15625 329.902348,322.764327 329.144531,321.980469 C328.386715,321.196611 328.007812,320.117194 328.007812,318.742188 C328.007812,317.330722 328.359371,316.221358 329.0625,315.414062 C329.765629,314.606767 330.731765,314.203125 331.960938,314.203125 C333.101568,314.203125 334.002601,314.549476 334.664062,315.242188 C335.325524,315.934899 335.65625,316.888015 335.65625,318.101562 L335.65625,319.09375 L329.898438,319.09375 C329.924479,319.932296 330.15104,320.576821 330.578125,321.027344 C331.00521,321.477867 331.606767,321.703125 332.382812,321.703125 C332.893232,321.703125 333.368487,321.654948 333.808594,321.558594 C334.2487,321.462239 334.721352,321.302084 335.226562,321.078125 L335.226562,322.570312 C334.778644,322.783855 334.325523,322.934895 333.867188,323.023438 C333.408852,323.11198 332.88542,323.15625 332.296875,323.15625 Z M331.960938,315.59375 C331.377601,315.59375 330.910158,315.778644 330.558594,316.148438 C330.207029,316.518231 329.997396,317.057288 329.929688,317.765625 L333.851562,317.765625 C333.841146,317.05208 333.669273,316.511721 333.335938,316.144531 C333.002602,315.777342 332.544274,315.59375 331.960938,315.59375 Z M97.9140625,345 L96.0703125,345 L96.0703125,339.6875 C96.0703125,339.02083 95.9361993,338.523439 95.6679688,338.195312 C95.3997382,337.867186 94.9739613,337.703125 94.390625,337.703125 C93.6197878,337.703125 93.0533872,337.933591 92.6914062,338.394531 C92.3294253,338.855471 92.1484375,339.627599 92.1484375,340.710938 L92.1484375,345 L90.3125,345 L90.3125,332.84375 L92.1484375,332.84375 L92.1484375,335.929688 C92.1484375,336.424482 92.1171878,336.953122 92.0546875,337.515625 L92.171875,337.515625 C92.4218763,337.098956 92.769529,336.776043 93.2148438,336.546875 C93.6601585,336.317707 94.1796845,336.203125 94.7734375,336.203125 C96.867198,336.203125 97.9140625,337.257802 97.9140625,339.367188 L97.9140625,345 Z M105.875,345 L105.507812,343.796875 L105.445312,343.796875 C105.028644,344.322919 104.609377,344.680989 104.1875,344.871094 C103.765623,345.061199 103.223962,345.15625 102.5625,345.15625 C101.713537,345.15625 101.050784,344.927086 100.574219,344.46875 C100.097654,344.010414 99.859375,343.361983 99.859375,342.523438 C99.859375,341.632808 100.190101,340.96094 100.851562,340.507812 C101.513024,340.054685 102.520827,339.807292 103.875,339.765625 L105.367188,339.71875 L105.367188,339.257812 C105.367188,338.705726 105.238283,338.29297 104.980469,338.019531 C104.722655,337.746092 104.322919,337.609375 103.78125,337.609375 C103.338539,337.609375 102.914065,337.674479 102.507812,337.804688 C102.10156,337.934896 101.710939,338.088541 101.335938,338.265625 L100.742188,336.953125 C101.21094,336.708332 101.723956,336.522136 102.28125,336.394531 C102.838544,336.266926 103.364581,336.203125 103.859375,336.203125 C104.958339,336.203125 105.787758,336.442706 106.347656,336.921875 C106.907555,337.401044 107.1875,338.153641 107.1875,339.179688 L107.1875,345 L105.875,345 Z M103.140625,343.75 C103.807295,343.75 104.342446,343.563804 104.746094,343.191406 C105.149742,342.819009 105.351562,342.296878 105.351562,341.625 L105.351562,340.875 L104.242188,340.921875 C103.3776,340.953125 102.7487,341.097655 102.355469,341.355469 C101.962238,341.613283 101.765625,342.00781 101.765625,342.539062 C101.765625,342.924481 101.880207,343.222655 102.109375,343.433594 C102.338543,343.644532 102.682289,343.75 103.140625,343.75 Z M115.554688,342.539062 C115.554688,343.382817 115.247399,344.029946 114.632812,344.480469 C114.018226,344.930992 113.138027,345.15625 111.992188,345.15625 C110.84114,345.15625 109.91667,344.981773 109.21875,344.632812 L109.21875,343.046875 C110.23438,343.515627 111.179683,343.75 112.054688,343.75 C113.184901,343.75 113.75,343.408858 113.75,342.726562 C113.75,342.507811 113.687501,342.325522 113.5625,342.179688 C113.437499,342.033853 113.231772,341.882813 112.945312,341.726562 C112.658853,341.570312 112.260419,341.39323 111.75,341.195312 C110.755203,340.809894 110.082033,340.424481 109.730469,340.039062 C109.378904,339.653644 109.203125,339.153649 109.203125,338.539062 C109.203125,337.799475 109.501299,337.225262 110.097656,336.816406 C110.694013,336.40755 111.505203,336.203125 112.53125,336.203125 C113.54688,336.203125 114.507808,336.408852 115.414062,336.820312 L114.820312,338.203125 C113.888016,337.817706 113.10417,337.625 112.46875,337.625 C111.499995,337.625 111.015625,337.901039 111.015625,338.453125 C111.015625,338.72396 111.141926,338.953124 111.394531,339.140625 C111.647137,339.328126 112.197912,339.585936 113.046875,339.914062 C113.76042,340.190106 114.278644,340.442707 114.601562,340.671875 C114.924481,340.901043 115.164062,341.165363 115.320312,341.464844 C115.476563,341.764324 115.554688,342.122394 115.554688,342.539062 Z M128.992188,336.359375 L128.992188,337.367188 L127.515625,337.640625 C127.651042,337.822918 127.76302,338.046874 127.851562,338.3125 C127.940105,338.578126 127.984375,338.859374 127.984375,339.15625 C127.984375,340.046879 127.677086,340.747393 127.0625,341.257812 C126.447914,341.768232 125.601568,342.023438 124.523438,342.023438 C124.247394,342.023438 123.997397,342.002604 123.773438,341.960938 C123.377602,342.20573 123.179688,342.492186 123.179688,342.820312 C123.179688,343.01823 123.272134,343.166666 123.457031,343.265625 C123.641928,343.364584 123.981768,343.414062 124.476562,343.414062 L125.984375,343.414062 C126.937505,343.414062 127.661456,343.617185 128.15625,344.023438 C128.651044,344.42969 128.898438,345.015621 128.898438,345.78125 C128.898438,346.760422 128.494796,347.515622 127.6875,348.046875 C126.880204,348.578128 125.713549,348.84375 124.1875,348.84375 C123.010411,348.84375 122.111982,348.635419 121.492188,348.21875 C120.872393,347.802081 120.5625,347.208337 120.5625,346.4375 C120.5625,345.906247 120.730467,345.459637 121.066406,345.097656 C121.402345,344.735675 121.872393,344.484376 122.476562,344.34375 C122.23177,344.239583 122.029949,344.071616 121.871094,343.839844 C121.712239,343.608072 121.632812,343.364585 121.632812,343.109375 C121.632812,342.786457 121.723957,342.513022 121.90625,342.289062 C122.088543,342.065103 122.359373,341.843751 122.71875,341.625 C122.270831,341.432291 121.907553,341.118492 121.628906,340.683594 C121.350259,340.248696 121.210938,339.739586 121.210938,339.15625 C121.210938,338.218745 121.506507,337.49219 122.097656,336.976562 C122.688805,336.460935 123.531245,336.203125 124.625,336.203125 C124.869793,336.203125 125.126301,336.220052 125.394531,336.253906 C125.662762,336.287761 125.864583,336.322916 126,336.359375 L128.992188,336.359375 Z M122.203125,346.34375 C122.203125,346.739585 122.381509,347.04427 122.738281,347.257812 C123.095054,347.471355 123.596351,347.578125 124.242188,347.578125 C125.242192,347.578125 125.986977,347.434897 126.476562,347.148438 C126.966148,346.861978 127.210938,346.481773 127.210938,346.007812 C127.210938,345.632811 127.076824,345.365886 126.808594,345.207031 C126.540363,345.048176 126.04167,344.96875 125.3125,344.96875 L123.921875,344.96875 C123.395831,344.96875 122.977866,345.092447 122.667969,345.339844 C122.358071,345.587241 122.203125,345.921873 122.203125,346.34375 Z M122.992188,339.15625 C122.992188,339.697919 123.131509,340.114582 123.410156,340.40625 C123.688803,340.697918 124.088539,340.84375 124.609375,340.84375 C125.67188,340.84375 126.203125,340.276047 126.203125,339.140625 C126.203125,338.578122 126.071616,338.144533 125.808594,337.839844 C125.545572,337.535155 125.145836,337.382812 124.609375,337.382812 C124.078122,337.382812 123.675783,337.533853 123.402344,337.835938 C123.128905,338.138022 122.992188,338.578122 122.992188,339.15625 Z M138.257812,340.664062 C138.257812,342.075528 137.895837,343.177079 137.171875,343.96875 C136.447913,344.760421 135.440111,345.15625 134.148438,345.15625 C133.341142,345.15625 132.627607,344.97396 132.007812,344.609375 C131.388018,344.24479 130.91146,343.721358 130.578125,343.039062 C130.24479,342.356767 130.078125,341.565109 130.078125,340.664062 C130.078125,339.263014 130.437496,338.169275 131.15625,337.382812 C131.875004,336.59635 132.888014,336.203125 134.195312,336.203125 C135.445319,336.203125 136.434892,336.605465 137.164062,337.410156 C137.893233,338.214848 138.257812,339.299472 138.257812,340.664062 Z M131.96875,340.664062 C131.96875,342.658864 132.705722,343.65625 134.179688,343.65625 C135.638028,343.65625 136.367188,342.658864 136.367188,340.664062 C136.367188,338.690094 135.63282,337.703125 134.164062,337.703125 C133.393225,337.703125 132.834637,337.958331 132.488281,338.46875 C132.141925,338.979169 131.96875,339.710933 131.96875,340.664062 Z M147.96875,345 L146.125,345 L146.125,339.6875 C146.125,339.02083 145.990887,338.523439 145.722656,338.195312 C145.454426,337.867186 145.028649,337.703125 144.445312,337.703125 C143.669267,337.703125 143.101564,337.932289 142.742188,338.390625 C142.382811,338.848961 142.203125,339.617182 142.203125,340.695312 L142.203125,345 L140.367188,345 L140.367188,336.359375 L141.804688,336.359375 L142.0625,337.492188 L142.15625,337.492188 C142.416668,337.080727 142.786456,336.763022 143.265625,336.539062 C143.744794,336.315103 144.276039,336.203125 144.859375,336.203125 C146.932302,336.203125 147.96875,337.257802 147.96875,339.367188 L147.96875,345 Z M154.296875,345.15625 C152.953118,345.15625 151.902348,344.764327 151.144531,343.980469 C150.386715,343.196611 150.007812,342.117194 150.007812,340.742188 C150.007812,339.330722 150.359371,338.221358 151.0625,337.414062 C151.765629,336.606767 152.731765,336.203125 153.960938,336.203125 C155.101568,336.203125 156.002601,336.549476 156.664062,337.242188 C157.325524,337.934899 157.65625,338.888015 157.65625,340.101562 L157.65625,341.09375 L151.898438,341.09375 C151.924479,341.932296 152.15104,342.576821 152.578125,343.027344 C153.00521,343.477867 153.606767,343.703125 154.382812,343.703125 C154.893232,343.703125 155.368487,343.654948 155.808594,343.558594 C156.2487,343.462239 156.721352,343.302084 157.226562,343.078125 L157.226562,344.570312 C156.778644,344.783855 156.325523,344.934895 155.867188,345.023438 C155.408852,345.11198 154.88542,345.15625 154.296875,345.15625 Z M153.960938,337.59375 C153.377601,337.59375 152.910158,337.778644 152.558594,338.148438 C152.207029,338.518231 151.997396,339.057288 151.929688,339.765625 L155.851562,339.765625 C155.841146,339.05208 155.669273,338.511721 155.335938,338.144531 C155.002602,337.777342 154.544274,337.59375 153.960938,337.59375 Z M166.8125,345.15625 C165.73437,345.15625 164.893232,344.765629 164.289062,343.984375 C163.684893,343.203121 163.382812,342.106778 163.382812,340.695312 C163.382812,339.278639 163.688799,338.175785 164.300781,337.386719 C164.912763,336.597652 165.760411,336.203125 166.84375,336.203125 C167.979172,336.203125 168.843747,336.622392 169.4375,337.460938 L169.53125,337.460938 C169.442708,336.841143 169.398438,336.351564 169.398438,335.992188 L169.398438,332.84375 L171.242188,332.84375 L171.242188,345 L169.804688,345 L169.484375,343.867188 L169.398438,343.867188 C168.809893,344.726567 167.947922,345.15625 166.8125,345.15625 Z M167.304688,343.671875 C168.0599,343.671875 168.609373,343.459638 168.953125,343.035156 C169.296877,342.610675 169.473958,341.92188 169.484375,340.96875 L169.484375,340.710938 C169.484375,339.62239 169.307293,338.848961 168.953125,338.390625 C168.598957,337.932289 168.044275,337.703125 167.289062,337.703125 C166.643226,337.703125 166.145835,337.964841 165.796875,338.488281 C165.447915,339.011721 165.273438,339.757808 165.273438,340.726562 C165.273438,341.684901 165.442707,342.415362 165.78125,342.917969 C166.119793,343.420575 166.627601,343.671875 167.304688,343.671875 Z M181.53125,340.664062 C181.53125,342.075528 181.169274,343.177079 180.445312,343.96875 C179.721351,344.760421 178.713548,345.15625 177.421875,345.15625 C176.614579,345.15625 175.901045,344.97396 175.28125,344.609375 C174.661455,344.24479 174.184898,343.721358 173.851562,343.039062 C173.518227,342.356767 173.351562,341.565109 173.351562,340.664062 C173.351562,339.263014 173.710934,338.169275 174.429688,337.382812 C175.148441,336.59635 176.161452,336.203125 177.46875,336.203125 C178.718756,336.203125 179.70833,336.605465 180.4375,337.410156 C181.16667,338.214848 181.53125,339.299472 181.53125,340.664062 Z M175.242188,340.664062 C175.242188,342.658864 175.979159,343.65625 177.453125,343.65625 C178.911466,343.65625 179.640625,342.658864 179.640625,340.664062 C179.640625,338.690094 178.906257,337.703125 177.4375,337.703125 C176.666663,337.703125 176.108075,337.958331 175.761719,338.46875 C175.415363,338.979169 175.242188,339.710933 175.242188,340.664062 Z M190.40625,345 L189.289062,340.96875 C189.153645,340.541665 188.908856,339.549487 188.554688,337.992188 L188.484375,337.992188 C188.18229,339.398445 187.942709,340.39583 187.765625,340.984375 L186.617188,345 L184.585938,345 L182.164062,336.359375 L184.039062,336.359375 L185.140625,340.617188 C185.390626,341.669276 185.567708,342.570309 185.671875,343.320312 L185.71875,343.320312 C185.770834,342.940102 185.85026,342.503909 185.957031,342.011719 C186.063803,341.519529 186.15625,341.151043 186.234375,340.90625 L187.546875,336.359375 L189.5625,336.359375 L190.835938,340.90625 C190.914063,341.16146 191.011718,341.552081 191.128906,342.078125 C191.246094,342.604169 191.315104,343.013019 191.335938,343.304688 L191.398438,343.304688 C191.476563,342.664059 191.658853,341.768235 191.945312,340.617188 L193.0625,336.359375 L194.90625,336.359375 L192.46875,345 L190.40625,345 Z M203.992188,345 L202.148438,345 L202.148438,339.6875 C202.148438,339.02083 202.014324,338.523439 201.746094,338.195312 C201.477863,337.867186 201.052086,337.703125 200.46875,337.703125 C199.692704,337.703125 199.125002,337.932289 198.765625,338.390625 C198.406248,338.848961 198.226562,339.617182 198.226562,340.695312 L198.226562,345 L196.390625,345 L196.390625,336.359375 L197.828125,336.359375 L198.085938,337.492188 L198.179688,337.492188 C198.440105,337.080727 198.809893,336.763022 199.289062,336.539062 C199.768232,336.315103 200.299476,336.203125 200.882812,336.203125 C202.95574,336.203125 203.992188,337.257802 203.992188,339.367188 L203.992188,345 Z M217.835938,345 L210.09375,345 L210.09375,343.609375 L213.039062,340.648438 C213.908859,339.757808 214.485676,339.126304 214.769531,338.753906 C215.053387,338.381509 215.260416,338.031252 215.390625,337.703125 C215.520834,337.374998 215.585938,337.023439 215.585938,336.648438 C215.585938,336.13281 215.430991,335.726564 215.121094,335.429688 C214.811196,335.132811 214.382815,334.984375 213.835938,334.984375 C213.398435,334.984375 212.975262,335.065103 212.566406,335.226562 C212.15755,335.388022 211.684899,335.679685 211.148438,336.101562 L210.15625,334.890625 C210.79167,334.354164 211.408851,333.973959 212.007812,333.75 C212.606774,333.526041 213.244788,333.414062 213.921875,333.414062 C214.98438,333.414062 215.835934,333.691403 216.476563,334.246094 C217.117191,334.800784 217.4375,335.54687 217.4375,336.484375 C217.4375,337.000003 217.345053,337.489581 217.160156,337.953125 C216.975259,338.416669 216.691408,338.894529 216.308594,339.386719 C215.925779,339.878909 215.289067,340.544267 214.398438,341.382812 L212.414062,343.304688 L212.414062,343.382812 L217.835938,343.382812 L217.835938,345 Z M219.5625,344.023438 C219.5625,343.643227 219.661457,343.351564 219.859375,343.148438 C220.057293,342.945311 220.343748,342.84375 220.71875,342.84375 C221.09896,342.84375 221.38802,342.949218 221.585938,343.160156 C221.783855,343.371095 221.882812,343.658852 221.882812,344.023438 C221.882812,344.393231 221.782553,344.686197 221.582031,344.902344 C221.381509,345.118491 221.093752,345.226562 220.71875,345.226562 C220.343748,345.226562 220.057293,345.119793 219.859375,344.90625 C219.661457,344.692707 219.5625,344.398439 219.5625,344.023438 Z M229.015625,345 L227.179688,345 L227.179688,337.625 C227.179688,336.744787 227.200521,336.046878 227.242188,335.53125 C227.122395,335.656251 226.975261,335.79427 226.800781,335.945312 C226.626301,336.096355 226.041672,336.575517 225.046875,337.382812 L224.125,336.21875 L227.484375,333.578125 L229.015625,333.578125 L229.015625,345 Z M243.328125,342.539062 C243.328125,343.382817 243.020836,344.029946 242.40625,344.480469 C241.791664,344.930992 240.911464,345.15625 239.765625,345.15625 C238.614578,345.15625 237.690108,344.981773 236.992188,344.632812 L236.992188,343.046875 C238.007818,343.515627 238.953121,343.75 239.828125,343.75 C240.958339,343.75 241.523438,343.408858 241.523438,342.726562 C241.523438,342.507811 241.460938,342.325522 241.335938,342.179688 C241.210937,342.033853 241.00521,341.882813 240.71875,341.726562 C240.43229,341.570312 240.033857,341.39323 239.523438,341.195312 C238.528641,340.809894 237.855471,340.424481 237.503906,340.039062 C237.152342,339.653644 236.976562,339.153649 236.976562,338.539062 C236.976562,337.799475 237.274737,337.225262 237.871094,336.816406 C238.467451,336.40755 239.278641,336.203125 240.304688,336.203125 C241.320318,336.203125 242.281245,336.408852 243.1875,336.820312 L242.59375,338.203125 C241.661454,337.817706 240.877607,337.625 240.242188,337.625 C239.273433,337.625 238.789062,337.901039 238.789062,338.453125 C238.789062,338.72396 238.915363,338.953124 239.167969,339.140625 C239.420574,339.328126 239.97135,339.585936 240.820312,339.914062 C241.533858,340.190106 242.052082,340.442707 242.375,340.671875 C242.697918,340.901043 242.937499,341.165363 243.09375,341.464844 C243.250001,341.764324 243.328125,342.122394 243.328125,342.539062 Z M248.53125,343.671875 C248.979169,343.671875 249.427081,343.601563 249.875,343.460938 L249.875,344.84375 C249.671874,344.932292 249.410158,345.00651 249.089844,345.066406 C248.76953,345.126302 248.437502,345.15625 248.09375,345.15625 C246.354158,345.15625 245.484375,344.239593 245.484375,342.40625 L245.484375,337.75 L244.304688,337.75 L244.304688,336.9375 L245.570313,336.265625 L246.195313,334.4375 L247.328125,334.4375 L247.328125,336.359375 L249.789063,336.359375 L249.789063,337.75 L247.328125,337.75 L247.328125,342.375 C247.328125,342.817711 247.438801,343.14453 247.660156,343.355469 C247.881512,343.566407 248.171873,343.671875 248.53125,343.671875 Z M257.007812,345 L256.640625,343.796875 L256.578125,343.796875 C256.161456,344.322919 255.74219,344.680989 255.320313,344.871094 C254.898435,345.061199 254.356774,345.15625 253.695313,345.15625 C252.84635,345.15625 252.183596,344.927086 251.707031,344.46875 C251.230466,344.010414 250.992188,343.361983 250.992188,342.523438 C250.992188,341.632808 251.322913,340.96094 251.984375,340.507812 C252.645837,340.054685 253.653639,339.807292 255.007813,339.765625 L256.5,339.71875 L256.5,339.257812 C256.5,338.705726 256.371095,338.29297 256.113281,338.019531 C255.855467,337.746092 255.455732,337.609375 254.914063,337.609375 C254.471352,337.609375 254.046877,337.674479 253.640625,337.804688 C253.234373,337.934896 252.843752,338.088541 252.46875,338.265625 L251.875,336.953125 C252.343752,336.708332 252.856768,336.522136 253.414063,336.394531 C253.971357,336.266926 254.497393,336.203125 254.992188,336.203125 C256.091151,336.203125 256.92057,336.442706 257.480469,336.921875 C258.040367,337.401044 258.320312,338.153641 258.320312,339.179688 L258.320312,345 L257.007812,345 Z M254.273438,343.75 C254.940108,343.75 255.475258,343.563804 255.878906,343.191406 C256.282554,342.819009 256.484375,342.296878 256.484375,341.625 L256.484375,340.875 L255.375,340.921875 C254.510412,340.953125 253.881512,341.097655 253.488281,341.355469 C253.09505,341.613283 252.898438,342.00781 252.898438,342.539062 C252.898438,342.924481 253.01302,343.222655 253.242188,343.433594 C253.471355,343.644532 253.815102,343.75 254.273438,343.75 Z M265.265625,336.203125 C265.635419,336.203125 265.940103,336.229166 266.179688,336.28125 L266,337.992188 C265.739582,337.929687 265.468751,337.898438 265.1875,337.898438 C264.453121,337.898438 263.858075,338.138018 263.402344,338.617188 C262.946612,339.096357 262.71875,339.718746 262.71875,340.484375 L262.71875,345 L260.882812,345 L260.882812,336.359375 L262.320312,336.359375 L262.5625,337.882812 L262.65625,337.882812 C262.94271,337.367185 263.316404,336.958335 263.777344,336.65625 C264.238284,336.354165 264.734372,336.203125 265.265625,336.203125 Z M273.585938,342.539062 C273.585938,343.382817 273.278649,344.029946 272.664062,344.480469 C272.049476,344.930992 271.169277,345.15625 270.023438,345.15625 C268.87239,345.15625 267.94792,344.981773 267.25,344.632812 L267.25,343.046875 C268.26563,343.515627 269.210933,343.75 270.085938,343.75 C271.216151,343.75 271.78125,343.408858 271.78125,342.726562 C271.78125,342.507811 271.718751,342.325522 271.59375,342.179688 C271.468749,342.033853 271.263022,341.882813 270.976562,341.726562 C270.690103,341.570312 270.291669,341.39323 269.78125,341.195312 C268.786453,340.809894 268.113283,340.424481 267.761719,340.039062 C267.410154,339.653644 267.234375,339.153649 267.234375,338.539062 C267.234375,337.799475 267.532549,337.225262 268.128906,336.816406 C268.725263,336.40755 269.536453,336.203125 270.5625,336.203125 C271.57813,336.203125 272.539058,336.408852 273.445312,336.820312 L272.851562,338.203125 C271.919266,337.817706 271.13542,337.625 270.5,337.625 C269.531245,337.625 269.046875,337.901039 269.046875,338.453125 C269.046875,338.72396 269.173176,338.953124 269.425781,339.140625 C269.678387,339.328126 270.229162,339.585936 271.078125,339.914062 C271.79167,340.190106 272.309894,340.442707 272.632812,340.671875 C272.955731,340.901043 273.195312,341.165363 273.351562,341.464844 C273.507813,341.764324 273.585938,342.122394 273.585938,342.539062 Z M275.296875,344.023438 C275.296875,343.643227 275.395832,343.351564 275.59375,343.148438 C275.791668,342.945311 276.078123,342.84375 276.453125,342.84375 C276.833335,342.84375 277.122395,342.949218 277.320312,343.160156 C277.51823,343.371095 277.617188,343.658852 277.617188,344.023438 C277.617188,344.393231 277.516928,344.686197 277.316406,344.902344 C277.115884,345.118491 276.828127,345.226562 276.453125,345.226562 C276.078123,345.226562 275.791668,345.119793 275.59375,344.90625 C275.395832,344.692707 275.296875,344.398439 275.296875,344.023438 Z" id="James-Delgado's-Clar" fill="#656262"></path>
                <path d="M94.2783203,298.430664 C94.2783203,299.670905 94.0789408,300.592119 93.6801758,301.194336 C93.2814108,301.796552 92.6718791,302.097656 91.8515625,302.097656 C91.0572877,302.097656 90.4550802,301.786787 90.0449219,301.165039 C89.6347636,300.543291 89.4296875,299.631842 89.4296875,298.430664 C89.4296875,297.170892 89.629067,296.242353 90.027832,295.64502 C90.426597,295.047686 91.0345011,294.749023 91.8515625,294.749023 C92.6490925,294.749023 93.2529276,295.06152 93.6630859,295.686523 C94.0732442,296.311527 94.2783203,297.226231 94.2783203,298.430664 Z M90.5917969,298.430664 C90.5917969,299.403976 90.6918935,300.098956 90.8920898,300.515625 C91.0922862,300.932294 91.4121072,301.140625 91.8515625,301.140625 C92.2910178,301.140625 92.6124664,300.929039 92.815918,300.505859 C93.0193695,300.08268 93.1210938,299.390955 93.1210938,298.430664 C93.1210938,297.473628 93.0193695,296.781089 92.815918,296.353027 C92.6124664,295.924965 92.2910178,295.710938 91.8515625,295.710938 C91.4121072,295.710938 91.0922862,295.920896 90.8920898,296.34082 C90.6918935,296.760744 90.5917969,297.457352 90.5917969,298.430664 Z M100.240234,300.442383 L99.2783203,300.442383 L99.2783203,302 L98.1601562,302 L98.1601562,300.442383 L94.8984375,300.442383 L94.8984375,299.558594 L98.1601562,294.841797 L99.2783203,294.841797 L99.2783203,299.490234 L100.240234,299.490234 L100.240234,300.442383 Z M98.1601562,299.490234 L98.1601562,297.698242 C98.1601562,297.060218 98.1764321,296.537762 98.2089844,296.130859 L98.1699219,296.130859 C98.0787756,296.345704 97.9355479,296.606118 97.7402344,296.912109 L95.9677734,299.490234 L98.1601562,299.490234 Z M104.234375,294.861328 L101.578125,302 L100.494141,302 L103.155273,294.861328 L104.234375,294.861328 Z M109.595703,298.430664 C109.595703,299.670905 109.396324,300.592119 108.997559,301.194336 C108.598794,301.796552 107.989262,302.097656 107.168945,302.097656 C106.374671,302.097656 105.772463,301.786787 105.362305,301.165039 C104.952146,300.543291 104.74707,299.631842 104.74707,298.430664 C104.74707,297.170892 104.94645,296.242353 105.345215,295.64502 C105.74398,295.047686 106.351884,294.749023 107.168945,294.749023 C107.966475,294.749023 108.57031,295.06152 108.980469,295.686523 C109.390627,296.311527 109.595703,297.226231 109.595703,298.430664 Z M105.90918,298.430664 C105.90918,299.403976 106.009276,300.098956 106.209473,300.515625 C106.409669,300.932294 106.72949,301.140625 107.168945,301.140625 C107.608401,301.140625 107.929849,300.929039 108.133301,300.505859 C108.336752,300.08268 108.438477,299.390955 108.438477,298.430664 C108.438477,297.473628 108.336752,296.781089 108.133301,296.353027 C107.929849,295.924965 107.608401,295.710938 107.168945,295.710938 C106.72949,295.710938 106.409669,295.920896 106.209473,296.34082 C106.009276,296.760744 105.90918,297.457352 105.90918,298.430664 Z M113.833984,302 L112.686523,302 L112.686523,297.390625 C112.686523,296.840492 112.699544,296.404298 112.725586,296.082031 C112.650716,296.160157 112.558757,296.246419 112.449707,296.34082 C112.340657,296.435222 111.975264,296.734698 111.353516,297.239258 L110.777344,296.511719 L112.876953,294.861328 L113.833984,294.861328 L113.833984,302 Z M119.551758,294.861328 L116.895508,302 L115.811523,302 L118.472656,294.861328 L119.551758,294.861328 Z M124.913086,302 L120.074219,302 L120.074219,301.130859 L121.915039,299.280273 C122.458662,298.72363 122.819172,298.32894 122.996582,298.096191 C123.173992,297.863443 123.303385,297.644532 123.384766,297.439453 C123.466146,297.234374 123.506836,297.01465 123.506836,296.780273 C123.506836,296.458006 123.409994,296.204102 123.216309,296.018555 C123.022623,295.833007 122.754885,295.740234 122.413086,295.740234 C122.139647,295.740234 121.875164,295.79069 121.619629,295.891602 C121.364094,295.992514 121.068687,296.174803 120.733398,296.438477 L120.113281,295.681641 C120.510419,295.346352 120.896157,295.108725 121.270508,294.96875 C121.644859,294.828775 122.043618,294.758789 122.466797,294.758789 C123.130863,294.758789 123.663084,294.932127 124.063477,295.278809 C124.463869,295.62549 124.664062,296.091794 124.664062,296.677734 C124.664062,297.000002 124.606283,297.305988 124.490723,297.595703 C124.375162,297.885418 124.197755,298.18408 123.958496,298.491699 C123.719237,298.799318 123.321292,299.215167 122.764648,299.739258 L121.524414,300.94043 L121.524414,300.989258 L124.913086,300.989258 L124.913086,302 Z M130.621094,298.430664 C130.621094,299.670905 130.421714,300.592119 130.022949,301.194336 C129.624184,301.796552 129.014653,302.097656 128.194336,302.097656 C127.400061,302.097656 126.797854,301.786787 126.387695,301.165039 C125.977537,300.543291 125.772461,299.631842 125.772461,298.430664 C125.772461,297.170892 125.97184,296.242353 126.370605,295.64502 C126.76937,295.047686 127.377275,294.749023 128.194336,294.749023 C128.991866,294.749023 129.595701,295.06152 130.005859,295.686523 C130.416018,296.311527 130.621094,297.226231 130.621094,298.430664 Z M126.93457,298.430664 C126.93457,299.403976 127.034667,300.098956 127.234863,300.515625 C127.43506,300.932294 127.754881,301.140625 128.194336,301.140625 C128.633791,301.140625 128.95524,300.929039 129.158691,300.505859 C129.362143,300.08268 129.463867,299.390955 129.463867,298.430664 C129.463867,297.473628 129.362143,296.781089 129.158691,296.353027 C128.95524,295.924965 128.633791,295.710938 128.194336,295.710938 C127.754881,295.710938 127.43506,295.920896 127.234863,296.34082 C127.034667,296.760744 126.93457,297.457352 126.93457,298.430664 Z M134.859375,302 L133.711914,302 L133.711914,297.390625 C133.711914,296.840492 133.724935,296.404298 133.750977,296.082031 C133.676106,296.160157 133.584148,296.246419 133.475098,296.34082 C133.366048,296.435222 133.000654,296.734698 132.378906,297.239258 L131.802734,296.511719 L133.902344,294.861328 L134.859375,294.861328 L134.859375,302 Z M138.008789,302 L140.831055,295.881836 L137.120117,295.881836 L137.120117,294.871094 L142.056641,294.871094 L142.056641,295.671875 L139.249023,302 L138.008789,302 Z" id="04/01/2017" fill="#C4C4C4"></path>
            </g>
        </g>
    </g>
</svg>