<?xml version="1.0" encoding="UTF-8"?>
<svg width="456px" height="407px" viewBox="0 0 456 407" version="1.1" xmlns="http://www.w3.org/2000/svg" xmlns:xlink="http://www.w3.org/1999/xlink">
    <!-- Generator: Sketch 43.1 (39012) - http://www.bohemiancoding.com/sketch -->
    <title>Group 13</title>
    <desc>Created with Sketch.</desc>
    <defs>
        <path d="M0,259.741613 C0,258.086969 1.34268413,256.745615 3.00760946,256.745615 L35.6361961,256.745615 L47.6472661,247 L59.1460943,256.745615 L387.000355,256.745615 C388.657013,256.745615 390,258.08354 390,259.741613 L390,386.749617 C390,388.404261 388.664292,389.745615 387.001845,389.745615 L2.99815456,389.745615 C1.34231952,389.745615 0,388.40769 0,386.749617 L0,259.741613 Z" id="path-1"></path>
        <filter x="-6.5%" y="-17.9%" width="113.1%" height="135.7%" filterUnits="objectBoundingBox" id="filter-2">
            <feOffset dx="0" dy="0" in="SourceAlpha" result="shadowOffsetOuter1"></feOffset>
            <feGaussianBlur stdDeviation="8.5" in="shadowOffsetOuter1" result="shadowBlurOuter1"></feGaussianBlur>
            <feComposite in="shadowBlurOuter1" in2="SourceAlpha" operator="out" result="shadowBlurOuter1"></feComposite>
            <feColorMatrix values="0 0 0 0 0.71372549   0 0 0 0 0.71372549   0 0 0 0 0.71372549  0 0 0 0.5 0" type="matrix" in="shadowBlurOuter1"></feColorMatrix>
        </filter>
        <circle id="path-3" cx="75" cy="217" r="10"></circle>
        <filter x="-37.5%" y="-37.5%" width="175.0%" height="175.0%" filterUnits="objectBoundingBox" id="filter-4">
            <feMorphology radius="1.5" operator="dilate" in="SourceAlpha" result="shadowSpreadOuter1"></feMorphology>
            <feOffset dx="0" dy="0" in="shadowSpreadOuter1" result="shadowOffsetOuter1"></feOffset>
            <feGaussianBlur stdDeviation="2" in="shadowOffsetOuter1" result="shadowBlurOuter1"></feGaussianBlur>
            <feComposite in="shadowBlurOuter1" in2="SourceAlpha" operator="out" result="shadowBlurOuter1"></feComposite>
            <feColorMatrix values="0 0 0 0 0   0 0 0 0 0   0 0 0 0 0  0 0 0 0.5 0" type="matrix" in="shadowBlurOuter1"></feColorMatrix>
        </filter>
    </defs>
    <g id="Marketing" stroke="none" stroke-width="1" fill="none" fill-rule="evenodd">
        <g id="Artboard-2" transform="translate(-157.000000, -807.000000)">
            <g id="Group-13" transform="translate(174.000000, 807.000000)">
                <g id="Group-14">
                    <g id="Group-11">
                        <g id="Group-6" opacity="0.235224185" transform="translate(28.000000, 0.000000)" fill="#D40202">
                            <polygon id="Triangle-Copy-4" transform="translate(363.697298, 269.156369) rotate(-210.000000) translate(-363.697298, -269.156369) " points="363.697298 194.244443 461.392312 344.068296 266.002284 344.068296"></polygon>
                            <polygon id="Path-4-Copy-2" fill-rule="nonzero" points="317.373302 222.993828 343.539466 204.120535 243.462897 64.9899114 126.49851 136.987696 36.818302 0.639468681 0.259490484 0.639468681 116.508419 181.042008 234.8151 108.21797"></polygon>
                        </g>
                        <g id="alarm" transform="translate(17.000000, 156.000000)" fill-rule="nonzero" fill="#FFFFFF">
                            <path d="M62.16,57.4820745 C57.3552,53.9804007 54.6,48.6280169 54.6,42.8027645 L54.6,30.5734032 C54.6,20.3292749 47.4852,11.6668107 37.8,9.0008099 L37.8,6.11468064 C37.8,2.74345338 34.9734,0 31.5,0 C28.0266,0 25.2,2.74345338 25.2,6.11468064 L25.2,9.0008099 C15.5148,11.6708871 8.4,20.3292749 8.4,30.5734032 L8.4,42.8027645 C8.4,48.6280169 5.6448,53.9763242 0.84,57.4820745 C0.1176,58.007937 -0.1764,58.9251391 0.1092,59.7567357 C0.3948,60.5883322 1.197,61.1508829 2.1,61.1508829 L21.21,61.1508829 C21.0714,61.8194213 20.9958,62.5001891 20.9958,63.1891097 C20.9958,68.806463 25.7082,73.3802441 31.4958,73.3802441 C37.2834,73.3802441 41.9958,68.806463 41.9958,63.1891097 C41.9958,62.5042655 41.9244,61.8194213 41.7858,61.1508829 L60.8958,61.1508829 C61.7988,61.1508829 62.601,60.5883322 62.8866,59.7567357 C63.1722,58.9251391 62.8782,58.007937 62.1558,57.4820745 L62.16,57.4820745 Z M29.4,6.11468064 C29.4,4.9895794 30.3408,4.07645376 31.5,4.07645376 C32.6592,4.07645376 33.6,4.9895794 33.6,6.11468064 L33.6,8.24666596 C32.907,8.18551915 32.2098,8.15290752 31.5,8.15290752 C30.7902,8.15290752 30.093,8.18551915 29.4,8.24666596 L29.4,6.11468064 Z M37.8,63.1850333 C37.8,66.5562606 34.9734,69.2997139 31.5,69.2997139 C28.0266,69.2997139 25.2,66.5562606 25.2,63.1850333 C25.2,62.4879597 25.326,61.799039 25.5612,61.1468064 L37.4388,61.1468064 C37.674,61.799039 37.8,62.4879597 37.8,63.1850333 Z M7.3164,57.0703526 C8.3874,55.8107284 9.3198,54.4369635 10.0842,52.9898224 C11.7558,49.8183414 12.6,46.3900438 12.6,42.8027645 L12.6,30.5734032 C12.6,20.4597214 21.0798,12.2293613 31.5,12.2293613 C41.9202,12.2293613 50.4,20.4597214 50.4,30.5734032 L50.4,42.8027645 C50.4,46.3900438 51.2484,49.8183414 52.9158,52.9898224 C53.6802,54.44104 54.6126,55.8107284 55.6836,57.0703526 L7.3122,57.0703526 L7.3164,57.0703526 Z" id="Shape"></path>
                        </g>
                        <g id="Rectangle-Copy-9">
                            <use fill="black" fill-opacity="1" filter="url(#filter-2)" xlink:href="#path-1"></use>
                            <use fill="#FFFFFF" fill-rule="evenodd" xlink:href="#path-1"></use>
                            <path stroke="#E6E6E6" stroke-width="1" d="M47.6403114,247.649527 L58.8228171,257.127049 L58.9627129,257.245615 L59.1460943,257.245615 L387.000355,257.245615 C388.382282,257.245615 389.5,258.361092 389.5,259.741613 L389.5,386.749617 C389.5,388.130494 388.385776,389.245615 387.001845,389.245615 L2.99815456,389.245615 C1.61710688,389.245615 0.5,388.130195 0.5,386.749617 L0.5,259.741613 C0.5,258.362114 1.61982965,257.245615 3.00760946,257.245615 L35.6361961,257.245615 L35.8135275,257.245615 L35.9512319,257.133884 L47.6403114,247.649527 Z"></path>
                        </g>
                        <g id="Oval-3">
                            <use fill="black" fill-opacity="1" filter="url(#filter-4)" xlink:href="#path-3"></use>
                            <use stroke="#FFFFFF" stroke-width="3" fill="#FF7C87" fill-rule="evenodd" xlink:href="#path-3"></use>
                        </g>
                        <ellipse id="Oval-4" fill="#FF7C87" cx="45" cy="326" rx="26" ry="26"></ellipse>
                        <polygon id="Triangle-Copy-3" fill="#FFFFFF" transform="translate(54.488704, 334.970815) rotate(-210.000000) translate(-54.488704, -334.970815) " points="54.4887035 330.385713 60.4887035 339.555917 48.4887035 339.555917"></polygon>
                        <polyline id="Path-4-Copy" stroke="#FFFFFF" stroke-width="2" points="33 318 39.6142188 328.22943 46.8388782 323.797407 52.4471922 331.567779"></polyline>
                    </g>
                    <path d="M94.2783203,298.430664 C94.2783203,299.670905 94.0789408,300.592119 93.6801758,301.194336 C93.2814108,301.796552 92.6718791,302.097656 91.8515625,302.097656 C91.0572877,302.097656 90.4550802,301.786787 90.0449219,301.165039 C89.6347636,300.543291 89.4296875,299.631842 89.4296875,298.430664 C89.4296875,297.170892 89.629067,296.242353 90.027832,295.64502 C90.426597,295.047686 91.0345011,294.749023 91.8515625,294.749023 C92.6490925,294.749023 93.2529276,295.06152 93.6630859,295.686523 C94.0732442,296.311527 94.2783203,297.226231 94.2783203,298.430664 Z M90.5917969,298.430664 C90.5917969,299.403976 90.6918935,300.098956 90.8920898,300.515625 C91.0922862,300.932294 91.4121072,301.140625 91.8515625,301.140625 C92.2910178,301.140625 92.6124664,300.929039 92.815918,300.505859 C93.0193695,300.08268 93.1210938,299.390955 93.1210938,298.430664 C93.1210938,297.473628 93.0193695,296.781089 92.815918,296.353027 C92.6124664,295.924965 92.2910178,295.710938 91.8515625,295.710938 C91.4121072,295.710938 91.0922862,295.920896 90.8920898,296.34082 C90.6918935,296.760744 90.5917969,297.457352 90.5917969,298.430664 Z M100.240234,300.442383 L99.2783203,300.442383 L99.2783203,302 L98.1601562,302 L98.1601562,300.442383 L94.8984375,300.442383 L94.8984375,299.558594 L98.1601562,294.841797 L99.2783203,294.841797 L99.2783203,299.490234 L100.240234,299.490234 L100.240234,300.442383 Z M98.1601562,299.490234 L98.1601562,297.698242 C98.1601562,297.060218 98.1764321,296.537762 98.2089844,296.130859 L98.1699219,296.130859 C98.0787756,296.345704 97.9355479,296.606118 97.7402344,296.912109 L95.9677734,299.490234 L98.1601562,299.490234 Z M104.234375,294.861328 L101.578125,302 L100.494141,302 L103.155273,294.861328 L104.234375,294.861328 Z M109.595703,298.430664 C109.595703,299.670905 109.396324,300.592119 108.997559,301.194336 C108.598794,301.796552 107.989262,302.097656 107.168945,302.097656 C106.374671,302.097656 105.772463,301.786787 105.362305,301.165039 C104.952146,300.543291 104.74707,299.631842 104.74707,298.430664 C104.74707,297.170892 104.94645,296.242353 105.345215,295.64502 C105.74398,295.047686 106.351884,294.749023 107.168945,294.749023 C107.966475,294.749023 108.57031,295.06152 108.980469,295.686523 C109.390627,296.311527 109.595703,297.226231 109.595703,298.430664 Z M105.90918,298.430664 C105.90918,299.403976 106.009276,300.098956 106.209473,300.515625 C106.409669,300.932294 106.72949,301.140625 107.168945,301.140625 C107.608401,301.140625 107.929849,300.929039 108.133301,300.505859 C108.336752,300.08268 108.438477,299.390955 108.438477,298.430664 C108.438477,297.473628 108.336752,296.781089 108.133301,296.353027 C107.929849,295.924965 107.608401,295.710938 107.168945,295.710938 C106.72949,295.710938 106.409669,295.920896 106.209473,296.34082 C106.009276,296.760744 105.90918,297.457352 105.90918,298.430664 Z M113.833984,302 L112.686523,302 L112.686523,297.390625 C112.686523,296.840492 112.699544,296.404298 112.725586,296.082031 C112.650716,296.160157 112.558757,296.246419 112.449707,296.34082 C112.340657,296.435222 111.975264,296.734698 111.353516,297.239258 L110.777344,296.511719 L112.876953,294.861328 L113.833984,294.861328 L113.833984,302 Z M119.551758,294.861328 L116.895508,302 L115.811523,302 L118.472656,294.861328 L119.551758,294.861328 Z M124.913086,302 L120.074219,302 L120.074219,301.130859 L121.915039,299.280273 C122.458662,298.72363 122.819172,298.32894 122.996582,298.096191 C123.173992,297.863443 123.303385,297.644532 123.384766,297.439453 C123.466146,297.234374 123.506836,297.01465 123.506836,296.780273 C123.506836,296.458006 123.409994,296.204102 123.216309,296.018555 C123.022623,295.833007 122.754885,295.740234 122.413086,295.740234 C122.139647,295.740234 121.875164,295.79069 121.619629,295.891602 C121.364094,295.992514 121.068687,296.174803 120.733398,296.438477 L120.113281,295.681641 C120.510419,295.346352 120.896157,295.108725 121.270508,294.96875 C121.644859,294.828775 122.043618,294.758789 122.466797,294.758789 C123.130863,294.758789 123.663084,294.932127 124.063477,295.278809 C124.463869,295.62549 124.664062,296.091794 124.664062,296.677734 C124.664062,297.000002 124.606283,297.305988 124.490723,297.595703 C124.375162,297.885418 124.197755,298.18408 123.958496,298.491699 C123.719237,298.799318 123.321292,299.215167 122.764648,299.739258 L121.524414,300.94043 L121.524414,300.989258 L124.913086,300.989258 L124.913086,302 Z M130.621094,298.430664 C130.621094,299.670905 130.421714,300.592119 130.022949,301.194336 C129.624184,301.796552 129.014653,302.097656 128.194336,302.097656 C127.400061,302.097656 126.797854,301.786787 126.387695,301.165039 C125.977537,300.543291 125.772461,299.631842 125.772461,298.430664 C125.772461,297.170892 125.97184,296.242353 126.370605,295.64502 C126.76937,295.047686 127.377275,294.749023 128.194336,294.749023 C128.991866,294.749023 129.595701,295.06152 130.005859,295.686523 C130.416018,296.311527 130.621094,297.226231 130.621094,298.430664 Z M126.93457,298.430664 C126.93457,299.403976 127.034667,300.098956 127.234863,300.515625 C127.43506,300.932294 127.754881,301.140625 128.194336,301.140625 C128.633791,301.140625 128.95524,300.929039 129.158691,300.505859 C129.362143,300.08268 129.463867,299.390955 129.463867,298.430664 C129.463867,297.473628 129.362143,296.781089 129.158691,296.353027 C128.95524,295.924965 128.633791,295.710938 128.194336,295.710938 C127.754881,295.710938 127.43506,295.920896 127.234863,296.34082 C127.034667,296.760744 126.93457,297.457352 126.93457,298.430664 Z M134.859375,302 L133.711914,302 L133.711914,297.390625 C133.711914,296.840492 133.724935,296.404298 133.750977,296.082031 C133.676106,296.160157 133.584148,296.246419 133.475098,296.34082 C133.366048,296.435222 133.000654,296.734698 132.378906,297.239258 L131.802734,296.511719 L133.902344,294.861328 L134.859375,294.861328 L134.859375,302 Z M138.008789,302 L140.831055,295.881836 L137.120117,295.881836 L137.120117,294.871094 L142.056641,294.871094 L142.056641,295.671875 L139.249023,302 L138.008789,302 Z" id="04/01/2017" fill="#C4C4C4"></path>
                    <path d="M90.0625,328.1875 C89.5520808,328.1875 89.1250017,328.122396 88.78125,327.992188 L88.78125,326.421875 C89.2187522,326.531251 89.5989567,326.585938 89.921875,326.585938 C90.9427134,326.585938 91.453125,325.940111 91.453125,324.648438 L91.453125,313.578125 L93.328125,313.578125 L93.328125,324.585938 C93.328125,325.75261 93.050784,326.644528 92.4960938,327.261719 C91.9414035,327.878909 91.1302137,328.1875 90.0625,328.1875 Z M101.5,325 L101.132812,323.796875 L101.070312,323.796875 C100.653644,324.322919 100.234377,324.680989 99.8125,324.871094 C99.3906229,325.061199 98.8489616,325.15625 98.1875,325.15625 C97.3385374,325.15625 96.6757836,324.927086 96.1992188,324.46875 C95.7226539,324.010414 95.484375,323.361983 95.484375,322.523438 C95.484375,321.632808 95.8151009,320.96094 96.4765625,320.507812 C97.1380241,320.054685 98.1458266,319.807292 99.5,319.765625 L100.992188,319.71875 L100.992188,319.257812 C100.992188,318.705726 100.863283,318.29297 100.605469,318.019531 C100.347655,317.746092 99.9479194,317.609375 99.40625,317.609375 C98.9635395,317.609375 98.5390645,317.674479 98.1328125,317.804688 C97.7265605,317.934896 97.3359394,318.088541 96.9609375,318.265625 L96.3671875,316.953125 C96.8359398,316.708332 97.3489555,316.522136 97.90625,316.394531 C98.4635445,316.266926 98.9895809,316.203125 99.484375,316.203125 C100.583339,316.203125 101.412758,316.442706 101.972656,316.921875 C102.532555,317.401044 102.8125,318.153641 102.8125,319.179688 L102.8125,325 L101.5,325 Z M98.765625,323.75 C99.432295,323.75 99.9674459,323.563804 100.371094,323.191406 C100.774742,322.819009 100.976562,322.296878 100.976562,321.625 L100.976562,320.875 L99.8671875,320.921875 C99.0025998,320.953125 98.3736999,321.097655 97.9804688,321.355469 C97.5872376,321.613283 97.390625,322.00781 97.390625,322.539062 C97.390625,322.924481 97.5052072,323.222655 97.734375,323.433594 C97.9635428,323.644532 98.3072894,323.75 98.765625,323.75 Z M112.65625,325 L110.8125,325 L110.8125,319.671875 C110.8125,319.010413 110.687501,318.516929 110.4375,318.191406 C110.187499,317.865884 109.796878,317.703125 109.265625,317.703125 C108.557288,317.703125 108.037762,317.933591 107.707031,318.394531 C107.3763,318.855471 107.210938,319.62239 107.210938,320.695312 L107.210938,325 L105.375,325 L105.375,316.359375 L106.8125,316.359375 L107.070312,317.492188 L107.164062,317.492188 C107.403647,317.080727 107.7513,316.763022 108.207031,316.539062 C108.662763,316.315103 109.16406,316.203125 109.710938,316.203125 C111.039069,316.203125 111.919269,316.656245 112.351562,317.5625 L112.476562,317.5625 C112.731772,317.135415 113.091144,316.802085 113.554688,316.5625 C114.018231,316.322915 114.549476,316.203125 115.148438,316.203125 C116.179693,316.203125 116.930987,316.463539 117.402344,316.984375 C117.8737,317.505211 118.109375,318.299474 118.109375,319.367188 L118.109375,325 L116.273438,325 L116.273438,319.671875 C116.273438,319.010413 116.147137,318.516929 115.894531,318.191406 C115.641926,317.865884 115.250003,317.703125 114.71875,317.703125 C114.005205,317.703125 113.483075,317.925779 113.152344,318.371094 C112.821613,318.816408 112.65625,319.499995 112.65625,320.421875 L112.65625,325 Z M124.445312,325.15625 C123.101556,325.15625 122.050785,324.764327 121.292969,323.980469 C120.535152,323.196611 120.15625,322.117194 120.15625,320.742188 C120.15625,319.330722 120.507809,318.221358 121.210938,317.414062 C121.914066,316.606767 122.880202,316.203125 124.109375,316.203125 C125.250006,316.203125 126.151038,316.549476 126.8125,317.242188 C127.473962,317.934899 127.804688,318.888015 127.804688,320.101562 L127.804688,321.09375 L122.046875,321.09375 C122.072917,321.932296 122.299477,322.576821 122.726562,323.027344 C123.153648,323.477867 123.755204,323.703125 124.53125,323.703125 C125.041669,323.703125 125.516925,323.654948 125.957031,323.558594 C126.397138,323.462239 126.869789,323.302084 127.375,323.078125 L127.375,324.570312 C126.927081,324.783855 126.473961,324.934895 126.015625,325.023438 C125.557289,325.11198 125.033857,325.15625 124.445312,325.15625 Z M124.109375,317.59375 C123.526039,317.59375 123.058596,317.778644 122.707031,318.148438 C122.355467,318.518231 122.145834,319.057288 122.078125,319.765625 L126,319.765625 C125.989583,319.05208 125.81771,318.511721 125.484375,318.144531 C125.15104,317.777342 124.692711,317.59375 124.109375,317.59375 Z M135.695312,322.539062 C135.695312,323.382817 135.388024,324.029946 134.773438,324.480469 C134.158851,324.930992 133.278652,325.15625 132.132812,325.15625 C130.981765,325.15625 130.057295,324.981773 129.359375,324.632812 L129.359375,323.046875 C130.375005,323.515627 131.320308,323.75 132.195312,323.75 C133.325526,323.75 133.890625,323.408858 133.890625,322.726562 C133.890625,322.507811 133.828126,322.325522 133.703125,322.179688 C133.578124,322.033853 133.372397,321.882813 133.085938,321.726562 C132.799478,321.570312 132.401044,321.39323 131.890625,321.195312 C130.895828,320.809894 130.222658,320.424481 129.871094,320.039062 C129.519529,319.653644 129.34375,319.153649 129.34375,318.539062 C129.34375,317.799475 129.641924,317.225262 130.238281,316.816406 C130.834638,316.40755 131.645828,316.203125 132.671875,316.203125 C133.687505,316.203125 134.648433,316.408852 135.554688,316.820312 L134.960938,318.203125 C134.028641,317.817706 133.244795,317.625 132.609375,317.625 C131.64062,317.625 131.15625,317.901039 131.15625,318.453125 C131.15625,318.72396 131.282551,318.953124 131.535156,319.140625 C131.787762,319.328126 132.338537,319.585936 133.1875,319.914062 C133.901045,320.190106 134.419269,320.442707 134.742188,320.671875 C135.065106,320.901043 135.304687,321.165363 135.460938,321.464844 C135.617188,321.764324 135.695312,322.122394 135.695312,322.539062 Z M151.320312,319.179688 C151.320312,321.065114 150.79688,322.506505 149.75,323.503906 C148.70312,324.501307 147.195322,325 145.226562,325 L142.03125,325 L142.03125,313.578125 L145.5625,313.578125 C147.380217,313.578125 148.794266,314.067703 149.804688,315.046875 C150.815109,316.026047 151.320312,317.403637 151.320312,319.179688 Z M149.351562,319.242188 C149.351562,316.507799 148.072929,315.140625 145.515625,315.140625 L143.898438,315.140625 L143.898438,323.429688 L145.226562,323.429688 C147.976576,323.429688 149.351562,322.033868 149.351562,319.242188 Z M157.351562,325.15625 C156.007806,325.15625 154.957035,324.764327 154.199219,323.980469 C153.441402,323.196611 153.0625,322.117194 153.0625,320.742188 C153.0625,319.330722 153.414059,318.221358 154.117188,317.414062 C154.820316,316.606767 155.786452,316.203125 157.015625,316.203125 C158.156256,316.203125 159.057288,316.549476 159.71875,317.242188 C160.380212,317.934899 160.710938,318.888015 160.710938,320.101562 L160.710938,321.09375 L154.953125,321.09375 C154.979167,321.932296 155.205727,322.576821 155.632812,323.027344 C156.059898,323.477867 156.661454,323.703125 157.4375,323.703125 C157.947919,323.703125 158.423175,323.654948 158.863281,323.558594 C159.303388,323.462239 159.776039,323.302084 160.28125,323.078125 L160.28125,324.570312 C159.833331,324.783855 159.380211,324.934895 158.921875,325.023438 C158.463539,325.11198 157.940107,325.15625 157.351562,325.15625 Z M157.015625,317.59375 C156.432289,317.59375 155.964846,317.778644 155.613281,318.148438 C155.261717,318.518231 155.052084,319.057288 154.984375,319.765625 L158.90625,319.765625 C158.895833,319.05208 158.72396,318.511721 158.390625,318.144531 C158.05729,317.777342 157.598961,317.59375 157.015625,317.59375 Z M164.632812,325 L162.796875,325 L162.796875,312.84375 L164.632812,312.84375 L164.632812,325 Z M174.554688,316.359375 L174.554688,317.367188 L173.078125,317.640625 C173.213542,317.822918 173.32552,318.046874 173.414062,318.3125 C173.502605,318.578126 173.546875,318.859374 173.546875,319.15625 C173.546875,320.046879 173.239586,320.747393 172.625,321.257812 C172.010414,321.768232 171.164068,322.023438 170.085938,322.023438 C169.809894,322.023438 169.559897,322.002604 169.335938,321.960938 C168.940102,322.20573 168.742188,322.492186 168.742188,322.820312 C168.742188,323.01823 168.834634,323.166666 169.019531,323.265625 C169.204428,323.364584 169.544268,323.414062 170.039062,323.414062 L171.546875,323.414062 C172.500005,323.414062 173.223956,323.617185 173.71875,324.023438 C174.213544,324.42969 174.460938,325.015621 174.460938,325.78125 C174.460938,326.760422 174.057296,327.515622 173.25,328.046875 C172.442704,328.578128 171.276049,328.84375 169.75,328.84375 C168.572911,328.84375 167.674482,328.635419 167.054688,328.21875 C166.434893,327.802081 166.125,327.208337 166.125,326.4375 C166.125,325.906247 166.292967,325.459637 166.628906,325.097656 C166.964845,324.735675 167.434893,324.484376 168.039062,324.34375 C167.79427,324.239583 167.592449,324.071616 167.433594,323.839844 C167.274739,323.608072 167.195312,323.364585 167.195312,323.109375 C167.195312,322.786457 167.286457,322.513022 167.46875,322.289062 C167.651043,322.065103 167.921873,321.843751 168.28125,321.625 C167.833331,321.432291 167.470053,321.118492 167.191406,320.683594 C166.912759,320.248696 166.773438,319.739586 166.773438,319.15625 C166.773438,318.218745 167.069007,317.49219 167.660156,316.976562 C168.251305,316.460935 169.093745,316.203125 170.1875,316.203125 C170.432293,316.203125 170.688801,316.220052 170.957031,316.253906 C171.225262,316.287761 171.427083,316.322916 171.5625,316.359375 L174.554688,316.359375 Z M167.765625,326.34375 C167.765625,326.739585 167.944009,327.04427 168.300781,327.257812 C168.657554,327.471355 169.158851,327.578125 169.804688,327.578125 C170.804692,327.578125 171.549477,327.434897 172.039062,327.148438 C172.528648,326.861978 172.773438,326.481773 172.773438,326.007812 C172.773438,325.632811 172.639324,325.365886 172.371094,325.207031 C172.102863,325.048176 171.60417,324.96875 170.875,324.96875 L169.484375,324.96875 C168.958331,324.96875 168.540366,325.092447 168.230469,325.339844 C167.920571,325.587241 167.765625,325.921873 167.765625,326.34375 Z M168.554688,319.15625 C168.554688,319.697919 168.694009,320.114582 168.972656,320.40625 C169.251303,320.697918 169.651039,320.84375 170.171875,320.84375 C171.23438,320.84375 171.765625,320.276047 171.765625,319.140625 C171.765625,318.578122 171.634116,318.144533 171.371094,317.839844 C171.108072,317.535155 170.708336,317.382812 170.171875,317.382812 C169.640622,317.382812 169.238283,317.533853 168.964844,317.835938 C168.691405,318.138022 168.554688,318.578122 168.554688,319.15625 Z M181.5625,325 L181.195312,323.796875 L181.132812,323.796875 C180.716144,324.322919 180.296877,324.680989 179.875,324.871094 C179.453123,325.061199 178.911462,325.15625 178.25,325.15625 C177.401037,325.15625 176.738284,324.927086 176.261719,324.46875 C175.785154,324.010414 175.546875,323.361983 175.546875,322.523438 C175.546875,321.632808 175.877601,320.96094 176.539062,320.507812 C177.200524,320.054685 178.208327,319.807292 179.5625,319.765625 L181.054688,319.71875 L181.054688,319.257812 C181.054688,318.705726 180.925783,318.29297 180.667969,318.019531 C180.410155,317.746092 180.010419,317.609375 179.46875,317.609375 C179.026039,317.609375 178.601565,317.674479 178.195312,317.804688 C177.78906,317.934896 177.398439,318.088541 177.023438,318.265625 L176.429688,316.953125 C176.89844,316.708332 177.411456,316.522136 177.96875,316.394531 C178.526044,316.266926 179.052081,316.203125 179.546875,316.203125 C180.645839,316.203125 181.475258,316.442706 182.035156,316.921875 C182.595055,317.401044 182.875,318.153641 182.875,319.179688 L182.875,325 L181.5625,325 Z M178.828125,323.75 C179.494795,323.75 180.029946,323.563804 180.433594,323.191406 C180.837242,322.819009 181.039062,322.296878 181.039062,321.625 L181.039062,320.875 L179.929688,320.921875 C179.0651,320.953125 178.4362,321.097655 178.042969,321.355469 C177.649738,321.613283 177.453125,322.00781 177.453125,322.539062 C177.453125,322.924481 177.567707,323.222655 177.796875,323.433594 C178.026043,323.644532 178.369789,323.75 178.828125,323.75 Z M188.351562,325.15625 C187.273432,325.15625 186.432295,324.765629 185.828125,323.984375 C185.223955,323.203121 184.921875,322.106778 184.921875,320.695312 C184.921875,319.278639 185.227862,318.175785 185.839844,317.386719 C186.451826,316.597652 187.299474,316.203125 188.382812,316.203125 C189.518235,316.203125 190.38281,316.622392 190.976562,317.460938 L191.070312,317.460938 C190.98177,316.841143 190.9375,316.351564 190.9375,315.992188 L190.9375,312.84375 L192.78125,312.84375 L192.78125,325 L191.34375,325 L191.023438,323.867188 L190.9375,323.867188 C190.348955,324.726567 189.486985,325.15625 188.351562,325.15625 Z M188.84375,323.671875 C189.598962,323.671875 190.148436,323.459638 190.492188,323.035156 C190.835939,322.610675 191.013021,321.92188 191.023438,320.96875 L191.023438,320.710938 C191.023438,319.62239 190.846356,318.848961 190.492188,318.390625 C190.138019,317.932289 189.583337,317.703125 188.828125,317.703125 C188.182288,317.703125 187.684898,317.964841 187.335938,318.488281 C186.986977,319.011721 186.8125,319.757808 186.8125,320.726562 C186.8125,321.684901 186.981769,322.415362 187.320312,322.917969 C187.658856,323.420575 188.166663,323.671875 188.84375,323.671875 Z M203.070312,320.664062 C203.070312,322.075528 202.708337,323.177079 201.984375,323.96875 C201.260413,324.760421 200.252611,325.15625 198.960938,325.15625 C198.153642,325.15625 197.440107,324.97396 196.820312,324.609375 C196.200518,324.24479 195.72396,323.721358 195.390625,323.039062 C195.05729,322.356767 194.890625,321.565109 194.890625,320.664062 C194.890625,319.263014 195.249996,318.169275 195.96875,317.382812 C196.687504,316.59635 197.700514,316.203125 199.007812,316.203125 C200.257819,316.203125 201.247392,316.605465 201.976562,317.410156 C202.705733,318.214848 203.070312,319.299472 203.070312,320.664062 Z M196.78125,320.664062 C196.78125,322.658864 197.518222,323.65625 198.992188,323.65625 C200.450528,323.65625 201.179688,322.658864 201.179688,320.664062 C201.179688,318.690094 200.44532,317.703125 198.976562,317.703125 C198.205725,317.703125 197.647137,317.958331 197.300781,318.46875 C196.954425,318.979169 196.78125,319.710933 196.78125,320.664062 Z M206.492188,313.578125 L206.609375,313.75 C206.333332,314.838547 205.875003,316.08593 205.234375,317.492188 L203.90625,317.492188 C204.265627,315.986972 204.526041,314.682297 204.6875,313.578125 L206.492188,313.578125 Z M213.4375,322.539062 C213.4375,323.382817 213.130211,324.029946 212.515625,324.480469 C211.901039,324.930992 211.020839,325.15625 209.875,325.15625 C208.723953,325.15625 207.799483,324.981773 207.101562,324.632812 L207.101562,323.046875 C208.117193,323.515627 209.062496,323.75 209.9375,323.75 C211.067714,323.75 211.632812,323.408858 211.632812,322.726562 C211.632812,322.507811 211.570313,322.325522 211.445312,322.179688 C211.320312,322.033853 211.114585,321.882813 210.828125,321.726562 C210.541665,321.570312 210.143232,321.39323 209.632812,321.195312 C208.638016,320.809894 207.964846,320.424481 207.613281,320.039062 C207.261717,319.653644 207.085938,319.153649 207.085938,318.539062 C207.085938,317.799475 207.384112,317.225262 207.980469,316.816406 C208.576826,316.40755 209.388016,316.203125 210.414062,316.203125 C211.429693,316.203125 212.39062,316.408852 213.296875,316.820312 L212.703125,318.203125 C211.770829,317.817706 210.986982,317.625 210.351562,317.625 C209.382808,317.625 208.898438,317.901039 208.898438,318.453125 C208.898438,318.72396 209.024738,318.953124 209.277344,319.140625 C209.529949,319.328126 210.080725,319.585936 210.929688,319.914062 C211.643233,320.190106 212.161457,320.442707 212.484375,320.671875 C212.807293,320.901043 213.046874,321.165363 213.203125,321.464844 C213.359376,321.764324 213.4375,322.122394 213.4375,322.539062 Z M224.632812,315.015625 C223.55989,315.015625 222.716149,315.39583 222.101562,316.15625 C221.486976,316.91667 221.179688,317.966139 221.179688,319.304688 C221.179688,320.705736 221.475257,321.765621 222.066406,322.484375 C222.657555,323.203129 223.513015,323.5625 224.632812,323.5625 C225.11719,323.5625 225.585935,323.514323 226.039062,323.417969 C226.49219,323.321614 226.963539,323.197917 227.453125,323.046875 L227.453125,324.648438 C226.557287,324.986981 225.541672,325.15625 224.40625,325.15625 C222.734367,325.15625 221.450525,324.649745 220.554688,323.636719 C219.65885,322.623693 219.210938,321.174489 219.210938,319.289062 C219.210938,318.101557 219.428383,317.062504 219.863281,316.171875 C220.298179,315.281246 220.927079,314.598961 221.75,314.125 C222.572921,313.651039 223.539057,313.414062 224.648438,313.414062 C225.81511,313.414062 226.893224,313.658852 227.882812,314.148438 L227.210938,315.703125 C226.825519,315.520832 226.417971,315.360678 225.988281,315.222656 C225.558592,315.084635 225.106773,315.015625 224.632812,315.015625 Z M237.476562,317.03125 C237.476562,318.223964 237.085941,319.138018 236.304688,319.773438 C235.523434,320.408857 234.411466,320.726562 232.96875,320.726562 L231.78125,320.726562 L231.78125,325 L229.914062,325 L229.914062,313.578125 L233.203125,313.578125 C234.630215,313.578125 235.699215,313.869789 236.410156,314.453125 C237.121097,315.036461 237.476562,315.895828 237.476562,317.03125 Z M231.78125,319.15625 L232.773438,319.15625 C233.731776,319.15625 234.434894,318.989585 234.882812,318.65625 C235.330731,318.322915 235.554688,317.802087 235.554688,317.09375 C235.554688,316.437497 235.354169,315.947918 234.953125,315.625 C234.552081,315.302082 233.927088,315.140625 233.078125,315.140625 L231.78125,315.140625 L231.78125,319.15625 Z M241.484375,320.585938 L238.585938,316.359375 L240.679688,316.359375 L242.648438,319.382812 L244.632812,316.359375 L246.710938,316.359375 L243.804688,320.585938 L246.859375,325 L244.78125,325 L242.648438,321.765625 L240.523438,325 L238.445312,325 L241.484375,320.585938 Z M258.335938,322.539062 C258.335938,323.382817 258.028649,324.029946 257.414062,324.480469 C256.799476,324.930992 255.919277,325.15625 254.773438,325.15625 C253.62239,325.15625 252.69792,324.981773 252,324.632812 L252,323.046875 C253.01563,323.515627 253.960933,323.75 254.835938,323.75 C255.966151,323.75 256.53125,323.408858 256.53125,322.726562 C256.53125,322.507811 256.468751,322.325522 256.34375,322.179688 C256.218749,322.033853 256.013022,321.882813 255.726562,321.726562 C255.440103,321.570312 255.041669,321.39323 254.53125,321.195312 C253.536453,320.809894 252.863283,320.424481 252.511719,320.039062 C252.160154,319.653644 251.984375,319.153649 251.984375,318.539062 C251.984375,317.799475 252.282549,317.225262 252.878906,316.816406 C253.475263,316.40755 254.286453,316.203125 255.3125,316.203125 C256.32813,316.203125 257.289058,316.408852 258.195312,316.820312 L257.601562,318.203125 C256.669266,317.817706 255.88542,317.625 255.25,317.625 C254.281245,317.625 253.796875,317.901039 253.796875,318.453125 C253.796875,318.72396 253.923176,318.953124 254.175781,319.140625 C254.428387,319.328126 254.979162,319.585936 255.828125,319.914062 C256.54167,320.190106 257.059894,320.442707 257.382812,320.671875 C257.705731,320.901043 257.945312,321.165363 258.101562,321.464844 C258.257813,321.764324 258.335938,322.122394 258.335938,322.539062 Z M263.804688,325.15625 C262.497389,325.15625 261.50391,324.774743 260.824219,324.011719 C260.144528,323.248694 259.804688,322.153653 259.804688,320.726562 C259.804688,319.27343 260.160153,318.156254 260.871094,317.375 C261.582035,316.593746 262.609368,316.203125 263.953125,316.203125 C264.864588,316.203125 265.684892,316.372394 266.414062,316.710938 L265.859375,318.1875 C265.083329,317.885415 264.442711,317.734375 263.9375,317.734375 C262.442701,317.734375 261.695312,318.726553 261.695312,320.710938 C261.695312,321.679692 261.881509,322.40755 262.253906,322.894531 C262.626304,323.381513 263.171871,323.625 263.890625,323.625 C264.708337,323.625 265.481767,323.421877 266.210938,323.015625 L266.210938,324.617188 C265.882811,324.809897 265.532554,324.947916 265.160156,325.03125 C264.787759,325.114584 264.33594,325.15625 263.804688,325.15625 Z M275.90625,320.664062 C275.90625,322.075528 275.544274,323.177079 274.820312,323.96875 C274.096351,324.760421 273.088548,325.15625 271.796875,325.15625 C270.989579,325.15625 270.276045,324.97396 269.65625,324.609375 C269.036455,324.24479 268.559898,323.721358 268.226562,323.039062 C267.893227,322.356767 267.726562,321.565109 267.726562,320.664062 C267.726562,319.263014 268.085934,318.169275 268.804688,317.382812 C269.523441,316.59635 270.536452,316.203125 271.84375,316.203125 C273.093756,316.203125 274.08333,316.605465 274.8125,317.410156 C275.54167,318.214848 275.90625,319.299472 275.90625,320.664062 Z M269.617188,320.664062 C269.617188,322.658864 270.354159,323.65625 271.828125,323.65625 C273.286466,323.65625 274.015625,322.658864 274.015625,320.664062 C274.015625,318.690094 273.281257,317.703125 271.8125,317.703125 C271.041663,317.703125 270.483075,317.958331 270.136719,318.46875 C269.790363,318.979169 269.617188,319.710933 269.617188,320.664062 Z M282.398438,316.203125 C282.768231,316.203125 283.072915,316.229166 283.3125,316.28125 L283.132812,317.992188 C282.872395,317.929687 282.601564,317.898438 282.320312,317.898438 C281.585934,317.898438 280.990888,318.138018 280.535156,318.617188 C280.079425,319.096357 279.851562,319.718746 279.851562,320.484375 L279.851562,325 L278.015625,325 L278.015625,316.359375 L279.453125,316.359375 L279.695312,317.882812 L279.789062,317.882812 C280.075522,317.367185 280.449216,316.958335 280.910156,316.65625 C281.371096,316.354165 281.867185,316.203125 282.398438,316.203125 Z M288.367188,325.15625 C287.023431,325.15625 285.97266,324.764327 285.214844,323.980469 C284.457027,323.196611 284.078125,322.117194 284.078125,320.742188 C284.078125,319.330722 284.429684,318.221358 285.132812,317.414062 C285.835941,316.606767 286.802077,316.203125 288.03125,316.203125 C289.171881,316.203125 290.072913,316.549476 290.734375,317.242188 C291.395837,317.934899 291.726562,318.888015 291.726562,320.101562 L291.726562,321.09375 L285.96875,321.09375 C285.994792,321.932296 286.221352,322.576821 286.648438,323.027344 C287.075523,323.477867 287.677079,323.703125 288.453125,323.703125 C288.963544,323.703125 289.4388,323.654948 289.878906,323.558594 C290.319013,323.462239 290.791664,323.302084 291.296875,323.078125 L291.296875,324.570312 C290.848956,324.783855 290.395836,324.934895 289.9375,325.023438 C289.479164,325.11198 288.955732,325.15625 288.367188,325.15625 Z M288.03125,317.59375 C287.447914,317.59375 286.980471,317.778644 286.628906,318.148438 C286.277342,318.518231 286.067709,319.057288 286,319.765625 L289.921875,319.765625 C289.911458,319.05208 289.739585,318.511721 289.40625,318.144531 C289.072915,317.777342 288.614586,317.59375 288.03125,317.59375 Z M305.570312,325 L303.726562,325 L303.726562,319.6875 C303.726562,319.02083 303.592449,318.523439 303.324219,318.195312 C303.055988,317.867186 302.630211,317.703125 302.046875,317.703125 C301.276038,317.703125 300.709637,317.933591 300.347656,318.394531 C299.985675,318.855471 299.804688,319.627599 299.804688,320.710938 L299.804688,325 L297.96875,325 L297.96875,312.84375 L299.804688,312.84375 L299.804688,315.929688 C299.804688,316.424482 299.773438,316.953122 299.710938,317.515625 L299.828125,317.515625 C300.078126,317.098956 300.425779,316.776043 300.871094,316.546875 C301.316408,316.317707 301.835935,316.203125 302.429688,316.203125 C304.523448,316.203125 305.570312,317.257802 305.570312,319.367188 L305.570312,325 Z M313.53125,325 L313.164062,323.796875 L313.101562,323.796875 C312.684894,324.322919 312.265627,324.680989 311.84375,324.871094 C311.421873,325.061199 310.880212,325.15625 310.21875,325.15625 C309.369787,325.15625 308.707034,324.927086 308.230469,324.46875 C307.753904,324.010414 307.515625,323.361983 307.515625,322.523438 C307.515625,321.632808 307.846351,320.96094 308.507812,320.507812 C309.169274,320.054685 310.177077,319.807292 311.53125,319.765625 L313.023438,319.71875 L313.023438,319.257812 C313.023438,318.705726 312.894533,318.29297 312.636719,318.019531 C312.378905,317.746092 311.979169,317.609375 311.4375,317.609375 C310.994789,317.609375 310.570315,317.674479 310.164062,317.804688 C309.75781,317.934896 309.367189,318.088541 308.992188,318.265625 L308.398438,316.953125 C308.86719,316.708332 309.380206,316.522136 309.9375,316.394531 C310.494794,316.266926 311.020831,316.203125 311.515625,316.203125 C312.614589,316.203125 313.444008,316.442706 314.003906,316.921875 C314.563805,317.401044 314.84375,318.153641 314.84375,319.179688 L314.84375,325 L313.53125,325 Z M310.796875,323.75 C311.463545,323.75 311.998696,323.563804 312.402344,323.191406 C312.805992,322.819009 313.007812,322.296878 313.007812,321.625 L313.007812,320.875 L311.898438,320.921875 C311.03385,320.953125 310.40495,321.097655 310.011719,321.355469 C309.618488,321.613283 309.421875,322.00781 309.421875,322.539062 C309.421875,322.924481 309.536457,323.222655 309.765625,323.433594 C309.994793,323.644532 310.338539,323.75 310.796875,323.75 Z M323.210938,322.539062 C323.210938,323.382817 322.903649,324.029946 322.289062,324.480469 C321.674476,324.930992 320.794277,325.15625 319.648438,325.15625 C318.49739,325.15625 317.57292,324.981773 316.875,324.632812 L316.875,323.046875 C317.89063,323.515627 318.835933,323.75 319.710938,323.75 C320.841151,323.75 321.40625,323.408858 321.40625,322.726562 C321.40625,322.507811 321.343751,322.325522 321.21875,322.179688 C321.093749,322.033853 320.888022,321.882813 320.601562,321.726562 C320.315103,321.570312 319.916669,321.39323 319.40625,321.195312 C318.411453,320.809894 317.738283,320.424481 317.386719,320.039062 C317.035154,319.653644 316.859375,319.153649 316.859375,318.539062 C316.859375,317.799475 317.157549,317.225262 317.753906,316.816406 C318.350263,316.40755 319.161453,316.203125 320.1875,316.203125 C321.20313,316.203125 322.164058,316.408852 323.070312,316.820312 L322.476562,318.203125 C321.544266,317.817706 320.76042,317.625 320.125,317.625 C319.156245,317.625 318.671875,317.901039 318.671875,318.453125 C318.671875,318.72396 318.798176,318.953124 319.050781,319.140625 C319.303387,319.328126 319.854162,319.585936 320.703125,319.914062 C321.41667,320.190106 321.934894,320.442707 322.257812,320.671875 C322.580731,320.901043 322.820312,321.165363 322.976562,321.464844 C323.132813,321.764324 323.210938,322.122394 323.210938,322.539062 Z M98.609375,338.359375 L98.609375,339.367188 L97.1328125,339.640625 C97.2682298,339.822918 97.3802079,340.046874 97.46875,340.3125 C97.5572921,340.578126 97.6015625,340.859374 97.6015625,341.15625 C97.6015625,342.046879 97.2942739,342.747393 96.6796875,343.257812 C96.0651011,343.768232 95.2187554,344.023438 94.140625,344.023438 C93.864582,344.023438 93.6145845,344.002604 93.390625,343.960938 C92.9947897,344.20573 92.796875,344.492186 92.796875,344.820312 C92.796875,345.01823 92.889322,345.166666 93.0742188,345.265625 C93.2591155,345.364584 93.5989559,345.414062 94.09375,345.414062 L95.6015625,345.414062 C96.5546923,345.414062 97.2786434,345.617185 97.7734375,346.023438 C98.2682316,346.42969 98.515625,347.015621 98.515625,347.78125 C98.515625,348.760422 98.1119832,349.515622 97.3046875,350.046875 C96.4973918,350.578128 95.3307368,350.84375 93.8046875,350.84375 C92.6275983,350.84375 91.7291698,350.635419 91.109375,350.21875 C90.4895802,349.802081 90.1796875,349.208337 90.1796875,348.4375 C90.1796875,347.906247 90.3476546,347.459637 90.6835938,347.097656 C91.0195329,346.735675 91.4895803,346.484376 92.09375,346.34375 C91.8489571,346.239583 91.6471362,346.071616 91.4882812,345.839844 C91.3294263,345.608072 91.25,345.364585 91.25,345.109375 C91.25,344.786457 91.3411449,344.513022 91.5234375,344.289062 C91.7057301,344.065103 91.9765607,343.843751 92.3359375,343.625 C91.8880186,343.432291 91.524741,343.118492 91.2460938,342.683594 C90.9674465,342.248696 90.828125,341.739586 90.828125,341.15625 C90.828125,340.218745 91.123695,339.49219 91.7148438,338.976562 C92.3059925,338.460935 93.148432,338.203125 94.2421875,338.203125 C94.4869804,338.203125 94.7434882,338.220052 95.0117188,338.253906 C95.2799493,338.287761 95.4817702,338.322916 95.6171875,338.359375 L98.609375,338.359375 Z M91.8203125,348.34375 C91.8203125,348.739585 91.9986961,349.04427 92.3554688,349.257812 C92.7122414,349.471355 93.2135384,349.578125 93.859375,349.578125 C94.85938,349.578125 95.6041642,349.434897 96.09375,349.148438 C96.5833358,348.861978 96.828125,348.481773 96.828125,348.007812 C96.828125,347.632811 96.6940118,347.365886 96.4257812,347.207031 C96.1575507,347.048176 95.6588578,346.96875 94.9296875,346.96875 L93.5390625,346.96875 C93.0130182,346.96875 92.5950536,347.092447 92.2851562,347.339844 C91.9752589,347.587241 91.8203125,347.921873 91.8203125,348.34375 Z M92.609375,341.15625 C92.609375,341.697919 92.7486965,342.114582 93.0273438,342.40625 C93.305991,342.697918 93.7057266,342.84375 94.2265625,342.84375 C95.2890678,342.84375 95.8203125,342.276047 95.8203125,341.140625 C95.8203125,340.578122 95.6888034,340.144533 95.4257812,339.839844 C95.1627591,339.535155 94.7630235,339.382812 94.2265625,339.382812 C93.6953098,339.382812 93.2929701,339.533853 93.0195312,339.835938 C92.7460924,340.138022 92.609375,340.578122 92.609375,341.15625 Z M107.875,342.664062 C107.875,344.075528 107.513024,345.177079 106.789062,345.96875 C106.065101,346.760421 105.057298,347.15625 103.765625,347.15625 C102.958329,347.15625 102.244795,346.97396 101.625,346.609375 C101.005205,346.24479 100.528647,345.721358 100.195312,345.039062 C99.8619775,344.356767 99.6953125,343.565109 99.6953125,342.664062 C99.6953125,341.263014 100.054684,340.169275 100.773438,339.382812 C101.492191,338.59635 102.505202,338.203125 103.8125,338.203125 C105.062506,338.203125 106.05208,338.605465 106.78125,339.410156 C107.51042,340.214848 107.875,341.299472 107.875,342.664062 Z M101.585938,342.664062 C101.585938,344.658864 102.322909,345.65625 103.796875,345.65625 C105.255216,345.65625 105.984375,344.658864 105.984375,342.664062 C105.984375,340.690094 105.250007,339.703125 103.78125,339.703125 C103.010413,339.703125 102.451825,339.958331 102.105469,340.46875 C101.759113,340.979169 101.585938,341.710933 101.585938,342.664062 Z M117.585938,347 L115.742188,347 L115.742188,341.6875 C115.742188,341.02083 115.608074,340.523439 115.339844,340.195312 C115.071613,339.867186 114.645836,339.703125 114.0625,339.703125 C113.286454,339.703125 112.718752,339.932289 112.359375,340.390625 C111.999998,340.848961 111.820312,341.617182 111.820312,342.695312 L111.820312,347 L109.984375,347 L109.984375,338.359375 L111.421875,338.359375 L111.679688,339.492188 L111.773438,339.492188 C112.033855,339.080727 112.403643,338.763022 112.882812,338.539062 C113.361982,338.315103 113.893226,338.203125 114.476562,338.203125 C116.54949,338.203125 117.585938,339.257802 117.585938,341.367188 L117.585938,347 Z M123.914062,347.15625 C122.570306,347.15625 121.519535,346.764327 120.761719,345.980469 C120.003902,345.196611 119.625,344.117194 119.625,342.742188 C119.625,341.330722 119.976559,340.221358 120.679688,339.414062 C121.382816,338.606767 122.348952,338.203125 123.578125,338.203125 C124.718756,338.203125 125.619788,338.549476 126.28125,339.242188 C126.942712,339.934899 127.273438,340.888015 127.273438,342.101562 L127.273438,343.09375 L121.515625,343.09375 C121.541667,343.932296 121.768227,344.576821 122.195312,345.027344 C122.622398,345.477867 123.223954,345.703125 124,345.703125 C124.510419,345.703125 124.985675,345.654948 125.425781,345.558594 C125.865888,345.462239 126.338539,345.302084 126.84375,345.078125 L126.84375,346.570312 C126.395831,346.783855 125.942711,346.934895 125.484375,347.023438 C125.026039,347.11198 124.502607,347.15625 123.914062,347.15625 Z M123.578125,339.59375 C122.994789,339.59375 122.527346,339.778644 122.175781,340.148438 C121.824217,340.518231 121.614584,341.057288 121.546875,341.765625 L125.46875,341.765625 C125.458333,341.05208 125.28646,340.511721 124.953125,340.144531 C124.61979,339.777342 124.161461,339.59375 123.578125,339.59375 Z M136.429688,347.15625 C135.351557,347.15625 134.51042,346.765629 133.90625,345.984375 C133.30208,345.203121 133,344.106778 133,342.695312 C133,341.278639 133.305987,340.175785 133.917969,339.386719 C134.529951,338.597652 135.377599,338.203125 136.460938,338.203125 C137.59636,338.203125 138.460935,338.622392 139.054688,339.460938 L139.148438,339.460938 C139.059895,338.841143 139.015625,338.351564 139.015625,337.992188 L139.015625,334.84375 L140.859375,334.84375 L140.859375,347 L139.421875,347 L139.101562,345.867188 L139.015625,345.867188 C138.42708,346.726567 137.56511,347.15625 136.429688,347.15625 Z M136.921875,345.671875 C137.677087,345.671875 138.226561,345.459638 138.570312,345.035156 C138.914064,344.610675 139.091146,343.92188 139.101562,342.96875 L139.101562,342.710938 C139.101562,341.62239 138.924481,340.848961 138.570312,340.390625 C138.216144,339.932289 137.661462,339.703125 136.90625,339.703125 C136.260413,339.703125 135.763023,339.964841 135.414062,340.488281 C135.065102,341.011721 134.890625,341.757808 134.890625,342.726562 C134.890625,343.684901 135.059894,344.415362 135.398438,344.917969 C135.736981,345.420575 136.244788,345.671875 136.921875,345.671875 Z M151.148438,342.664062 C151.148438,344.075528 150.786462,345.177079 150.0625,345.96875 C149.338538,346.760421 148.330736,347.15625 147.039062,347.15625 C146.231767,347.15625 145.518232,346.97396 144.898438,346.609375 C144.278643,346.24479 143.802085,345.721358 143.46875,345.039062 C143.135415,344.356767 142.96875,343.565109 142.96875,342.664062 C142.96875,341.263014 143.328121,340.169275 144.046875,339.382812 C144.765629,338.59635 145.778639,338.203125 147.085938,338.203125 C148.335944,338.203125 149.325517,338.605465 150.054688,339.410156 C150.783858,340.214848 151.148438,341.299472 151.148438,342.664062 Z M144.859375,342.664062 C144.859375,344.658864 145.596347,345.65625 147.070312,345.65625 C148.528653,345.65625 149.257812,344.658864 149.257812,342.664062 C149.257812,340.690094 148.523445,339.703125 147.054688,339.703125 C146.28385,339.703125 145.725262,339.958331 145.378906,340.46875 C145.03255,340.979169 144.859375,341.710933 144.859375,342.664062 Z M160.023438,347 L158.90625,342.96875 C158.770833,342.541665 158.526043,341.549487 158.171875,339.992188 L158.101562,339.992188 C157.799478,341.398445 157.559897,342.39583 157.382812,342.984375 L156.234375,347 L154.203125,347 L151.78125,338.359375 L153.65625,338.359375 L154.757812,342.617188 C155.007814,343.669276 155.184895,344.570309 155.289062,345.320312 L155.335938,345.320312 C155.388021,344.940102 155.467447,344.503909 155.574219,344.011719 C155.68099,343.519529 155.773437,343.151043 155.851562,342.90625 L157.164062,338.359375 L159.179688,338.359375 L160.453125,342.90625 C160.53125,343.16146 160.628906,343.552081 160.746094,344.078125 C160.863282,344.604169 160.932292,345.013019 160.953125,345.304688 L161.015625,345.304688 C161.09375,344.664059 161.27604,343.768235 161.5625,342.617188 L162.679688,338.359375 L164.523438,338.359375 L162.085938,347 L160.023438,347 Z M173.609375,347 L171.765625,347 L171.765625,341.6875 C171.765625,341.02083 171.631512,340.523439 171.363281,340.195312 C171.095051,339.867186 170.669274,339.703125 170.085938,339.703125 C169.309892,339.703125 168.742189,339.932289 168.382812,340.390625 C168.023436,340.848961 167.84375,341.617182 167.84375,342.695312 L167.84375,347 L166.007812,347 L166.007812,338.359375 L167.445312,338.359375 L167.703125,339.492188 L167.796875,339.492188 C168.057293,339.080727 168.427081,338.763022 168.90625,338.539062 C169.385419,338.315103 169.916664,338.203125 170.5,338.203125 C172.572927,338.203125 173.609375,339.257802 173.609375,341.367188 L173.609375,347 Z M187.453125,347 L179.710938,347 L179.710938,345.609375 L182.65625,342.648438 C183.526046,341.757808 184.102863,341.126304 184.386719,340.753906 C184.670574,340.381509 184.877604,340.031252 185.007812,339.703125 C185.138021,339.374998 185.203125,339.023439 185.203125,338.648438 C185.203125,338.13281 185.048179,337.726564 184.738281,337.429688 C184.428384,337.132811 184.000003,336.984375 183.453125,336.984375 C183.015623,336.984375 182.59245,337.065103 182.183594,337.226562 C181.774738,337.388022 181.302086,337.679685 180.765625,338.101562 L179.773438,336.890625 C180.408857,336.354164 181.026039,335.973959 181.625,335.75 C182.223961,335.526041 182.861976,335.414062 183.539062,335.414062 C184.601568,335.414062 185.453122,335.691403 186.09375,336.246094 C186.734378,336.800784 187.054688,337.54687 187.054688,338.484375 C187.054688,339.000003 186.962241,339.489581 186.777344,339.953125 C186.592447,340.416669 186.308596,340.894529 185.925781,341.386719 C185.542967,341.878909 184.906254,342.544267 184.015625,343.382812 L182.03125,345.304688 L182.03125,345.382812 L187.453125,345.382812 L187.453125,347 Z M189.179688,346.023438 C189.179688,345.643227 189.278645,345.351564 189.476562,345.148438 C189.67448,344.945311 189.960936,344.84375 190.335938,344.84375 C190.716148,344.84375 191.005207,344.949218 191.203125,345.160156 C191.401043,345.371095 191.5,345.658852 191.5,346.023438 C191.5,346.393231 191.399741,346.686197 191.199219,346.902344 C190.998697,347.118491 190.710939,347.226562 190.335938,347.226562 C189.960936,347.226562 189.67448,347.119793 189.476562,346.90625 C189.278645,346.692707 189.179688,346.398439 189.179688,346.023438 Z M198.632812,347 L196.796875,347 L196.796875,339.625 C196.796875,338.744787 196.817708,338.046878 196.859375,337.53125 C196.739583,337.656251 196.592449,337.79427 196.417969,337.945312 C196.243489,338.096355 195.658859,338.575517 194.664062,339.382812 L193.742188,338.21875 L197.101562,335.578125 L198.632812,335.578125 L198.632812,347 Z M212.945312,344.539062 C212.945312,345.382817 212.638024,346.029946 212.023438,346.480469 C211.408851,346.930992 210.528652,347.15625 209.382812,347.15625 C208.231765,347.15625 207.307295,346.981773 206.609375,346.632812 L206.609375,345.046875 C207.625005,345.515627 208.570308,345.75 209.445312,345.75 C210.575526,345.75 211.140625,345.408858 211.140625,344.726562 C211.140625,344.507811 211.078126,344.325522 210.953125,344.179688 C210.828124,344.033853 210.622397,343.882813 210.335938,343.726562 C210.049478,343.570312 209.651044,343.39323 209.140625,343.195312 C208.145828,342.809894 207.472658,342.424481 207.121094,342.039062 C206.769529,341.653644 206.59375,341.153649 206.59375,340.539062 C206.59375,339.799475 206.891924,339.225262 207.488281,338.816406 C208.084638,338.40755 208.895828,338.203125 209.921875,338.203125 C210.937505,338.203125 211.898433,338.408852 212.804688,338.820312 L212.210938,340.203125 C211.278641,339.817706 210.494795,339.625 209.859375,339.625 C208.89062,339.625 208.40625,339.901039 208.40625,340.453125 C208.40625,340.72396 208.532551,340.953124 208.785156,341.140625 C209.037762,341.328126 209.588537,341.585936 210.4375,341.914062 C211.151045,342.190106 211.669269,342.442707 211.992188,342.671875 C212.315106,342.901043 212.554687,343.165363 212.710938,343.464844 C212.867188,343.764324 212.945312,344.122394 212.945312,344.539062 Z M218.148438,345.671875 C218.596356,345.671875 219.044269,345.601563 219.492188,345.460938 L219.492188,346.84375 C219.289061,346.932292 219.027345,347.00651 218.707031,347.066406 C218.386717,347.126302 218.054689,347.15625 217.710938,347.15625 C215.971345,347.15625 215.101562,346.239593 215.101562,344.40625 L215.101562,339.75 L213.921875,339.75 L213.921875,338.9375 L215.1875,338.265625 L215.8125,336.4375 L216.945312,336.4375 L216.945312,338.359375 L219.40625,338.359375 L219.40625,339.75 L216.945312,339.75 L216.945312,344.375 C216.945312,344.817711 217.055988,345.14453 217.277344,345.355469 C217.498699,345.566407 217.789061,345.671875 218.148438,345.671875 Z M226.625,347 L226.257812,345.796875 L226.195312,345.796875 C225.778644,346.322919 225.359377,346.680989 224.9375,346.871094 C224.515623,347.061199 223.973962,347.15625 223.3125,347.15625 C222.463537,347.15625 221.800784,346.927086 221.324219,346.46875 C220.847654,346.010414 220.609375,345.361983 220.609375,344.523438 C220.609375,343.632808 220.940101,342.96094 221.601562,342.507812 C222.263024,342.054685 223.270827,341.807292 224.625,341.765625 L226.117188,341.71875 L226.117188,341.257812 C226.117188,340.705726 225.988283,340.29297 225.730469,340.019531 C225.472655,339.746092 225.072919,339.609375 224.53125,339.609375 C224.088539,339.609375 223.664065,339.674479 223.257812,339.804688 C222.85156,339.934896 222.460939,340.088541 222.085938,340.265625 L221.492188,338.953125 C221.96094,338.708332 222.473956,338.522136 223.03125,338.394531 C223.588544,338.266926 224.114581,338.203125 224.609375,338.203125 C225.708339,338.203125 226.537758,338.442706 227.097656,338.921875 C227.657555,339.401044 227.9375,340.153641 227.9375,341.179688 L227.9375,347 L226.625,347 Z M223.890625,345.75 C224.557295,345.75 225.092446,345.563804 225.496094,345.191406 C225.899742,344.819009 226.101562,344.296878 226.101562,343.625 L226.101562,342.875 L224.992188,342.921875 C224.1276,342.953125 223.4987,343.097655 223.105469,343.355469 C222.712238,343.613283 222.515625,344.00781 222.515625,344.539062 C222.515625,344.924481 222.630207,345.222655 222.859375,345.433594 C223.088543,345.644532 223.432289,345.75 223.890625,345.75 Z M234.882812,338.203125 C235.252606,338.203125 235.55729,338.229166 235.796875,338.28125 L235.617188,339.992188 C235.35677,339.929687 235.085939,339.898438 234.804688,339.898438 C234.070309,339.898438 233.475263,340.138018 233.019531,340.617188 C232.5638,341.096357 232.335938,341.718746 232.335938,342.484375 L232.335938,347 L230.5,347 L230.5,338.359375 L231.9375,338.359375 L232.179688,339.882812 L232.273438,339.882812 C232.559897,339.367185 232.933591,338.958335 233.394531,338.65625 C233.855471,338.354165 234.35156,338.203125 234.882812,338.203125 Z M243.203125,344.539062 C243.203125,345.382817 242.895836,346.029946 242.28125,346.480469 C241.666664,346.930992 240.786464,347.15625 239.640625,347.15625 C238.489578,347.15625 237.565108,346.981773 236.867188,346.632812 L236.867188,345.046875 C237.882818,345.515627 238.828121,345.75 239.703125,345.75 C240.833339,345.75 241.398438,345.408858 241.398438,344.726562 C241.398438,344.507811 241.335938,344.325522 241.210938,344.179688 C241.085937,344.033853 240.88021,343.882813 240.59375,343.726562 C240.30729,343.570312 239.908857,343.39323 239.398438,343.195312 C238.403641,342.809894 237.730471,342.424481 237.378906,342.039062 C237.027342,341.653644 236.851562,341.153649 236.851562,340.539062 C236.851562,339.799475 237.149737,339.225262 237.746094,338.816406 C238.342451,338.40755 239.153641,338.203125 240.179688,338.203125 C241.195318,338.203125 242.156245,338.408852 243.0625,338.820312 L242.46875,340.203125 C241.536454,339.817706 240.752607,339.625 240.117188,339.625 C239.148433,339.625 238.664062,339.901039 238.664062,340.453125 C238.664062,340.72396 238.790363,340.953124 239.042969,341.140625 C239.295574,341.328126 239.84635,341.585936 240.695312,341.914062 C241.408858,342.190106 241.927082,342.442707 242.25,342.671875 C242.572918,342.901043 242.812499,343.165363 242.96875,343.464844 C243.125001,343.764324 243.203125,344.122394 243.203125,344.539062 Z M244.914062,346.023438 C244.914062,345.643227 245.01302,345.351564 245.210938,345.148438 C245.408855,344.945311 245.695311,344.84375 246.070312,344.84375 C246.450523,344.84375 246.739582,344.949218 246.9375,345.160156 C247.135418,345.371095 247.234375,345.658852 247.234375,346.023438 C247.234375,346.393231 247.134116,346.686197 246.933594,346.902344 C246.733072,347.118491 246.445314,347.226562 246.070312,347.226562 C245.695311,347.226562 245.408855,347.119793 245.210938,346.90625 C245.01302,346.692707 244.914062,346.398439 244.914062,346.023438 Z" id="James-Delgados-CPx" fill="#656262"></path>
                </g>
            </g>
        </g>
    </g>
</svg>