<?xml version="1.0" encoding="UTF-8"?>
<svg width="481px" height="325px" viewBox="0 0 481 325" version="1.1" xmlns="http://www.w3.org/2000/svg" xmlns:xlink="http://www.w3.org/1999/xlink">
    <!-- Generator: Sketch 43.1 (39012) - http://www.bohemiancoding.com/sketch -->
    <title>Group 2</title>
    <desc>Created with Sketch.</desc>
    <defs>
        <rect id="path-1" x="1" y="0" width="447" height="291" rx="2.7"></rect>
        <filter x="-5.7%" y="-8.8%" width="111.4%" height="117.5%" filterUnits="objectBoundingBox" id="filter-2">
            <feOffset dx="0" dy="0" in="SourceAlpha" result="shadowOffsetOuter1"></feOffset>
            <feGaussianBlur stdDeviation="8.5" in="shadowOffsetOuter1" result="shadowBlurOuter1"></feGaussianBlur>
            <feColorMatrix values="0 0 0 0 0.71372549   0 0 0 0 0.71372549   0 0 0 0 0.71372549  0 0 0 0.5 0" type="matrix" in="shadowBlurOuter1"></feColorMatrix>
        </filter>
    </defs>
    <g id="Marketing" stroke="none" stroke-width="1" fill="none" fill-rule="evenodd">
        <g id="Artboard-2" transform="translate(-448.000000, -63.000000)">
            <g id="Group-2" transform="translate(464.000000, 80.000000)">
                <g id="Rectangle-Copy-14">
                    <use fill="black" fill-opacity="1" filter="url(#filter-2)" xlink:href="#path-1"></use>
                    <use fill="#FFFFFF" fill-rule="evenodd" xlink:href="#path-1"></use>
                </g>
                <text id="Team-McKinney-Copy-11" font-family="OpenSans-Semibold, Open Sans" font-size="9.9" font-weight="500" fill="#656262">
                    <tspan x="21" y="85">Team McKinney</tspan>
                </text>
                <rect id="Rectangle-3-Copy-3" fill="#F7F7F7" x="142" y="74" width="287" height="14"></rect>
                <rect id="Rectangle-3-Copy-60" fill="#AF8DD8" x="142" y="74" width="97" height="14"></rect>
                <rect id="Rectangle-3-Copy-61" fill="#F7F7F7" x="142" y="92" width="287" height="14"></rect>
                <rect id="Rectangle-3-Copy-62" fill="#5DC9E3" x="142" y="92" width="211" height="14"></rect>
                <path d="M146.727734,84 L146.727734,78.2176758 L147.953809,78.2176758 L147.953809,84 L146.727734,84 Z M153.395996,84 L152.189697,84 L152.189697,81.417334 C152.189697,81.0982894 152.133008,80.8590096 152.019629,80.6994873 C151.906249,80.539965 151.725636,80.4602051 151.477783,80.4602051 C151.140282,80.4602051 150.896387,80.5729237 150.746094,80.7983643 C150.5958,81.0238048 150.520654,81.397556 150.520654,81.9196289 L150.520654,84 L149.314355,84 L149.314355,79.5782227 L150.235889,79.5782227 L150.398047,80.1437988 L150.465283,80.1437988 C150.599757,79.9302235 150.784984,79.7687261 151.020972,79.6593018 C151.256959,79.5498774 151.525243,79.495166 151.82583,79.495166 C152.339993,79.495166 152.730223,79.6342515 152.996533,79.9124268 C153.262843,80.190602 153.395996,80.5920384 153.395996,81.116748 L153.395996,84 Z" id="In-Copy-11" fill="#FFFFFF"></path>
                <path d="M145.334766,65.1088379 C145.334766,66.1187062 145.169313,66.8662085 144.838403,67.3513672 C144.507493,67.8365259 143.997953,68.0791016 143.309766,68.0791016 C142.642672,68.0791016 142.139723,67.8286158 141.800903,67.3276367 C141.462083,66.8266577 141.292676,66.0870654 141.292676,65.1088379 C141.292676,64.0884226 141.457469,63.3363061 141.787061,62.8524658 C142.116652,62.3686255 142.624215,62.126709 143.309766,62.126709 C143.976859,62.126709 144.481126,62.3798315 144.822583,62.886084 C145.16404,63.3923365 145.334766,64.1332471 145.334766,65.1088379 Z M142.506885,65.1088379 C142.506885,65.8181188 142.568188,66.3263412 142.690796,66.6335205 C142.813404,66.9406998 143.019725,67.0942871 143.309766,67.0942871 C143.594533,67.0942871 143.800195,66.9387223 143.926758,66.6275879 C144.053321,66.3164535 144.116602,65.8102086 144.116602,65.1088379 C144.116602,64.399557 144.052662,63.8900162 143.92478,63.5802002 C143.796899,63.2703842 143.591896,63.1154785 143.309766,63.1154785 C143.022362,63.1154785 142.8167,63.2703842 142.692773,63.5802002 C142.568847,63.8900162 142.506885,64.399557 142.506885,65.1088379 Z" id="0-copy-3" fill="#9B9B9B"></path>
                <path d="M419.87168,64.305957 C420.430667,64.305957 420.875609,64.4628402 421.206519,64.7766113 C421.537428,65.0903824 421.702881,65.5201633 421.702881,66.0659668 C421.702881,66.7119661 421.503811,67.2089826 421.105664,67.5570312 C420.707518,67.9050799 420.137992,68.0791016 419.39707,68.0791016 C418.753708,68.0791016 418.234279,67.9749522 417.83877,67.7666504 L417.83877,66.7106445 C418.047071,66.8213873 418.289647,66.911694 418.566504,66.9815674 C418.843361,67.0514408 419.105712,67.086377 419.353564,67.086377 C420.09976,67.086377 420.472852,66.7805206 420.472852,66.1687988 C420.472852,65.5860811 420.086576,65.2947266 419.314014,65.2947266 C419.174267,65.2947266 419.02002,65.3085692 418.85127,65.3362549 C418.682519,65.3639406 418.545411,65.3936034 418.439941,65.4252441 L417.953467,65.164209 L418.170996,62.2176758 L421.307373,62.2176758 L421.307373,63.2539062 L419.242822,63.2539062 L419.136035,64.3890137 L419.274463,64.3613281 C419.435304,64.3244139 419.634374,64.305957 419.87168,64.305957 Z M422.529492,67.4344238 C422.529492,67.2129383 422.588818,67.0455084 422.707471,66.9321289 C422.826124,66.8187494 422.998827,66.7620605 423.225586,66.7620605 C423.444435,66.7620605 423.613842,66.8200678 423.733813,66.936084 C423.853785,67.0521002 423.91377,67.2182118 423.91377,67.4344238 C423.91377,67.6427257 423.853126,67.8068598 423.731836,67.9268311 C423.610546,68.0468024 423.441798,68.1067871 423.225586,68.1067871 C423.0041,68.1067871 422.832715,68.0481207 422.711426,67.9307861 C422.590136,67.8134516 422.529492,67.6479991 422.529492,67.4344238 Z M428.711279,65.1088379 C428.711279,66.1187062 428.545827,66.8662085 428.214917,67.3513672 C427.884007,67.8365259 427.374466,68.0791016 426.686279,68.0791016 C426.019186,68.0791016 425.516237,67.8286158 425.177417,67.3276367 C424.838597,66.8266577 424.669189,66.0870654 424.669189,65.1088379 C424.669189,64.0884226 424.833983,63.3363061 425.163574,62.8524658 C425.493166,62.3686255 426.000729,62.126709 426.686279,62.126709 C427.353372,62.126709 427.85764,62.3798315 428.199097,62.886084 C428.540553,63.3923365 428.711279,64.1332471 428.711279,65.1088379 Z M425.883398,65.1088379 C425.883398,65.8181188 425.944702,66.3263412 426.06731,66.6335205 C426.189918,66.9406998 426.396239,67.0942871 426.686279,67.0942871 C426.971046,67.0942871 427.176708,66.9387223 427.303271,66.6275879 C427.429835,66.3164535 427.493115,65.8102086 427.493115,65.1088379 C427.493115,64.399557 427.429175,63.8900162 427.301294,63.5802002 C427.173412,63.2703842 426.96841,63.1154785 426.686279,63.1154785 C426.398876,63.1154785 426.193214,63.2703842 426.069287,63.5802002 C425.945361,63.8900162 425.883398,64.399557 425.883398,65.1088379 Z" id="5.0-copy-3" fill="#9B9B9B"></path>
                <path d="M314.584229,63.5109863 C314.584229,63.8722186 314.474806,64.1793933 314.255957,64.4325195 C314.037108,64.6856458 313.729934,64.8596675 313.334424,64.9545898 L313.334424,64.9783203 C313.801125,65.0363284 314.154442,65.1780506 314.394385,65.4034912 C314.634327,65.6289318 314.754297,65.9328106 314.754297,66.3151367 C314.754297,66.8714872 314.55259,67.3045639 314.14917,67.6143799 C313.74575,67.9241959 313.169633,68.0791016 312.420801,68.0791016 C311.793259,68.0791016 311.236916,67.9749522 310.751758,67.7666504 L310.751758,66.7264648 C310.97588,66.8398443 311.222411,66.9321286 311.491357,67.0033203 C311.760304,67.0745121 312.02661,67.1101074 312.290283,67.1101074 C312.693703,67.1101074 312.991649,67.0415534 313.184131,66.9044434 C313.376612,66.7673333 313.472852,66.5471695 313.472852,66.2439453 C313.472852,65.9723619 313.36211,65.7798834 313.140625,65.6665039 C312.91914,65.5531244 312.565823,65.4964355 312.080664,65.4964355 L311.64165,65.4964355 L311.64165,64.559082 L312.088574,64.559082 C312.536819,64.559082 312.864428,64.5004156 313.071411,64.3830811 C313.278395,64.2657465 313.381885,64.0646987 313.381885,63.7799316 C313.381885,63.3422341 313.107669,63.1233887 312.559229,63.1233887 C312.369384,63.1233887 312.176246,63.155029 311.97981,63.2183105 C311.783373,63.2815921 311.565187,63.3910148 311.325244,63.546582 L310.759668,62.7041504 C311.287014,62.324461 311.915865,62.1346191 312.64624,62.1346191 C313.244778,62.1346191 313.717405,62.255907 314.064136,62.4984863 C314.410866,62.7410657 314.584229,63.0785623 314.584229,63.5109863 Z M315.529492,67.4344238 C315.529492,67.2129383 315.588818,67.0455084 315.707471,66.9321289 C315.826124,66.8187494 315.998827,66.7620605 316.225586,66.7620605 C316.444435,66.7620605 316.613842,66.8200678 316.733813,66.936084 C316.853785,67.0521002 316.91377,67.2182118 316.91377,67.4344238 C316.91377,67.6427257 316.853126,67.8068598 316.731836,67.9268311 C316.610546,68.0468024 316.441798,68.1067871 316.225586,68.1067871 C316.0041,68.1067871 315.832715,68.0481207 315.711426,67.9307861 C315.590136,67.8134516 315.529492,67.6479991 315.529492,67.4344238 Z M321.711279,65.1088379 C321.711279,66.1187062 321.545827,66.8662085 321.214917,67.3513672 C320.884007,67.8365259 320.374466,68.0791016 319.686279,68.0791016 C319.019186,68.0791016 318.516237,67.8286158 318.177417,67.3276367 C317.838597,66.8266577 317.669189,66.0870654 317.669189,65.1088379 C317.669189,64.0884226 317.833983,63.3363061 318.163574,62.8524658 C318.493166,62.3686255 319.000729,62.126709 319.686279,62.126709 C320.353372,62.126709 320.85764,62.3798315 321.199097,62.886084 C321.540553,63.3923365 321.711279,64.1332471 321.711279,65.1088379 Z M318.883398,65.1088379 C318.883398,65.8181188 318.944702,66.3263412 319.06731,66.6335205 C319.189918,66.9406998 319.396239,67.0942871 319.686279,67.0942871 C319.971046,67.0942871 320.176708,66.9387223 320.303271,66.6275879 C320.429835,66.3164535 320.493115,65.8102086 320.493115,65.1088379 C320.493115,64.399557 320.429175,63.8900162 320.301294,63.5802002 C320.173412,63.2703842 319.96841,63.1154785 319.686279,63.1154785 C319.398876,63.1154785 319.193214,63.2703842 319.069287,63.5802002 C318.945361,63.8900162 318.883398,64.399557 318.883398,65.1088379 Z" id="3.0-copy-3" fill="#9B9B9B"></path>
                <path d="M370.940186,66.8016113 L370.244092,66.8016113 L370.244092,68 L369.049658,68 L369.049658,66.8016113 L366.581689,66.8016113 L366.581689,65.9512695 L369.116895,62.2176758 L370.244092,62.2176758 L370.244092,65.8523926 L370.940186,65.8523926 L370.940186,66.8016113 Z M369.049658,65.8523926 L369.049658,64.8715332 C369.049658,64.7080558 369.05625,64.4707535 369.069434,64.1596191 C369.082617,63.8484848 369.093164,63.6678713 369.101074,63.6177734 L369.069434,63.6177734 C368.971875,63.8339855 368.854542,64.0449208 368.717432,64.2505859 L367.657471,65.8523926 L369.049658,65.8523926 Z M371.529492,67.4344238 C371.529492,67.2129383 371.588818,67.0455084 371.707471,66.9321289 C371.826124,66.8187494 371.998827,66.7620605 372.225586,66.7620605 C372.444435,66.7620605 372.613842,66.8200678 372.733813,66.936084 C372.853785,67.0521002 372.91377,67.2182118 372.91377,67.4344238 C372.91377,67.6427257 372.853126,67.8068598 372.731836,67.9268311 C372.610546,68.0468024 372.441798,68.1067871 372.225586,68.1067871 C372.0041,68.1067871 371.832715,68.0481207 371.711426,67.9307861 C371.590136,67.8134516 371.529492,67.6479991 371.529492,67.4344238 Z M377.711279,65.1088379 C377.711279,66.1187062 377.545827,66.8662085 377.214917,67.3513672 C376.884007,67.8365259 376.374466,68.0791016 375.686279,68.0791016 C375.019186,68.0791016 374.516237,67.8286158 374.177417,67.3276367 C373.838597,66.8266577 373.669189,66.0870654 373.669189,65.1088379 C373.669189,64.0884226 373.833983,63.3363061 374.163574,62.8524658 C374.493166,62.3686255 375.000729,62.126709 375.686279,62.126709 C376.353372,62.126709 376.85764,62.3798315 377.199097,62.886084 C377.540553,63.3923365 377.711279,64.1332471 377.711279,65.1088379 Z M374.883398,65.1088379 C374.883398,65.8181188 374.944702,66.3263412 375.06731,66.6335205 C375.189918,66.9406998 375.396239,67.0942871 375.686279,67.0942871 C375.971046,67.0942871 376.176708,66.9387223 376.303271,66.6275879 C376.429835,66.3164535 376.493115,65.8102086 376.493115,65.1088379 C376.493115,64.399557 376.429175,63.8900162 376.301294,63.5802002 C376.173412,63.2703842 375.96841,63.1154785 375.686279,63.1154785 C375.398876,63.1154785 375.193214,63.2703842 375.069287,63.5802002 C374.945361,63.8900162 374.883398,64.399557 374.883398,65.1088379 Z" id="4.0-copy-3" fill="#9B9B9B"></path>
                <path d="M258.809668,68 L254.767578,68 L254.767578,67.1496582 L256.219092,65.6823242 C256.648879,65.24199 256.929687,64.9367928 257.061523,64.7667236 C257.19336,64.5966544 257.288281,64.4391121 257.346289,64.2940918 C257.404297,64.1490715 257.433301,63.9987801 257.433301,63.8432129 C257.433301,63.6111805 257.369361,63.4384771 257.241479,63.3250977 C257.113598,63.2117182 256.942872,63.1550293 256.729297,63.1550293 C256.505175,63.1550293 256.287648,63.2064448 256.076709,63.3092773 C255.86577,63.4121099 255.645607,63.5584463 255.416211,63.748291 L254.751758,62.9612305 C255.036525,62.7186511 255.272509,62.5472661 255.459717,62.4470703 C255.646925,62.3468745 255.851268,62.2697512 256.072754,62.2156982 C256.294239,62.1616452 256.542088,62.1346191 256.816309,62.1346191 C257.177541,62.1346191 257.496581,62.2005365 257.773438,62.332373 C258.050294,62.4642096 258.265185,62.6487781 258.418115,62.886084 C258.571046,63.1233899 258.64751,63.3949692 258.64751,63.7008301 C258.64751,63.96714 258.600708,64.2169666 258.507104,64.4503174 C258.413501,64.6836682 258.268482,64.922948 258.072046,65.1681641 C257.875609,65.4133801 257.529543,65.7627419 257.033838,66.2162598 L256.290283,66.9163086 L256.290283,66.9716797 L258.809668,66.9716797 L258.809668,68 Z M259.529492,67.4344238 C259.529492,67.2129383 259.588818,67.0455084 259.707471,66.9321289 C259.826124,66.8187494 259.998827,66.7620605 260.225586,66.7620605 C260.444435,66.7620605 260.613842,66.8200678 260.733813,66.936084 C260.853785,67.0521002 260.91377,67.2182118 260.91377,67.4344238 C260.91377,67.6427257 260.853126,67.8068598 260.731836,67.9268311 C260.610546,68.0468024 260.441798,68.1067871 260.225586,68.1067871 C260.0041,68.1067871 259.832715,68.0481207 259.711426,67.9307861 C259.590136,67.8134516 259.529492,67.6479991 259.529492,67.4344238 Z M265.711279,65.1088379 C265.711279,66.1187062 265.545827,66.8662085 265.214917,67.3513672 C264.884007,67.8365259 264.374466,68.0791016 263.686279,68.0791016 C263.019186,68.0791016 262.516237,67.8286158 262.177417,67.3276367 C261.838597,66.8266577 261.669189,66.0870654 261.669189,65.1088379 C261.669189,64.0884226 261.833983,63.3363061 262.163574,62.8524658 C262.493166,62.3686255 263.000729,62.126709 263.686279,62.126709 C264.353372,62.126709 264.85764,62.3798315 265.199097,62.886084 C265.540553,63.3923365 265.711279,64.1332471 265.711279,65.1088379 Z M262.883398,65.1088379 C262.883398,65.8181188 262.944702,66.3263412 263.06731,66.6335205 C263.189918,66.9406998 263.396239,67.0942871 263.686279,67.0942871 C263.971046,67.0942871 264.176708,66.9387223 264.303271,66.6275879 C264.429835,66.3164535 264.493115,65.8102086 264.493115,65.1088379 C264.493115,64.399557 264.429175,63.8900162 264.301294,63.5802002 C264.173412,63.2703842 263.96841,63.1154785 263.686279,63.1154785 C263.398876,63.1154785 263.193214,63.2703842 263.069287,63.5802002 C262.945361,63.8900162 262.883398,64.399557 262.883398,65.1088379 Z" id="2.0-copy-3" fill="#9B9B9B"></path>
                <path d="M201.789258,68 L200.567139,68 L200.567139,64.6540039 L200.579004,64.104248 L200.598779,63.5030762 C200.395751,63.7061045 200.254688,63.8392575 200.175586,63.9025391 L199.511133,64.4364746 L198.921826,63.7008301 L200.784668,62.2176758 L201.789258,62.2176758 L201.789258,68 Z M203.529492,67.4344238 C203.529492,67.2129383 203.588818,67.0455084 203.707471,66.9321289 C203.826124,66.8187494 203.998827,66.7620605 204.225586,66.7620605 C204.444435,66.7620605 204.613842,66.8200678 204.733813,66.936084 C204.853785,67.0521002 204.91377,67.2182118 204.91377,67.4344238 C204.91377,67.6427257 204.853126,67.8068598 204.731836,67.9268311 C204.610546,68.0468024 204.441798,68.1067871 204.225586,68.1067871 C204.0041,68.1067871 203.832715,68.0481207 203.711426,67.9307861 C203.590136,67.8134516 203.529492,67.6479991 203.529492,67.4344238 Z M209.711279,65.1088379 C209.711279,66.1187062 209.545827,66.8662085 209.214917,67.3513672 C208.884007,67.8365259 208.374466,68.0791016 207.686279,68.0791016 C207.019186,68.0791016 206.516237,67.8286158 206.177417,67.3276367 C205.838597,66.8266577 205.669189,66.0870654 205.669189,65.1088379 C205.669189,64.0884226 205.833983,63.3363061 206.163574,62.8524658 C206.493166,62.3686255 207.000729,62.126709 207.686279,62.126709 C208.353372,62.126709 208.85764,62.3798315 209.199097,62.886084 C209.540553,63.3923365 209.711279,64.1332471 209.711279,65.1088379 Z M206.883398,65.1088379 C206.883398,65.8181188 206.944702,66.3263412 207.06731,66.6335205 C207.189918,66.9406998 207.396239,67.0942871 207.686279,67.0942871 C207.971046,67.0942871 208.176708,66.9387223 208.303271,66.6275879 C208.429835,66.3164535 208.493115,65.8102086 208.493115,65.1088379 C208.493115,64.399557 208.429175,63.8900162 208.301294,63.5802002 C208.173412,63.2703842 207.96841,63.1154785 207.686279,63.1154785 C207.398876,63.1154785 207.193214,63.2703842 207.069287,63.5802002 C206.945361,63.8900162 206.883398,64.399557 206.883398,65.1088379 Z" id="1.0-copy-3" fill="#9B9B9B"></path>
                <path d="M151.976123,99.1009277 C151.976123,100.058061 151.738821,100.793699 151.264209,101.307861 C150.789597,101.822024 150.109331,102.079102 149.223389,102.079102 C148.337447,102.079102 147.65718,101.822024 147.182568,101.307861 C146.707957,100.793699 146.470654,100.055425 146.470654,99.0930176 C146.470654,98.1306104 146.708616,97.3956324 147.184546,96.8880615 C147.660476,96.3804906 148.34272,96.126709 149.231299,96.126709 C150.119877,96.126709 150.799485,96.3824681 151.270142,96.8939941 C151.740798,97.4055201 151.976123,98.1411573 151.976123,99.1009277 Z M147.756055,99.1009277 C147.756055,99.7469271 147.878661,100.233397 148.123877,100.560352 C148.369093,100.887306 148.735593,101.050781 149.223389,101.050781 C150.201616,101.050781 150.690723,100.400837 150.690723,99.1009277 C150.690723,97.7983822 150.204253,97.1471191 149.231299,97.1471191 C148.743503,97.1471191 148.375685,97.3112532 148.127832,97.6395264 C147.879979,97.9677995 147.756055,98.4549284 147.756055,99.1009277 Z M156.212012,102 L156.049854,101.434424 L155.986572,101.434424 C155.857372,101.640089 155.674122,101.79895 155.436816,101.911011 C155.199511,102.023072 154.92925,102.079102 154.626025,102.079102 C154.106589,102.079102 153.71504,101.940016 153.451367,101.661841 C153.187694,101.383666 153.055859,100.983548 153.055859,100.461475 L153.055859,97.5782227 L154.262158,97.5782227 L154.262158,100.160889 C154.262158,100.479933 154.318847,100.719213 154.432227,100.878735 C154.545606,101.038258 154.726219,101.118018 154.974072,101.118018 C155.311574,101.118018 155.555468,101.005299 155.705762,100.779858 C155.856055,100.554418 155.931201,100.180667 155.931201,99.6585937 L155.931201,97.5782227 L157.1375,97.5782227 L157.1375,102 L156.212012,102 Z M160.265967,101.118018 C160.476905,101.118018 160.730028,101.071875 161.025342,100.97959 L161.025342,101.877393 C160.724754,102.011866 160.355617,102.079102 159.91792,102.079102 C159.435398,102.079102 159.084059,101.957155 158.863892,101.713257 C158.643724,101.469359 158.533643,101.103518 158.533643,100.615723 L158.533643,98.4839355 L157.956201,98.4839355 L157.956201,97.9737305 L158.620654,97.5703125 L158.968701,96.6369141 L159.739941,96.6369141 L159.739941,97.5782227 L160.977881,97.5782227 L160.977881,98.4839355 L159.739941,98.4839355 L159.739941,100.615723 C159.739941,100.78711 159.788061,100.913671 159.884302,100.99541 C159.980542,101.077149 160.107763,101.118018 160.265967,101.118018 Z" id="Out-Copy-11" fill="#FFFFFF"></path>
                <text id="Care-Team-Copy-3" font-family="OpenSans-Bold, Open Sans" font-size="12.6" font-weight="bold" fill="#9B9B9B">
                    <tspan x="25" y="26">Care Team</tspan>
                </text>
                <path d="M0.898178352,42.5 L445.813082,42.5" id="Line-Copy-4" stroke="#E6E6E6" stroke-width="0.9" stroke-linecap="square"></path>
                <rect id="Rectangle-3-Copy-63" fill="#E6E6E6" x="21" y="74" width="112" height="14"></rect>
                <rect id="Rectangle-3-Copy-64" fill="#E6E6E6" x="21" y="12" width="112" height="21"></rect>
                <text id="Team-McKinney-Copy-12" font-family="OpenSans-Semibold, Open Sans" font-size="9.9" font-weight="500" fill="#656262">
                    <tspan x="21" y="130">Team McKinney</tspan>
                </text>
                <rect id="Rectangle-3-Copy-65" fill="#F7F7F7" x="142" y="119" width="287" height="14"></rect>
                <rect id="Rectangle-3-Copy-66" fill="#AF8DD8" x="142" y="119" width="137" height="14"></rect>
                <rect id="Rectangle-3-Copy-67" fill="#F7F7F7" x="142" y="137" width="287" height="14"></rect>
                <rect id="Rectangle-3-Copy-68" fill="#5DC9E3" x="142" y="137" width="229" height="14"></rect>
                <path d="M146.727734,129 L146.727734,123.217676 L147.953809,123.217676 L147.953809,129 L146.727734,129 Z M153.395996,129 L152.189697,129 L152.189697,126.417334 C152.189697,126.098289 152.133008,125.85901 152.019629,125.699487 C151.906249,125.539965 151.725636,125.460205 151.477783,125.460205 C151.140282,125.460205 150.896387,125.572924 150.746094,125.798364 C150.5958,126.023805 150.520654,126.397556 150.520654,126.919629 L150.520654,129 L149.314355,129 L149.314355,124.578223 L150.235889,124.578223 L150.398047,125.143799 L150.465283,125.143799 C150.599757,124.930224 150.784984,124.768726 151.020972,124.659302 C151.256959,124.549877 151.525243,124.495166 151.82583,124.495166 C152.339993,124.495166 152.730223,124.634252 152.996533,124.912427 C153.262843,125.190602 153.395996,125.592038 153.395996,126.116748 L153.395996,129 Z" id="In-Copy-12" fill="#FFFFFF"></path>
                <path d="M151.976123,144.100928 C151.976123,145.058061 151.738821,145.793699 151.264209,146.307861 C150.789597,146.822024 150.109331,147.079102 149.223389,147.079102 C148.337447,147.079102 147.65718,146.822024 147.182568,146.307861 C146.707957,145.793699 146.470654,145.055425 146.470654,144.093018 C146.470654,143.13061 146.708616,142.395632 147.184546,141.888062 C147.660476,141.380491 148.34272,141.126709 149.231299,141.126709 C150.119877,141.126709 150.799485,141.382468 151.270142,141.893994 C151.740798,142.40552 151.976123,143.141157 151.976123,144.100928 Z M147.756055,144.100928 C147.756055,144.746927 147.878661,145.233397 148.123877,145.560352 C148.369093,145.887306 148.735593,146.050781 149.223389,146.050781 C150.201616,146.050781 150.690723,145.400837 150.690723,144.100928 C150.690723,142.798382 150.204253,142.147119 149.231299,142.147119 C148.743503,142.147119 148.375685,142.311253 148.127832,142.639526 C147.879979,142.967799 147.756055,143.454928 147.756055,144.100928 Z M156.212012,147 L156.049854,146.434424 L155.986572,146.434424 C155.857372,146.640089 155.674122,146.79895 155.436816,146.911011 C155.199511,147.023072 154.92925,147.079102 154.626025,147.079102 C154.106589,147.079102 153.71504,146.940016 153.451367,146.661841 C153.187694,146.383666 153.055859,145.983548 153.055859,145.461475 L153.055859,142.578223 L154.262158,142.578223 L154.262158,145.160889 C154.262158,145.479933 154.318847,145.719213 154.432227,145.878735 C154.545606,146.038258 154.726219,146.118018 154.974072,146.118018 C155.311574,146.118018 155.555468,146.005299 155.705762,145.779858 C155.856055,145.554418 155.931201,145.180667 155.931201,144.658594 L155.931201,142.578223 L157.1375,142.578223 L157.1375,147 L156.212012,147 Z M160.265967,146.118018 C160.476905,146.118018 160.730028,146.071875 161.025342,145.97959 L161.025342,146.877393 C160.724754,147.011866 160.355617,147.079102 159.91792,147.079102 C159.435398,147.079102 159.084059,146.957155 158.863892,146.713257 C158.643724,146.469359 158.533643,146.103518 158.533643,145.615723 L158.533643,143.483936 L157.956201,143.483936 L157.956201,142.97373 L158.620654,142.570312 L158.968701,141.636914 L159.739941,141.636914 L159.739941,142.578223 L160.977881,142.578223 L160.977881,143.483936 L159.739941,143.483936 L159.739941,145.615723 C159.739941,145.78711 159.788061,145.913671 159.884302,145.99541 C159.980542,146.077149 160.107763,146.118018 160.265967,146.118018 Z" id="Out-Copy-12" fill="#FFFFFF"></path>
                <rect id="Rectangle-3-Copy-69" fill="#E6E6E6" x="21" y="119" width="112" height="14"></rect>
                <text id="Team-McKinney-Copy-13" font-family="OpenSans-Semibold, Open Sans" font-size="9.9" font-weight="500" fill="#656262">
                    <tspan x="21" y="174">Team McKinney</tspan>
                </text>
                <rect id="Rectangle-3-Copy-70" fill="#F7F7F7" x="142" y="163" width="287" height="14"></rect>
                <rect id="Rectangle-3-Copy-71" fill="#AF8DD8" x="142" y="163" width="180" height="14"></rect>
                <rect id="Rectangle-3-Copy-72" fill="#F7F7F7" x="142" y="181" width="287" height="14"></rect>
                <rect id="Rectangle-3-Copy-73" fill="#5DC9E3" x="142" y="181" width="247.634961" height="14"></rect>
                <path d="M146.727734,173 L146.727734,167.217676 L147.953809,167.217676 L147.953809,173 L146.727734,173 Z M153.395996,173 L152.189697,173 L152.189697,170.417334 C152.189697,170.098289 152.133008,169.85901 152.019629,169.699487 C151.906249,169.539965 151.725636,169.460205 151.477783,169.460205 C151.140282,169.460205 150.896387,169.572924 150.746094,169.798364 C150.5958,170.023805 150.520654,170.397556 150.520654,170.919629 L150.520654,173 L149.314355,173 L149.314355,168.578223 L150.235889,168.578223 L150.398047,169.143799 L150.465283,169.143799 C150.599757,168.930224 150.784984,168.768726 151.020972,168.659302 C151.256959,168.549877 151.525243,168.495166 151.82583,168.495166 C152.339993,168.495166 152.730223,168.634252 152.996533,168.912427 C153.262843,169.190602 153.395996,169.592038 153.395996,170.116748 L153.395996,173 Z" id="In-Copy-13" fill="#FFFFFF"></path>
                <path d="M151.976123,188.100928 C151.976123,189.058061 151.738821,189.793699 151.264209,190.307861 C150.789597,190.822024 150.109331,191.079102 149.223389,191.079102 C148.337447,191.079102 147.65718,190.822024 147.182568,190.307861 C146.707957,189.793699 146.470654,189.055425 146.470654,188.093018 C146.470654,187.13061 146.708616,186.395632 147.184546,185.888062 C147.660476,185.380491 148.34272,185.126709 149.231299,185.126709 C150.119877,185.126709 150.799485,185.382468 151.270142,185.893994 C151.740798,186.40552 151.976123,187.141157 151.976123,188.100928 Z M147.756055,188.100928 C147.756055,188.746927 147.878661,189.233397 148.123877,189.560352 C148.369093,189.887306 148.735593,190.050781 149.223389,190.050781 C150.201616,190.050781 150.690723,189.400837 150.690723,188.100928 C150.690723,186.798382 150.204253,186.147119 149.231299,186.147119 C148.743503,186.147119 148.375685,186.311253 148.127832,186.639526 C147.879979,186.967799 147.756055,187.454928 147.756055,188.100928 Z M156.212012,191 L156.049854,190.434424 L155.986572,190.434424 C155.857372,190.640089 155.674122,190.79895 155.436816,190.911011 C155.199511,191.023072 154.92925,191.079102 154.626025,191.079102 C154.106589,191.079102 153.71504,190.940016 153.451367,190.661841 C153.187694,190.383666 153.055859,189.983548 153.055859,189.461475 L153.055859,186.578223 L154.262158,186.578223 L154.262158,189.160889 C154.262158,189.479933 154.318847,189.719213 154.432227,189.878735 C154.545606,190.038258 154.726219,190.118018 154.974072,190.118018 C155.311574,190.118018 155.555468,190.005299 155.705762,189.779858 C155.856055,189.554418 155.931201,189.180667 155.931201,188.658594 L155.931201,186.578223 L157.1375,186.578223 L157.1375,191 L156.212012,191 Z M160.265967,190.118018 C160.476905,190.118018 160.730028,190.071875 161.025342,189.97959 L161.025342,190.877393 C160.724754,191.011866 160.355617,191.079102 159.91792,191.079102 C159.435398,191.079102 159.084059,190.957155 158.863892,190.713257 C158.643724,190.469359 158.533643,190.103518 158.533643,189.615723 L158.533643,187.483936 L157.956201,187.483936 L157.956201,186.97373 L158.620654,186.570312 L158.968701,185.636914 L159.739941,185.636914 L159.739941,186.578223 L160.977881,186.578223 L160.977881,187.483936 L159.739941,187.483936 L159.739941,189.615723 C159.739941,189.78711 159.788061,189.913671 159.884302,189.99541 C159.980542,190.077149 160.107763,190.118018 160.265967,190.118018 Z" id="Out-Copy-13" fill="#FFFFFF"></path>
                <rect id="Rectangle-3-Copy-74" fill="#E6E6E6" x="21" y="163" width="112" height="14"></rect>
                <text id="Team-McKinney-Copy-14" font-family="OpenSans-Semibold, Open Sans" font-size="9.9" font-weight="500" fill="#656262">
                    <tspan x="21" y="219">Team McKinney</tspan>
                </text>
                <rect id="Rectangle-3-Copy-75" fill="#F7F7F7" x="142" y="208" width="287" height="14"></rect>
                <rect id="Rectangle-3-Copy-76" fill="#AF8DD8" x="142" y="208" width="137" height="14"></rect>
                <rect id="Rectangle-3-Copy-77" fill="#F7F7F7" x="142" y="226" width="287" height="14"></rect>
                <rect id="Rectangle-3-Copy-78" fill="#5DC9E3" x="142" y="226" width="211" height="14"></rect>
                <path d="M146.727734,218 L146.727734,212.217676 L147.953809,212.217676 L147.953809,218 L146.727734,218 Z M153.395996,218 L152.189697,218 L152.189697,215.417334 C152.189697,215.098289 152.133008,214.85901 152.019629,214.699487 C151.906249,214.539965 151.725636,214.460205 151.477783,214.460205 C151.140282,214.460205 150.896387,214.572924 150.746094,214.798364 C150.5958,215.023805 150.520654,215.397556 150.520654,215.919629 L150.520654,218 L149.314355,218 L149.314355,213.578223 L150.235889,213.578223 L150.398047,214.143799 L150.465283,214.143799 C150.599757,213.930224 150.784984,213.768726 151.020972,213.659302 C151.256959,213.549877 151.525243,213.495166 151.82583,213.495166 C152.339993,213.495166 152.730223,213.634252 152.996533,213.912427 C153.262843,214.190602 153.395996,214.592038 153.395996,215.116748 L153.395996,218 Z" id="In-Copy-14" fill="#FFFFFF"></path>
                <path d="M151.976123,233.100928 C151.976123,234.058061 151.738821,234.793699 151.264209,235.307861 C150.789597,235.822024 150.109331,236.079102 149.223389,236.079102 C148.337447,236.079102 147.65718,235.822024 147.182568,235.307861 C146.707957,234.793699 146.470654,234.055425 146.470654,233.093018 C146.470654,232.13061 146.708616,231.395632 147.184546,230.888062 C147.660476,230.380491 148.34272,230.126709 149.231299,230.126709 C150.119877,230.126709 150.799485,230.382468 151.270142,230.893994 C151.740798,231.40552 151.976123,232.141157 151.976123,233.100928 Z M147.756055,233.100928 C147.756055,233.746927 147.878661,234.233397 148.123877,234.560352 C148.369093,234.887306 148.735593,235.050781 149.223389,235.050781 C150.201616,235.050781 150.690723,234.400837 150.690723,233.100928 C150.690723,231.798382 150.204253,231.147119 149.231299,231.147119 C148.743503,231.147119 148.375685,231.311253 148.127832,231.639526 C147.879979,231.967799 147.756055,232.454928 147.756055,233.100928 Z M156.212012,236 L156.049854,235.434424 L155.986572,235.434424 C155.857372,235.640089 155.674122,235.79895 155.436816,235.911011 C155.199511,236.023072 154.92925,236.079102 154.626025,236.079102 C154.106589,236.079102 153.71504,235.940016 153.451367,235.661841 C153.187694,235.383666 153.055859,234.983548 153.055859,234.461475 L153.055859,231.578223 L154.262158,231.578223 L154.262158,234.160889 C154.262158,234.479933 154.318847,234.719213 154.432227,234.878735 C154.545606,235.038258 154.726219,235.118018 154.974072,235.118018 C155.311574,235.118018 155.555468,235.005299 155.705762,234.779858 C155.856055,234.554418 155.931201,234.180667 155.931201,233.658594 L155.931201,231.578223 L157.1375,231.578223 L157.1375,236 L156.212012,236 Z M160.265967,235.118018 C160.476905,235.118018 160.730028,235.071875 161.025342,234.97959 L161.025342,235.877393 C160.724754,236.011866 160.355617,236.079102 159.91792,236.079102 C159.435398,236.079102 159.084059,235.957155 158.863892,235.713257 C158.643724,235.469359 158.533643,235.103518 158.533643,234.615723 L158.533643,232.483936 L157.956201,232.483936 L157.956201,231.97373 L158.620654,231.570312 L158.968701,230.636914 L159.739941,230.636914 L159.739941,231.578223 L160.977881,231.578223 L160.977881,232.483936 L159.739941,232.483936 L159.739941,234.615723 C159.739941,234.78711 159.788061,234.913671 159.884302,234.99541 C159.980542,235.077149 160.107763,235.118018 160.265967,235.118018 Z" id="Out-Copy-14" fill="#FFFFFF"></path>
                <rect id="Rectangle-3-Copy-79" fill="#E6E6E6" x="21" y="208" width="112" height="14"></rect>
                <text id="Team-McKinney-Copy-15" font-family="OpenSans-Semibold, Open Sans" font-size="9.9" font-weight="500" fill="#656262">
                    <tspan x="21" y="263">Team McKinney</tspan>
                </text>
                <rect id="Rectangle-3-Copy-80" fill="#F7F7F7" x="142" y="252" width="287" height="14"></rect>
                <rect id="Rectangle-3-Copy-81" fill="#AF8DD8" x="142" y="252" width="112" height="14"></rect>
                <rect id="Rectangle-3-Copy-82" fill="#F7F7F7" x="142" y="270" width="287" height="14"></rect>
                <rect id="Rectangle-3-Copy-83" fill="#5DC9E3" x="142" y="270" width="253.650386" height="14"></rect>
                <path d="M146.727734,262 L146.727734,256.217676 L147.953809,256.217676 L147.953809,262 L146.727734,262 Z M153.395996,262 L152.189697,262 L152.189697,259.417334 C152.189697,259.098289 152.133008,258.85901 152.019629,258.699487 C151.906249,258.539965 151.725636,258.460205 151.477783,258.460205 C151.140282,258.460205 150.896387,258.572924 150.746094,258.798364 C150.5958,259.023805 150.520654,259.397556 150.520654,259.919629 L150.520654,262 L149.314355,262 L149.314355,257.578223 L150.235889,257.578223 L150.398047,258.143799 L150.465283,258.143799 C150.599757,257.930224 150.784984,257.768726 151.020972,257.659302 C151.256959,257.549877 151.525243,257.495166 151.82583,257.495166 C152.339993,257.495166 152.730223,257.634252 152.996533,257.912427 C153.262843,258.190602 153.395996,258.592038 153.395996,259.116748 L153.395996,262 Z" id="In-Copy-15" fill="#FFFFFF"></path>
                <path d="M151.976123,277.100928 C151.976123,278.058061 151.738821,278.793699 151.264209,279.307861 C150.789597,279.822024 150.109331,280.079102 149.223389,280.079102 C148.337447,280.079102 147.65718,279.822024 147.182568,279.307861 C146.707957,278.793699 146.470654,278.055425 146.470654,277.093018 C146.470654,276.13061 146.708616,275.395632 147.184546,274.888062 C147.660476,274.380491 148.34272,274.126709 149.231299,274.126709 C150.119877,274.126709 150.799485,274.382468 151.270142,274.893994 C151.740798,275.40552 151.976123,276.141157 151.976123,277.100928 Z M147.756055,277.100928 C147.756055,277.746927 147.878661,278.233397 148.123877,278.560352 C148.369093,278.887306 148.735593,279.050781 149.223389,279.050781 C150.201616,279.050781 150.690723,278.400837 150.690723,277.100928 C150.690723,275.798382 150.204253,275.147119 149.231299,275.147119 C148.743503,275.147119 148.375685,275.311253 148.127832,275.639526 C147.879979,275.967799 147.756055,276.454928 147.756055,277.100928 Z M156.212012,280 L156.049854,279.434424 L155.986572,279.434424 C155.857372,279.640089 155.674122,279.79895 155.436816,279.911011 C155.199511,280.023072 154.92925,280.079102 154.626025,280.079102 C154.106589,280.079102 153.71504,279.940016 153.451367,279.661841 C153.187694,279.383666 153.055859,278.983548 153.055859,278.461475 L153.055859,275.578223 L154.262158,275.578223 L154.262158,278.160889 C154.262158,278.479933 154.318847,278.719213 154.432227,278.878735 C154.545606,279.038258 154.726219,279.118018 154.974072,279.118018 C155.311574,279.118018 155.555468,279.005299 155.705762,278.779858 C155.856055,278.554418 155.931201,278.180667 155.931201,277.658594 L155.931201,275.578223 L157.1375,275.578223 L157.1375,280 L156.212012,280 Z M160.265967,279.118018 C160.476905,279.118018 160.730028,279.071875 161.025342,278.97959 L161.025342,279.877393 C160.724754,280.011866 160.355617,280.079102 159.91792,280.079102 C159.435398,280.079102 159.084059,279.957155 158.863892,279.713257 C158.643724,279.469359 158.533643,279.103518 158.533643,278.615723 L158.533643,276.483936 L157.956201,276.483936 L157.956201,275.97373 L158.620654,275.570312 L158.968701,274.636914 L159.739941,274.636914 L159.739941,275.578223 L160.977881,275.578223 L160.977881,276.483936 L159.739941,276.483936 L159.739941,278.615723 C159.739941,278.78711 159.788061,278.913671 159.884302,278.99541 C159.980542,279.077149 160.107763,279.118018 160.265967,279.118018 Z" id="Out-Copy-15" fill="#FFFFFF"></path>
                <rect id="Rectangle-3-Copy-84" fill="#E6E6E6" x="21" y="252" width="112" height="14"></rect>
                <path d="M442.5,167.5 L442.5,201.5" id="Line-Copy-5" stroke="#979797" stroke-width="3" stroke-linecap="round"></path>
            </g>
        </g>
    </g>
</svg>