<?xml version="1.0" encoding="UTF-8"?>
<svg width="65px" height="65px" viewBox="0 0 65 65" version="1.1" xmlns="http://www.w3.org/2000/svg" xmlns:xlink="http://www.w3.org/1999/xlink">
    <!-- Generator: Sketch 43.1 (39012) - http://www.bohemiancoding.com/sketch -->
    <title>Group 6</title>
    <desc>Created with Sketch.</desc>
    <defs></defs>
    <g id="Marketing" stroke="none" stroke-width="1" fill="none" fill-rule="evenodd">
        <g id="Artboard-2" transform="translate(-576.000000, -852.000000)" fill-rule="nonzero" fill="#F2C96E">
            <g id="Group-6" transform="translate(576.000000, 852.000000)">
                <g id="0142-star" opacity="0.300215127" transform="translate(21.000000, 21.000000)">
                    <path d="M22.1217949,24.6153846 C21.9966923,24.6153846 21.8715897,24.5864253 21.7571667,24.5270588 L13.7307692,20.3728507 L5.70437179,24.5270588 C5.4480641,24.6602715 5.13530769,24.641448 4.89730769,24.480724 C4.65930769,24.32 4.53878205,24.0448869 4.58760256,23.7712217 L6.04916667,15.4512217 L0.224269231,9.92289593 C0.0228846154,9.73176471 -0.0503461538,9.4479638 0.0366153846,9.19022624 C0.123576923,8.93248869 0.355474359,8.74135747 0.637717949,8.69647059 L9.40862821,7.30932127 L13.0488077,0.399638009 C13.1784872,0.154932127 13.4424231,9.09494702e-13 13.7307692,9.09494702e-13 C14.0191154,9.09494702e-13 14.2845769,0.154932127 14.4127308,0.399638009 L18.0529103,7.30932127 L26.8238205,8.69647059 C27.1060641,8.74135747 27.3379615,8.93104072 27.4249231,9.19022624 C27.5118846,9.44941176 27.4401795,9.73176471 27.2372692,9.92289593 L21.4123718,15.4512217 L22.8739359,23.7712217 C22.9212308,24.0448869 22.8007051,24.32 22.5642308,24.480724 C22.4330256,24.5690498 22.2774103,24.6153846 22.1217949,24.6153846 L22.1217949,24.6153846 Z" id="Shape"></path>
                </g>
                <path d="M32.5,64.5 C14.832197,64.5 0.5,50.1789912 0.5,32.5 C0.5,14.8210088 14.832197,0.5 32.5,0.5 C50.167803,0.5 64.5,14.8210088 64.5,32.5 C64.5,50.1789912 50.167803,64.5 32.5,64.5 Z M32.5,63.4508197 C49.6261363,63.4508197 63.5,49.5877865 63.5,32.5 C63.5,15.4122135 49.6261363,1.54918033 32.5,1.54918033 C15.3738637,1.54918033 1.5,15.4122135 1.5,32.5 C1.5,49.5877865 15.3738637,63.4508197 32.5,63.4508197 Z" id="Oval"></path>
                <g id="0142-star" opacity="0.65" transform="translate(19.000000, 19.000000)">
                    <path d="M22.1217949,24.6153846 C21.9966923,24.6153846 21.8715897,24.5864253 21.7571667,24.5270588 L13.7307692,20.3728507 L5.70437179,24.5270588 C5.4480641,24.6602715 5.13530769,24.641448 4.89730769,24.480724 C4.65930769,24.32 4.53878205,24.0448869 4.58760256,23.7712217 L6.04916667,15.4512217 L0.224269231,9.92289593 C0.0228846154,9.73176471 -0.0503461538,9.4479638 0.0366153846,9.19022624 C0.123576923,8.93248869 0.355474359,8.74135747 0.637717949,8.69647059 L9.40862821,7.30932127 L13.0488077,0.399638009 C13.1784872,0.154932127 13.4424231,9.09494702e-13 13.7307692,9.09494702e-13 C14.0191154,9.09494702e-13 14.2845769,0.154932127 14.4127308,0.399638009 L18.0529103,7.30932127 L26.8238205,8.69647059 C27.1060641,8.74135747 27.3379615,8.93104072 27.4249231,9.19022624 C27.5118846,9.44941176 27.4401795,9.73176471 27.2372692,9.92289593 L21.4123718,15.4512217 L22.8739359,23.7712217 C22.9212308,24.0448869 22.8007051,24.32 22.5642308,24.480724 C22.4330256,24.5690498 22.2774103,24.6153846 22.1217949,24.6153846 L22.1217949,24.6153846 Z M13.7307692,18.8235294 C13.8558718,18.8235294 13.9825,18.8524887 14.0953974,18.9118552 L21.1118205,22.5433484 L19.8440128,15.3223529 C19.8028205,15.0921267 19.8821538,14.8561086 20.0576026,14.6910407 L25.1120513,9.89393665 L17.4197692,8.67764706 C17.1787179,8.64 16.9727564,8.49375566 16.8629103,8.28669683 L13.7307692,2.34135747 L10.5986282,8.28669683 C10.4887821,8.49375566 10.2828205,8.63855204 10.0417692,8.67764706 L2.34948718,9.89393665 L7.4039359,14.6910407 C7.57785897,14.8561086 7.65719231,15.0906787 7.61752564,15.3223529 L6.34971795,22.5433484 L13.366141,18.9118552 C13.4805641,18.8524887 13.6056667,18.8235294 13.7307692,18.8235294 Z" id="Shape"></path>
                </g>
            </g>
        </g>
    </g>
</svg>