<?xml version="1.0" encoding="UTF-8"?>
<svg width="69px" height="69px" viewBox="0 0 69 69" version="1.1" xmlns="http://www.w3.org/2000/svg" xmlns:xlink="http://www.w3.org/1999/xlink">
    <!-- Generator: Sketch 43.1 (39012) - http://www.bohemiancoding.com/sketch -->
    <title>Group 5</title>
    <desc>Created with Sketch.</desc>
    <defs></defs>
    <g id="Marketing" stroke="none" stroke-width="1" fill="none" fill-rule="evenodd">
        <g id="Network-Management" transform="translate(-956.000000, -632.000000)">
            <g id="Group-5" transform="translate(956.000000, 632.000000)">
                <circle id="Oval-2" fill="#C8EDF6" cx="36.7974281" cy="35.4638427" r="5.26928895"></circle>
                <circle id="Oval-2-Copy" fill="#C8EDF6" cx="45.9308623" cy="18.602118" r="3.86414523"></circle>
                <circle id="Oval-2-Copy-2" fill="#C8EDF6" cx="55.0642965" cy="41.0844176" r="3.86414523"></circle>
                <circle id="Oval-2-Copy-3" fill="#C8EDF6" cx="38.2025719" cy="55.1358548" r="3.86414523"></circle>
                <circle id="Oval-2-Copy-4" fill="#C8EDF6" cx="19.9357035" cy="44.5972769" r="3.86414523"></circle>
                <circle id="Oval-2-Copy-5" fill="#C8EDF6" cx="22.8641452" cy="22.8641452" r="3.86414523"></circle>
                <g id="Group-4" fill-rule="nonzero" fill="#5DC9E3">
                    <path d="M34.5,68.5 C15.7223185,68.5 0.5,53.2776815 0.5,34.5 C0.5,15.7223185 15.7223185,0.5 34.5,0.5 C53.2776815,0.5 68.5,15.7223185 68.5,34.5 C68.5,53.2776815 53.2776815,68.5 34.5,68.5 Z M34.5,67.5 C52.7253967,67.5 67.5,52.7253967 67.5,34.5 C67.5,16.2746033 52.7253967,1.5 34.5,1.5 C16.2746033,1.5 1.5,16.2746033 1.5,34.5 C1.5,52.7253967 16.2746033,67.5 34.5,67.5 Z" id="Oval-6-Copy-2"></path>
                    <path d="M34.7974281,40.2331316 C31.6111378,40.2331316 29.0281392,37.650133 29.0281392,34.4638427 C29.0281392,31.2775524 31.6111378,28.6945537 34.7974281,28.6945537 C37.9837184,28.6945537 40.5667171,31.2775524 40.5667171,34.4638427 C40.5667171,37.650133 37.9837184,40.2331316 34.7974281,40.2331316 Z M34.7974281,39.2331316 C37.4314337,39.2331316 39.5667171,37.0978482 39.5667171,34.4638427 C39.5667171,31.8298371 37.4314337,29.6945537 34.7974281,29.6945537 C32.1634226,29.6945537 30.0281392,31.8298371 30.0281392,34.4638427 C30.0281392,37.0978482 32.1634226,39.2331316 34.7974281,39.2331316 Z" id="Oval-2"></path>
                    <path d="M43.9308623,21.9662633 C41.5206115,21.9662633 39.5667171,20.0123689 39.5667171,17.602118 C39.5667171,15.1918672 41.5206115,13.2379728 43.9308623,13.2379728 C46.3411132,13.2379728 48.2950076,15.1918672 48.2950076,17.602118 C48.2950076,20.0123689 46.3411132,21.9662633 43.9308623,21.9662633 Z M43.9308623,20.9662633 C45.7888284,20.9662633 47.2950076,19.4600841 47.2950076,17.602118 C47.2950076,15.7441519 45.7888284,14.2379728 43.9308623,14.2379728 C42.0728962,14.2379728 40.5667171,15.7441519 40.5667171,17.602118 C40.5667171,19.4600841 42.0728962,20.9662633 43.9308623,20.9662633 Z" id="Oval-2-Copy"></path>
                    <path d="M53.0642965,44.4485628 C50.6540456,44.4485628 48.7001513,42.4946684 48.7001513,40.0844176 C48.7001513,37.6741667 50.6540456,35.7202723 53.0642965,35.7202723 C55.4745474,35.7202723 57.4284417,37.6741667 57.4284417,40.0844176 C57.4284417,42.4946684 55.4745474,44.4485628 53.0642965,44.4485628 Z M53.0642965,43.4485628 C54.9222626,43.4485628 56.4284417,41.9423837 56.4284417,40.0844176 C56.4284417,38.2264515 54.9222626,36.7202723 53.0642965,36.7202723 C51.2063304,36.7202723 49.7001513,38.2264515 49.7001513,40.0844176 C49.7001513,41.9423837 51.2063304,43.4485628 53.0642965,43.4485628 Z" id="Oval-2-Copy-2"></path>
                    <path d="M36.2025719,58.5 C33.792321,58.5 31.8384266,56.5461056 31.8384266,54.1358548 C31.8384266,51.7256039 33.792321,49.7717095 36.2025719,49.7717095 C38.6128227,49.7717095 40.5667171,51.7256039 40.5667171,54.1358548 C40.5667171,56.5461056 38.6128227,58.5 36.2025719,58.5 Z M36.2025719,57.5 C38.060538,57.5 39.5667171,55.9938209 39.5667171,54.1358548 C39.5667171,52.2778887 38.060538,50.7717095 36.2025719,50.7717095 C34.3446058,50.7717095 32.8384266,52.2778887 32.8384266,54.1358548 C32.8384266,55.9938209 34.3446058,57.5 36.2025719,57.5 Z" id="Oval-2-Copy-3"></path>
                    <path d="M17.9357035,47.9614221 C15.5254526,47.9614221 13.5715583,46.0075277 13.5715583,43.5972769 C13.5715583,41.187026 15.5254526,39.2331316 17.9357035,39.2331316 C20.3459544,39.2331316 22.2998487,41.187026 22.2998487,43.5972769 C22.2998487,46.0075277 20.3459544,47.9614221 17.9357035,47.9614221 Z M17.9357035,46.9614221 C19.7936696,46.9614221 21.2998487,45.455243 21.2998487,43.5972769 C21.2998487,41.7393108 19.7936696,40.2331316 17.9357035,40.2331316 C16.0777374,40.2331316 14.5715583,41.7393108 14.5715583,43.5972769 C14.5715583,45.455243 16.0777374,46.9614221 17.9357035,46.9614221 Z" id="Oval-2-Copy-4"></path>
                    <path d="M20.8641452,26.2282905 C18.4538944,26.2282905 16.5,24.2743961 16.5,21.8641452 C16.5,19.4538944 18.4538944,17.5 20.8641452,17.5 C23.2743961,17.5 25.2282905,19.4538944 25.2282905,21.8641452 C25.2282905,24.2743961 23.2743961,26.2282905 20.8641452,26.2282905 Z M20.8641452,25.2282905 C22.7221113,25.2282905 24.2282905,23.7221113 24.2282905,21.8641452 C24.2282905,20.0061791 22.7221113,18.5 20.8641452,18.5 C19.0061791,18.5 17.5,20.0061791 17.5,21.8641452 C17.5,23.7221113 19.0061791,25.2282905 20.8641452,25.2282905 Z" id="Oval-2-Copy-5"></path>
                    <polygon id="Line" points="36.736779 50.3836975 35.9632739 39.5064699 34.9657929 39.5774031 35.7392979 50.4546307"></polygon>
                    <polygon id="Line-Copy" points="21.224956 42.1603817 30.5502455 37.4977369 30.1030319 36.6033097 20.7777424 41.2659545"></polygon>
                    <polygon id="Line-Copy-3" points="37.7876695 30.2296646 43.2095436 20.9350234 42.3457647 20.4311524 36.9238906 29.7257936"></polygon>
                    <polygon id="Line-Copy-2" points="22.8534964 24.7059235 30.6600839 30.9511935 31.2847789 30.1703246 23.4781915 23.9250547"></polygon>
                    <polygon id="Line-Copy-4" points="39.7855475 36.1852142 49.1650931 39.3117294 49.4813209 38.3630461 40.1017753 35.2365309"></polygon>
                </g>
            </g>
        </g>
    </g>
</svg>