<?xml version="1.0" encoding="UTF-8"?>
<svg width="456px" height="424px" viewBox="0 0 456 424" version="1.1" xmlns="http://www.w3.org/2000/svg" xmlns:xlink="http://www.w3.org/1999/xlink">
    <!-- Generator: Sketch 43.1 (39012) - http://www.bohemiancoding.com/sketch -->
    <title>Group 11</title>
    <desc>Created with Sketch.</desc>
    <defs>
        <path d="M0,276.741613 C0,275.086969 1.34268413,273.745615 3.00760946,273.745615 L35.6361961,273.745615 L47.6472661,264 L59.1460943,273.745615 L387.000355,273.745615 C388.657013,273.745615 390,275.08354 390,276.741613 L390,403.749617 C390,405.404261 388.664292,406.745615 387.001845,406.745615 L2.99815456,406.745615 C1.34231952,406.745615 0,405.40769 0,403.749617 L0,276.741613 Z" id="path-1"></path>
        <filter x="-6.5%" y="-17.9%" width="113.1%" height="135.7%" filterUnits="objectBoundingBox" id="filter-2">
            <feOffset dx="0" dy="0" in="SourceAlpha" result="shadowOffsetOuter1"></feOffset>
            <feGaussianBlur stdDeviation="8.5" in="shadowOffsetOuter1" result="shadowBlurOuter1"></feGaussianBlur>
            <feComposite in="shadowBlurOuter1" in2="SourceAlpha" operator="out" result="shadowBlurOuter1"></feComposite>
            <feColorMatrix values="0 0 0 0 0.71372549   0 0 0 0 0.71372549   0 0 0 0 0.71372549  0 0 0 0.5 0" type="matrix" in="shadowBlurOuter1"></feColorMatrix>
        </filter>
    </defs>
    <g id="Marketing" stroke="none" stroke-width="1" fill="none" fill-rule="evenodd">
        <g id="Artboard-2" transform="translate(-157.000000, -790.000000)">
            <g id="Group-11" transform="translate(174.000000, 790.000000)">
                <g id="Group-6" opacity="0.0299999993" transform="translate(28.000000, 0.000000)" fill="#D40202">
                    <polygon id="Triangle-Copy-4" transform="translate(363.697298, 286.156369) rotate(-210.000000) translate(-363.697298, -286.156369) " points="363.697298 211.244443 461.392312 361.068296 266.002284 361.068296"></polygon>
                    <polygon id="Path-4-Copy-2" fill-rule="nonzero" points="317.373302 239.993828 343.539466 221.120535 243.462897 81.9899114 126.49851 153.987696 27.3553744 0.131023122 0.259490484 17.6394687 116.508419 198.042008 234.8151 125.21797"></polygon>
                </g>
                <g id="alarm" transform="translate(17.000000, 173.000000)" fill-rule="nonzero" fill="#5DC9E3">
                    <path d="M62.16,57.4820745 C57.3552,53.9804007 54.6,48.6280169 54.6,42.8027645 L54.6,30.5734032 C54.6,20.3292749 47.4852,11.6668107 37.8,9.0008099 L37.8,6.11468064 C37.8,2.74345338 34.9734,0 31.5,0 C28.0266,0 25.2,2.74345338 25.2,6.11468064 L25.2,9.0008099 C15.5148,11.6708871 8.4,20.3292749 8.4,30.5734032 L8.4,42.8027645 C8.4,48.6280169 5.6448,53.9763242 0.84,57.4820745 C0.1176,58.007937 -0.1764,58.9251391 0.1092,59.7567357 C0.3948,60.5883322 1.197,61.1508829 2.1,61.1508829 L21.21,61.1508829 C21.0714,61.8194213 20.9958,62.5001891 20.9958,63.1891097 C20.9958,68.806463 25.7082,73.3802441 31.4958,73.3802441 C37.2834,73.3802441 41.9958,68.806463 41.9958,63.1891097 C41.9958,62.5042655 41.9244,61.8194213 41.7858,61.1508829 L60.8958,61.1508829 C61.7988,61.1508829 62.601,60.5883322 62.8866,59.7567357 C63.1722,58.9251391 62.8782,58.007937 62.1558,57.4820745 L62.16,57.4820745 Z M29.4,6.11468064 C29.4,4.9895794 30.3408,4.07645376 31.5,4.07645376 C32.6592,4.07645376 33.6,4.9895794 33.6,6.11468064 L33.6,8.24666596 C32.907,8.18551915 32.2098,8.15290752 31.5,8.15290752 C30.7902,8.15290752 30.093,8.18551915 29.4,8.24666596 L29.4,6.11468064 Z M37.8,63.1850333 C37.8,66.5562606 34.9734,69.2997139 31.5,69.2997139 C28.0266,69.2997139 25.2,66.5562606 25.2,63.1850333 C25.2,62.4879597 25.326,61.799039 25.5612,61.1468064 L37.4388,61.1468064 C37.674,61.799039 37.8,62.4879597 37.8,63.1850333 Z M7.3164,57.0703526 C8.3874,55.8107284 9.3198,54.4369635 10.0842,52.9898224 C11.7558,49.8183414 12.6,46.3900438 12.6,42.8027645 L12.6,30.5734032 C12.6,20.4597214 21.0798,12.2293613 31.5,12.2293613 C41.9202,12.2293613 50.4,20.4597214 50.4,30.5734032 L50.4,42.8027645 C50.4,46.3900438 51.2484,49.8183414 52.9158,52.9898224 C53.6802,54.44104 54.6126,55.8107284 55.6836,57.0703526 L7.3122,57.0703526 L7.3164,57.0703526 Z" id="Shape"></path>
                </g>
                <g id="Rectangle-Copy-9">
                    <use fill="black" fill-opacity="1" filter="url(#filter-2)" xlink:href="#path-1"></use>
                    <use fill="#FFFFFF" fill-rule="evenodd" xlink:href="#path-1"></use>
                    <path stroke="#E6E6E6" stroke-width="1" d="M47.6403114,264.649527 L58.8228171,274.127049 L58.9627129,274.245615 L59.1460943,274.245615 L387.000355,274.245615 C388.382282,274.245615 389.5,275.361092 389.5,276.741613 L389.5,403.749617 C389.5,405.130494 388.385776,406.245615 387.001845,406.245615 L2.99815456,406.245615 C1.61710688,406.245615 0.5,405.130195 0.5,403.749617 L0.5,276.741613 C0.5,275.362114 1.61982965,274.245615 3.00760946,274.245615 L35.6361961,274.245615 L35.8135275,274.245615 L35.9512319,274.133884 L47.6403114,264.649527 Z"></path>
                </g>
                <circle id="Oval-3" stroke="#FFFFFF" stroke-width="3" fill="#FF7C87" cx="75" cy="234" r="10"></circle>
                <ellipse id="Oval-4" fill="#FF7C87" cx="45" cy="343" rx="26" ry="26"></ellipse>
                <path d="M89.0625,341.1875 C88.5520808,341.1875 88.1250017,341.122396 87.78125,340.992188 L87.78125,339.421875 C88.2187522,339.531251 88.5989567,339.585938 88.921875,339.585938 C89.9427134,339.585938 90.453125,338.940111 90.453125,337.648438 L90.453125,326.578125 L92.328125,326.578125 L92.328125,337.585938 C92.328125,338.75261 92.050784,339.644528 91.4960938,340.261719 C90.9414035,340.878909 90.1302137,341.1875 89.0625,341.1875 Z M100.5,338 L100.132812,336.796875 L100.070312,336.796875 C99.6536438,337.322919 99.2343771,337.680989 98.8125,337.871094 C98.3906229,338.061199 97.8489616,338.15625 97.1875,338.15625 C96.3385374,338.15625 95.6757836,337.927086 95.1992188,337.46875 C94.7226539,337.010414 94.484375,336.361983 94.484375,335.523438 C94.484375,334.632808 94.8151009,333.96094 95.4765625,333.507812 C96.1380241,333.054685 97.1458266,332.807292 98.5,332.765625 L99.9921875,332.71875 L99.9921875,332.257812 C99.9921875,331.705726 99.8632825,331.29297 99.6054688,331.019531 C99.347655,330.746092 98.9479194,330.609375 98.40625,330.609375 C97.9635395,330.609375 97.5390645,330.674479 97.1328125,330.804688 C96.7265605,330.934896 96.3359394,331.088541 95.9609375,331.265625 L95.3671875,329.953125 C95.8359398,329.708332 96.3489555,329.522136 96.90625,329.394531 C97.4635445,329.266926 97.9895809,329.203125 98.484375,329.203125 C99.5833388,329.203125 100.412758,329.442706 100.972656,329.921875 C101.532555,330.401044 101.8125,331.153641 101.8125,332.179688 L101.8125,338 L100.5,338 Z M97.765625,336.75 C98.432295,336.75 98.9674459,336.563804 99.3710938,336.191406 C99.7747416,335.819009 99.9765625,335.296878 99.9765625,334.625 L99.9765625,333.875 L98.8671875,333.921875 C98.0025998,333.953125 97.3736999,334.097655 96.9804688,334.355469 C96.5872376,334.613283 96.390625,335.00781 96.390625,335.539062 C96.390625,335.924481 96.5052072,336.222655 96.734375,336.433594 C96.9635428,336.644532 97.3072894,336.75 97.765625,336.75 Z M111.65625,338 L109.8125,338 L109.8125,332.671875 C109.8125,332.010413 109.687501,331.516929 109.4375,331.191406 C109.187499,330.865884 108.796878,330.703125 108.265625,330.703125 C107.557288,330.703125 107.037762,330.933591 106.707031,331.394531 C106.3763,331.855471 106.210938,332.62239 106.210938,333.695312 L106.210938,338 L104.375,338 L104.375,329.359375 L105.8125,329.359375 L106.070312,330.492188 L106.164062,330.492188 C106.403647,330.080727 106.7513,329.763022 107.207031,329.539062 C107.662763,329.315103 108.16406,329.203125 108.710938,329.203125 C110.039069,329.203125 110.919269,329.656245 111.351562,330.5625 L111.476562,330.5625 C111.731772,330.135415 112.091144,329.802085 112.554688,329.5625 C113.018231,329.322915 113.549476,329.203125 114.148438,329.203125 C115.179693,329.203125 115.930987,329.463539 116.402344,329.984375 C116.8737,330.505211 117.109375,331.299474 117.109375,332.367188 L117.109375,338 L115.273438,338 L115.273438,332.671875 C115.273438,332.010413 115.147137,331.516929 114.894531,331.191406 C114.641926,330.865884 114.250003,330.703125 113.71875,330.703125 C113.005205,330.703125 112.483075,330.925779 112.152344,331.371094 C111.821613,331.816408 111.65625,332.499995 111.65625,333.421875 L111.65625,338 Z M123.445312,338.15625 C122.101556,338.15625 121.050785,337.764327 120.292969,336.980469 C119.535152,336.196611 119.15625,335.117194 119.15625,333.742188 C119.15625,332.330722 119.507809,331.221358 120.210938,330.414062 C120.914066,329.606767 121.880202,329.203125 123.109375,329.203125 C124.250006,329.203125 125.151038,329.549476 125.8125,330.242188 C126.473962,330.934899 126.804688,331.888015 126.804688,333.101562 L126.804688,334.09375 L121.046875,334.09375 C121.072917,334.932296 121.299477,335.576821 121.726562,336.027344 C122.153648,336.477867 122.755204,336.703125 123.53125,336.703125 C124.041669,336.703125 124.516925,336.654948 124.957031,336.558594 C125.397138,336.462239 125.869789,336.302084 126.375,336.078125 L126.375,337.570312 C125.927081,337.783855 125.473961,337.934895 125.015625,338.023438 C124.557289,338.11198 124.033857,338.15625 123.445312,338.15625 Z M123.109375,330.59375 C122.526039,330.59375 122.058596,330.778644 121.707031,331.148438 C121.355467,331.518231 121.145834,332.057288 121.078125,332.765625 L125,332.765625 C124.989583,332.05208 124.81771,331.511721 124.484375,331.144531 C124.15104,330.777342 123.692711,330.59375 123.109375,330.59375 Z M134.695312,335.539062 C134.695312,336.382817 134.388024,337.029946 133.773438,337.480469 C133.158851,337.930992 132.278652,338.15625 131.132812,338.15625 C129.981765,338.15625 129.057295,337.981773 128.359375,337.632812 L128.359375,336.046875 C129.375005,336.515627 130.320308,336.75 131.195312,336.75 C132.325526,336.75 132.890625,336.408858 132.890625,335.726562 C132.890625,335.507811 132.828126,335.325522 132.703125,335.179688 C132.578124,335.033853 132.372397,334.882813 132.085938,334.726562 C131.799478,334.570312 131.401044,334.39323 130.890625,334.195312 C129.895828,333.809894 129.222658,333.424481 128.871094,333.039062 C128.519529,332.653644 128.34375,332.153649 128.34375,331.539062 C128.34375,330.799475 128.641924,330.225262 129.238281,329.816406 C129.834638,329.40755 130.645828,329.203125 131.671875,329.203125 C132.687505,329.203125 133.648433,329.408852 134.554688,329.820312 L133.960938,331.203125 C133.028641,330.817706 132.244795,330.625 131.609375,330.625 C130.64062,330.625 130.15625,330.901039 130.15625,331.453125 C130.15625,331.72396 130.282551,331.953124 130.535156,332.140625 C130.787762,332.328126 131.338537,332.585936 132.1875,332.914062 C132.901045,333.190106 133.419269,333.442707 133.742188,333.671875 C134.065106,333.901043 134.304687,334.165363 134.460938,334.464844 C134.617188,334.764324 134.695312,335.122394 134.695312,335.539062 Z M150.320312,332.179688 C150.320312,334.065114 149.79688,335.506505 148.75,336.503906 C147.70312,337.501307 146.195322,338 144.226562,338 L141.03125,338 L141.03125,326.578125 L144.5625,326.578125 C146.380217,326.578125 147.794266,327.067703 148.804688,328.046875 C149.815109,329.026047 150.320312,330.403637 150.320312,332.179688 Z M148.351562,332.242188 C148.351562,329.507799 147.072929,328.140625 144.515625,328.140625 L142.898438,328.140625 L142.898438,336.429688 L144.226562,336.429688 C146.976576,336.429688 148.351562,335.033868 148.351562,332.242188 Z M156.351562,338.15625 C155.007806,338.15625 153.957035,337.764327 153.199219,336.980469 C152.441402,336.196611 152.0625,335.117194 152.0625,333.742188 C152.0625,332.330722 152.414059,331.221358 153.117188,330.414062 C153.820316,329.606767 154.786452,329.203125 156.015625,329.203125 C157.156256,329.203125 158.057288,329.549476 158.71875,330.242188 C159.380212,330.934899 159.710938,331.888015 159.710938,333.101562 L159.710938,334.09375 L153.953125,334.09375 C153.979167,334.932296 154.205727,335.576821 154.632812,336.027344 C155.059898,336.477867 155.661454,336.703125 156.4375,336.703125 C156.947919,336.703125 157.423175,336.654948 157.863281,336.558594 C158.303388,336.462239 158.776039,336.302084 159.28125,336.078125 L159.28125,337.570312 C158.833331,337.783855 158.380211,337.934895 157.921875,338.023438 C157.463539,338.11198 156.940107,338.15625 156.351562,338.15625 Z M156.015625,330.59375 C155.432289,330.59375 154.964846,330.778644 154.613281,331.148438 C154.261717,331.518231 154.052084,332.057288 153.984375,332.765625 L157.90625,332.765625 C157.895833,332.05208 157.72396,331.511721 157.390625,331.144531 C157.05729,330.777342 156.598961,330.59375 156.015625,330.59375 Z M163.632812,338 L161.796875,338 L161.796875,325.84375 L163.632812,325.84375 L163.632812,338 Z M173.554688,329.359375 L173.554688,330.367188 L172.078125,330.640625 C172.213542,330.822918 172.32552,331.046874 172.414062,331.3125 C172.502605,331.578126 172.546875,331.859374 172.546875,332.15625 C172.546875,333.046879 172.239586,333.747393 171.625,334.257812 C171.010414,334.768232 170.164068,335.023438 169.085938,335.023438 C168.809894,335.023438 168.559897,335.002604 168.335938,334.960938 C167.940102,335.20573 167.742188,335.492186 167.742188,335.820312 C167.742188,336.01823 167.834634,336.166666 168.019531,336.265625 C168.204428,336.364584 168.544268,336.414062 169.039062,336.414062 L170.546875,336.414062 C171.500005,336.414062 172.223956,336.617185 172.71875,337.023438 C173.213544,337.42969 173.460938,338.015621 173.460938,338.78125 C173.460938,339.760422 173.057296,340.515622 172.25,341.046875 C171.442704,341.578128 170.276049,341.84375 168.75,341.84375 C167.572911,341.84375 166.674482,341.635419 166.054688,341.21875 C165.434893,340.802081 165.125,340.208337 165.125,339.4375 C165.125,338.906247 165.292967,338.459637 165.628906,338.097656 C165.964845,337.735675 166.434893,337.484376 167.039062,337.34375 C166.79427,337.239583 166.592449,337.071616 166.433594,336.839844 C166.274739,336.608072 166.195312,336.364585 166.195312,336.109375 C166.195312,335.786457 166.286457,335.513022 166.46875,335.289062 C166.651043,335.065103 166.921873,334.843751 167.28125,334.625 C166.833331,334.432291 166.470053,334.118492 166.191406,333.683594 C165.912759,333.248696 165.773438,332.739586 165.773438,332.15625 C165.773438,331.218745 166.069007,330.49219 166.660156,329.976562 C167.251305,329.460935 168.093745,329.203125 169.1875,329.203125 C169.432293,329.203125 169.688801,329.220052 169.957031,329.253906 C170.225262,329.287761 170.427083,329.322916 170.5625,329.359375 L173.554688,329.359375 Z M166.765625,339.34375 C166.765625,339.739585 166.944009,340.04427 167.300781,340.257812 C167.657554,340.471355 168.158851,340.578125 168.804688,340.578125 C169.804692,340.578125 170.549477,340.434897 171.039062,340.148438 C171.528648,339.861978 171.773438,339.481773 171.773438,339.007812 C171.773438,338.632811 171.639324,338.365886 171.371094,338.207031 C171.102863,338.048176 170.60417,337.96875 169.875,337.96875 L168.484375,337.96875 C167.958331,337.96875 167.540366,338.092447 167.230469,338.339844 C166.920571,338.587241 166.765625,338.921873 166.765625,339.34375 Z M167.554688,332.15625 C167.554688,332.697919 167.694009,333.114582 167.972656,333.40625 C168.251303,333.697918 168.651039,333.84375 169.171875,333.84375 C170.23438,333.84375 170.765625,333.276047 170.765625,332.140625 C170.765625,331.578122 170.634116,331.144533 170.371094,330.839844 C170.108072,330.535155 169.708336,330.382812 169.171875,330.382812 C168.640622,330.382812 168.238283,330.533853 167.964844,330.835938 C167.691405,331.138022 167.554688,331.578122 167.554688,332.15625 Z M180.5625,338 L180.195312,336.796875 L180.132812,336.796875 C179.716144,337.322919 179.296877,337.680989 178.875,337.871094 C178.453123,338.061199 177.911462,338.15625 177.25,338.15625 C176.401037,338.15625 175.738284,337.927086 175.261719,337.46875 C174.785154,337.010414 174.546875,336.361983 174.546875,335.523438 C174.546875,334.632808 174.877601,333.96094 175.539062,333.507812 C176.200524,333.054685 177.208327,332.807292 178.5625,332.765625 L180.054688,332.71875 L180.054688,332.257812 C180.054688,331.705726 179.925783,331.29297 179.667969,331.019531 C179.410155,330.746092 179.010419,330.609375 178.46875,330.609375 C178.026039,330.609375 177.601565,330.674479 177.195312,330.804688 C176.78906,330.934896 176.398439,331.088541 176.023438,331.265625 L175.429688,329.953125 C175.89844,329.708332 176.411456,329.522136 176.96875,329.394531 C177.526044,329.266926 178.052081,329.203125 178.546875,329.203125 C179.645839,329.203125 180.475258,329.442706 181.035156,329.921875 C181.595055,330.401044 181.875,331.153641 181.875,332.179688 L181.875,338 L180.5625,338 Z M177.828125,336.75 C178.494795,336.75 179.029946,336.563804 179.433594,336.191406 C179.837242,335.819009 180.039062,335.296878 180.039062,334.625 L180.039062,333.875 L178.929688,333.921875 C178.0651,333.953125 177.4362,334.097655 177.042969,334.355469 C176.649738,334.613283 176.453125,335.00781 176.453125,335.539062 C176.453125,335.924481 176.567707,336.222655 176.796875,336.433594 C177.026043,336.644532 177.369789,336.75 177.828125,336.75 Z M187.351562,338.15625 C186.273432,338.15625 185.432295,337.765629 184.828125,336.984375 C184.223955,336.203121 183.921875,335.106778 183.921875,333.695312 C183.921875,332.278639 184.227862,331.175785 184.839844,330.386719 C185.451826,329.597652 186.299474,329.203125 187.382812,329.203125 C188.518235,329.203125 189.38281,329.622392 189.976562,330.460938 L190.070312,330.460938 C189.98177,329.841143 189.9375,329.351564 189.9375,328.992188 L189.9375,325.84375 L191.78125,325.84375 L191.78125,338 L190.34375,338 L190.023438,336.867188 L189.9375,336.867188 C189.348955,337.726567 188.486985,338.15625 187.351562,338.15625 Z M187.84375,336.671875 C188.598962,336.671875 189.148436,336.459638 189.492188,336.035156 C189.835939,335.610675 190.013021,334.92188 190.023438,333.96875 L190.023438,333.710938 C190.023438,332.62239 189.846356,331.848961 189.492188,331.390625 C189.138019,330.932289 188.583337,330.703125 187.828125,330.703125 C187.182288,330.703125 186.684898,330.964841 186.335938,331.488281 C185.986977,332.011721 185.8125,332.757808 185.8125,333.726562 C185.8125,334.684901 185.981769,335.415362 186.320312,335.917969 C186.658856,336.420575 187.166663,336.671875 187.84375,336.671875 Z M202.070312,333.664062 C202.070312,335.075528 201.708337,336.177079 200.984375,336.96875 C200.260413,337.760421 199.252611,338.15625 197.960938,338.15625 C197.153642,338.15625 196.440107,337.97396 195.820312,337.609375 C195.200518,337.24479 194.72396,336.721358 194.390625,336.039062 C194.05729,335.356767 193.890625,334.565109 193.890625,333.664062 C193.890625,332.263014 194.249996,331.169275 194.96875,330.382812 C195.687504,329.59635 196.700514,329.203125 198.007812,329.203125 C199.257819,329.203125 200.247392,329.605465 200.976562,330.410156 C201.705733,331.214848 202.070312,332.299472 202.070312,333.664062 Z M195.78125,333.664062 C195.78125,335.658864 196.518222,336.65625 197.992188,336.65625 C199.450528,336.65625 200.179688,335.658864 200.179688,333.664062 C200.179688,331.690094 199.44532,330.703125 197.976562,330.703125 C197.205725,330.703125 196.647137,330.958331 196.300781,331.46875 C195.954425,331.979169 195.78125,332.710933 195.78125,333.664062 Z M205.492188,326.578125 L205.609375,326.75 C205.333332,327.838547 204.875003,329.08593 204.234375,330.492188 L202.90625,330.492188 C203.265627,328.986972 203.526041,327.682297 203.6875,326.578125 L205.492188,326.578125 Z M212.4375,335.539062 C212.4375,336.382817 212.130211,337.029946 211.515625,337.480469 C210.901039,337.930992 210.020839,338.15625 208.875,338.15625 C207.723953,338.15625 206.799483,337.981773 206.101562,337.632812 L206.101562,336.046875 C207.117193,336.515627 208.062496,336.75 208.9375,336.75 C210.067714,336.75 210.632812,336.408858 210.632812,335.726562 C210.632812,335.507811 210.570313,335.325522 210.445312,335.179688 C210.320312,335.033853 210.114585,334.882813 209.828125,334.726562 C209.541665,334.570312 209.143232,334.39323 208.632812,334.195312 C207.638016,333.809894 206.964846,333.424481 206.613281,333.039062 C206.261717,332.653644 206.085938,332.153649 206.085938,331.539062 C206.085938,330.799475 206.384112,330.225262 206.980469,329.816406 C207.576826,329.40755 208.388016,329.203125 209.414062,329.203125 C210.429693,329.203125 211.39062,329.408852 212.296875,329.820312 L211.703125,331.203125 C210.770829,330.817706 209.986982,330.625 209.351562,330.625 C208.382808,330.625 207.898438,330.901039 207.898438,331.453125 C207.898438,331.72396 208.024738,331.953124 208.277344,332.140625 C208.529949,332.328126 209.080725,332.585936 209.929688,332.914062 C210.643233,333.190106 211.161457,333.442707 211.484375,333.671875 C211.807293,333.901043 212.046874,334.165363 212.203125,334.464844 C212.359376,334.764324 212.4375,335.122394 212.4375,335.539062 Z M224.382812,335.539062 C224.382812,336.382817 224.075524,337.029946 223.460938,337.480469 C222.846351,337.930992 221.966152,338.15625 220.820312,338.15625 C219.669265,338.15625 218.744795,337.981773 218.046875,337.632812 L218.046875,336.046875 C219.062505,336.515627 220.007808,336.75 220.882812,336.75 C222.013026,336.75 222.578125,336.408858 222.578125,335.726562 C222.578125,335.507811 222.515626,335.325522 222.390625,335.179688 C222.265624,335.033853 222.059897,334.882813 221.773438,334.726562 C221.486978,334.570312 221.088544,334.39323 220.578125,334.195312 C219.583328,333.809894 218.910158,333.424481 218.558594,333.039062 C218.207029,332.653644 218.03125,332.153649 218.03125,331.539062 C218.03125,330.799475 218.329424,330.225262 218.925781,329.816406 C219.522138,329.40755 220.333328,329.203125 221.359375,329.203125 C222.375005,329.203125 223.335933,329.408852 224.242188,329.820312 L223.648438,331.203125 C222.716141,330.817706 221.932295,330.625 221.296875,330.625 C220.32812,330.625 219.84375,330.901039 219.84375,331.453125 C219.84375,331.72396 219.970051,331.953124 220.222656,332.140625 C220.475262,332.328126 221.026037,332.585936 221.875,332.914062 C222.588545,333.190106 223.106769,333.442707 223.429688,333.671875 C223.752606,333.901043 223.992187,334.165363 224.148438,334.464844 C224.304688,334.764324 224.382812,335.122394 224.382812,335.539062 Z M230.140625,338.15625 C228.796868,338.15625 227.746098,337.764327 226.988281,336.980469 C226.230465,336.196611 225.851562,335.117194 225.851562,333.742188 C225.851562,332.330722 226.203121,331.221358 226.90625,330.414062 C227.609379,329.606767 228.575515,329.203125 229.804688,329.203125 C230.945318,329.203125 231.846351,329.549476 232.507812,330.242188 C233.169274,330.934899 233.5,331.888015 233.5,333.101562 L233.5,334.09375 L227.742188,334.09375 C227.768229,334.932296 227.99479,335.576821 228.421875,336.027344 C228.84896,336.477867 229.450517,336.703125 230.226562,336.703125 C230.736982,336.703125 231.212237,336.654948 231.652344,336.558594 C232.09245,336.462239 232.565102,336.302084 233.070312,336.078125 L233.070312,337.570312 C232.622394,337.783855 232.169273,337.934895 231.710938,338.023438 C231.252602,338.11198 230.72917,338.15625 230.140625,338.15625 Z M229.804688,330.59375 C229.221351,330.59375 228.753908,330.778644 228.402344,331.148438 C228.050779,331.518231 227.841146,332.057288 227.773438,332.765625 L231.695312,332.765625 C231.684896,332.05208 231.513023,331.511721 231.179688,331.144531 C230.846352,330.777342 230.388024,330.59375 229.804688,330.59375 Z M238.804688,336.671875 C239.252606,336.671875 239.700519,336.601563 240.148438,336.460938 L240.148438,337.84375 C239.945311,337.932292 239.683595,338.00651 239.363281,338.066406 C239.042967,338.126302 238.710939,338.15625 238.367188,338.15625 C236.627595,338.15625 235.757812,337.239593 235.757812,335.40625 L235.757812,330.75 L234.578125,330.75 L234.578125,329.9375 L235.84375,329.265625 L236.46875,327.4375 L237.601562,327.4375 L237.601562,329.359375 L240.0625,329.359375 L240.0625,330.75 L237.601562,330.75 L237.601562,335.375 C237.601562,335.817711 237.712238,336.14453 237.933594,336.355469 C238.154949,336.566407 238.445311,336.671875 238.804688,336.671875 Z M243.710938,338 L241.875,338 L241.875,329.359375 L243.710938,329.359375 L243.710938,338 Z M241.765625,327.070312 C241.765625,326.742186 241.855468,326.489584 242.035156,326.3125 C242.214845,326.135416 242.471352,326.046875 242.804688,326.046875 C243.127606,326.046875 243.378905,326.135416 243.558594,326.3125 C243.738282,326.489584 243.828125,326.742186 243.828125,327.070312 C243.828125,327.382814 243.738282,327.628905 243.558594,327.808594 C243.378905,327.988282 243.127606,328.078125 242.804688,328.078125 C242.471352,328.078125 242.214845,327.988282 242.035156,327.808594 C241.855468,327.628905 241.765625,327.382814 241.765625,327.070312 Z M253.617188,338 L251.773438,338 L251.773438,332.671875 C251.773438,332.010413 251.648439,331.516929 251.398438,331.191406 C251.148436,330.865884 250.757815,330.703125 250.226562,330.703125 C249.518226,330.703125 248.9987,330.933591 248.667969,331.394531 C248.337238,331.855471 248.171875,332.62239 248.171875,333.695312 L248.171875,338 L246.335938,338 L246.335938,329.359375 L247.773438,329.359375 L248.03125,330.492188 L248.125,330.492188 C248.364585,330.080727 248.712237,329.763022 249.167969,329.539062 C249.6237,329.315103 250.124997,329.203125 250.671875,329.203125 C252.000007,329.203125 252.880206,329.656245 253.3125,330.5625 L253.4375,330.5625 C253.69271,330.135415 254.052081,329.802085 254.515625,329.5625 C254.979169,329.322915 255.510414,329.203125 256.109375,329.203125 C257.14063,329.203125 257.891925,329.463539 258.363281,329.984375 C258.834638,330.505211 259.070312,331.299474 259.070312,332.367188 L259.070312,338 L257.234375,338 L257.234375,332.671875 C257.234375,332.010413 257.108074,331.516929 256.855469,331.191406 C256.602863,330.865884 256.21094,330.703125 255.679688,330.703125 C254.966142,330.703125 254.444012,330.925779 254.113281,331.371094 C253.78255,331.816408 253.617188,332.499995 253.617188,333.421875 L253.617188,338 Z M265.40625,338.15625 C264.062493,338.15625 263.011723,337.764327 262.253906,336.980469 C261.49609,336.196611 261.117188,335.117194 261.117188,333.742188 C261.117188,332.330722 261.468746,331.221358 262.171875,330.414062 C262.875004,329.606767 263.84114,329.203125 265.070312,329.203125 C266.210943,329.203125 267.111976,329.549476 267.773438,330.242188 C268.434899,330.934899 268.765625,331.888015 268.765625,333.101562 L268.765625,334.09375 L263.007812,334.09375 C263.033854,334.932296 263.260415,335.576821 263.6875,336.027344 C264.114585,336.477867 264.716142,336.703125 265.492188,336.703125 C266.002607,336.703125 266.477862,336.654948 266.917969,336.558594 C267.358075,336.462239 267.830727,336.302084 268.335938,336.078125 L268.335938,337.570312 C267.888019,337.783855 267.434898,337.934895 266.976562,338.023438 C266.518227,338.11198 265.994795,338.15625 265.40625,338.15625 Z M265.070312,330.59375 C264.486976,330.59375 264.019533,330.778644 263.667969,331.148438 C263.316404,331.518231 263.106771,332.057288 263.039062,332.765625 L266.960938,332.765625 C266.950521,332.05208 266.778648,331.511721 266.445312,331.144531 C266.111977,330.777342 265.653649,330.59375 265.070312,330.59375 Z M278.453125,338 L276.609375,338 L276.609375,332.6875 C276.609375,332.02083 276.475262,331.523439 276.207031,331.195312 C275.938801,330.867186 275.513024,330.703125 274.929688,330.703125 C274.153642,330.703125 273.585939,330.932289 273.226562,331.390625 C272.867186,331.848961 272.6875,332.617182 272.6875,333.695312 L272.6875,338 L270.851562,338 L270.851562,329.359375 L272.289062,329.359375 L272.546875,330.492188 L272.640625,330.492188 C272.901043,330.080727 273.270831,329.763022 273.75,329.539062 C274.229169,329.315103 274.760414,329.203125 275.34375,329.203125 C277.416677,329.203125 278.453125,330.257802 278.453125,332.367188 L278.453125,338 Z M284.226562,336.671875 C284.674481,336.671875 285.122394,336.601563 285.570312,336.460938 L285.570312,337.84375 C285.367186,337.932292 285.10547,338.00651 284.785156,338.066406 C284.464842,338.126302 284.132814,338.15625 283.789062,338.15625 C282.04947,338.15625 281.179688,337.239593 281.179688,335.40625 L281.179688,330.75 L280,330.75 L280,329.9375 L281.265625,329.265625 L281.890625,327.4375 L283.023438,327.4375 L283.023438,329.359375 L285.484375,329.359375 L285.484375,330.75 L283.023438,330.75 L283.023438,335.375 C283.023438,335.817711 283.134113,336.14453 283.355469,336.355469 C283.576824,336.566407 283.867186,336.671875 284.226562,336.671875 Z M299.054688,338 L297.210938,338 L297.210938,332.6875 C297.210938,332.02083 297.076824,331.523439 296.808594,331.195312 C296.540363,330.867186 296.114586,330.703125 295.53125,330.703125 C294.760413,330.703125 294.194012,330.933591 293.832031,331.394531 C293.47005,331.855471 293.289062,332.627599 293.289062,333.710938 L293.289062,338 L291.453125,338 L291.453125,325.84375 L293.289062,325.84375 L293.289062,328.929688 C293.289062,329.424482 293.257813,329.953122 293.195312,330.515625 L293.3125,330.515625 C293.562501,330.098956 293.910154,329.776043 294.355469,329.546875 C294.800783,329.317707 295.32031,329.203125 295.914062,329.203125 C298.007823,329.203125 299.054688,330.257802 299.054688,332.367188 L299.054688,338 Z M307.015625,338 L306.648438,336.796875 L306.585938,336.796875 C306.169269,337.322919 305.750002,337.680989 305.328125,337.871094 C304.906248,338.061199 304.364587,338.15625 303.703125,338.15625 C302.854162,338.15625 302.191409,337.927086 301.714844,337.46875 C301.238279,337.010414 301,336.361983 301,335.523438 C301,334.632808 301.330726,333.96094 301.992188,333.507812 C302.653649,333.054685 303.661452,332.807292 305.015625,332.765625 L306.507812,332.71875 L306.507812,332.257812 C306.507812,331.705726 306.378908,331.29297 306.121094,331.019531 C305.86328,330.746092 305.463544,330.609375 304.921875,330.609375 C304.479164,330.609375 304.05469,330.674479 303.648438,330.804688 C303.242185,330.934896 302.851564,331.088541 302.476562,331.265625 L301.882812,329.953125 C302.351565,329.708332 302.864581,329.522136 303.421875,329.394531 C303.979169,329.266926 304.505206,329.203125 305,329.203125 C306.098964,329.203125 306.928383,329.442706 307.488281,329.921875 C308.04818,330.401044 308.328125,331.153641 308.328125,332.179688 L308.328125,338 L307.015625,338 Z M304.28125,336.75 C304.94792,336.75 305.483071,336.563804 305.886719,336.191406 C306.290367,335.819009 306.492188,335.296878 306.492188,334.625 L306.492188,333.875 L305.382812,333.921875 C304.518225,333.953125 303.889325,334.097655 303.496094,334.355469 C303.102863,334.613283 302.90625,335.00781 302.90625,335.539062 C302.90625,335.924481 303.020832,336.222655 303.25,336.433594 C303.479168,336.644532 303.822914,336.75 304.28125,336.75 Z M316.695312,335.539062 C316.695312,336.382817 316.388024,337.029946 315.773438,337.480469 C315.158851,337.930992 314.278652,338.15625 313.132812,338.15625 C311.981765,338.15625 311.057295,337.981773 310.359375,337.632812 L310.359375,336.046875 C311.375005,336.515627 312.320308,336.75 313.195312,336.75 C314.325526,336.75 314.890625,336.408858 314.890625,335.726562 C314.890625,335.507811 314.828126,335.325522 314.703125,335.179688 C314.578124,335.033853 314.372397,334.882813 314.085938,334.726562 C313.799478,334.570312 313.401044,334.39323 312.890625,334.195312 C311.895828,333.809894 311.222658,333.424481 310.871094,333.039062 C310.519529,332.653644 310.34375,332.153649 310.34375,331.539062 C310.34375,330.799475 310.641924,330.225262 311.238281,329.816406 C311.834638,329.40755 312.645828,329.203125 313.671875,329.203125 C314.687505,329.203125 315.648433,329.408852 316.554688,329.820312 L315.960938,331.203125 C315.028641,330.817706 314.244795,330.625 313.609375,330.625 C312.64062,330.625 312.15625,330.901039 312.15625,331.453125 C312.15625,331.72396 312.282551,331.953124 312.535156,332.140625 C312.787762,332.328126 313.338537,332.585936 314.1875,332.914062 C314.901045,333.190106 315.419269,333.442707 315.742188,333.671875 C316.065106,333.901043 316.304687,334.165363 316.460938,334.464844 C316.617188,334.764324 316.695312,335.122394 316.695312,335.539062 Z M330.132812,329.359375 L330.132812,330.367188 L328.65625,330.640625 C328.791667,330.822918 328.903645,331.046874 328.992188,331.3125 C329.08073,331.578126 329.125,331.859374 329.125,332.15625 C329.125,333.046879 328.817711,333.747393 328.203125,334.257812 C327.588539,334.768232 326.742193,335.023438 325.664062,335.023438 C325.388019,335.023438 325.138022,335.002604 324.914062,334.960938 C324.518227,335.20573 324.320312,335.492186 324.320312,335.820312 C324.320312,336.01823 324.412759,336.166666 324.597656,336.265625 C324.782553,336.364584 325.122393,336.414062 325.617188,336.414062 L327.125,336.414062 C328.07813,336.414062 328.802081,336.617185 329.296875,337.023438 C329.791669,337.42969 330.039062,338.015621 330.039062,338.78125 C330.039062,339.760422 329.635421,340.515622 328.828125,341.046875 C328.020829,341.578128 326.854174,341.84375 325.328125,341.84375 C324.151036,341.84375 323.252607,341.635419 322.632812,341.21875 C322.013018,340.802081 321.703125,340.208337 321.703125,339.4375 C321.703125,338.906247 321.871092,338.459637 322.207031,338.097656 C322.54297,337.735675 323.013018,337.484376 323.617188,337.34375 C323.372395,337.239583 323.170574,337.071616 323.011719,336.839844 C322.852864,336.608072 322.773438,336.364585 322.773438,336.109375 C322.773438,335.786457 322.864582,335.513022 323.046875,335.289062 C323.229168,335.065103 323.499998,334.843751 323.859375,334.625 C323.411456,334.432291 323.048178,334.118492 322.769531,333.683594 C322.490884,333.248696 322.351562,332.739586 322.351562,332.15625 C322.351562,331.218745 322.647132,330.49219 323.238281,329.976562 C323.82943,329.460935 324.67187,329.203125 325.765625,329.203125 C326.010418,329.203125 326.266926,329.220052 326.535156,329.253906 C326.803387,329.287761 327.005208,329.322916 327.140625,329.359375 L330.132812,329.359375 Z M323.34375,339.34375 C323.34375,339.739585 323.522134,340.04427 323.878906,340.257812 C324.235679,340.471355 324.736976,340.578125 325.382812,340.578125 C326.382817,340.578125 327.127602,340.434897 327.617188,340.148438 C328.106773,339.861978 328.351562,339.481773 328.351562,339.007812 C328.351562,338.632811 328.217449,338.365886 327.949219,338.207031 C327.680988,338.048176 327.182295,337.96875 326.453125,337.96875 L325.0625,337.96875 C324.536456,337.96875 324.118491,338.092447 323.808594,338.339844 C323.498696,338.587241 323.34375,338.921873 323.34375,339.34375 Z M324.132812,332.15625 C324.132812,332.697919 324.272134,333.114582 324.550781,333.40625 C324.829428,333.697918 325.229164,333.84375 325.75,333.84375 C326.812505,333.84375 327.34375,333.276047 327.34375,332.140625 C327.34375,331.578122 327.212241,331.144533 326.949219,330.839844 C326.686197,330.535155 326.286461,330.382812 325.75,330.382812 C325.218747,330.382812 324.816408,330.533853 324.542969,330.835938 C324.26953,331.138022 324.132812,331.578122 324.132812,332.15625 Z M339.398438,333.664062 C339.398438,335.075528 339.036462,336.177079 338.3125,336.96875 C337.588538,337.760421 336.580736,338.15625 335.289062,338.15625 C334.481767,338.15625 333.768232,337.97396 333.148438,337.609375 C332.528643,337.24479 332.052085,336.721358 331.71875,336.039062 C331.385415,335.356767 331.21875,334.565109 331.21875,333.664062 C331.21875,332.263014 331.578121,331.169275 332.296875,330.382812 C333.015629,329.59635 334.028639,329.203125 335.335938,329.203125 C336.585944,329.203125 337.575517,329.605465 338.304688,330.410156 C339.033858,331.214848 339.398438,332.299472 339.398438,333.664062 Z M333.109375,333.664062 C333.109375,335.658864 333.846347,336.65625 335.320312,336.65625 C336.778653,336.65625 337.507812,335.658864 337.507812,333.664062 C337.507812,331.690094 336.773445,330.703125 335.304688,330.703125 C334.53385,330.703125 333.975262,330.958331 333.628906,331.46875 C333.28255,331.979169 333.109375,332.710933 333.109375,333.664062 Z M349.109375,338 L347.265625,338 L347.265625,332.6875 C347.265625,332.02083 347.131512,331.523439 346.863281,331.195312 C346.595051,330.867186 346.169274,330.703125 345.585938,330.703125 C344.809892,330.703125 344.242189,330.932289 343.882812,331.390625 C343.523436,331.848961 343.34375,332.617182 343.34375,333.695312 L343.34375,338 L341.507812,338 L341.507812,329.359375 L342.945312,329.359375 L343.203125,330.492188 L343.296875,330.492188 C343.557293,330.080727 343.927081,329.763022 344.40625,329.539062 C344.885419,329.315103 345.416664,329.203125 346,329.203125 C348.072927,329.203125 349.109375,330.257802 349.109375,332.367188 L349.109375,338 Z M355.4375,338.15625 C354.093743,338.15625 353.042973,337.764327 352.285156,336.980469 C351.52734,336.196611 351.148438,335.117194 351.148438,333.742188 C351.148438,332.330722 351.499996,331.221358 352.203125,330.414062 C352.906254,329.606767 353.87239,329.203125 355.101562,329.203125 C356.242193,329.203125 357.143226,329.549476 357.804688,330.242188 C358.466149,330.934899 358.796875,331.888015 358.796875,333.101562 L358.796875,334.09375 L353.039062,334.09375 C353.065104,334.932296 353.291665,335.576821 353.71875,336.027344 C354.145835,336.477867 354.747392,336.703125 355.523438,336.703125 C356.033857,336.703125 356.509112,336.654948 356.949219,336.558594 C357.389325,336.462239 357.861977,336.302084 358.367188,336.078125 L358.367188,337.570312 C357.919269,337.783855 357.466148,337.934895 357.007812,338.023438 C356.549477,338.11198 356.026045,338.15625 355.4375,338.15625 Z M355.101562,330.59375 C354.518226,330.59375 354.050783,330.778644 353.699219,331.148438 C353.347654,331.518231 353.138021,332.057288 353.070312,332.765625 L356.992188,332.765625 C356.981771,332.05208 356.809898,331.511721 356.476562,331.144531 C356.143227,330.777342 355.684899,330.59375 355.101562,330.59375 Z M93.2265625,360.15625 C92.1484321,360.15625 91.3072947,359.765629 90.703125,358.984375 C90.0989553,358.203121 89.796875,357.106778 89.796875,355.695312 C89.796875,354.278639 90.1028615,353.175785 90.7148438,352.386719 C91.326826,351.597652 92.1744738,351.203125 93.2578125,351.203125 C94.3932348,351.203125 95.2578095,351.622392 95.8515625,352.460938 L95.9453125,352.460938 C95.8567704,351.841143 95.8125,351.351564 95.8125,350.992188 L95.8125,347.84375 L97.65625,347.84375 L97.65625,360 L96.21875,360 L95.8984375,358.867188 L95.8125,358.867188 C95.2239554,359.726567 94.3619848,360.15625 93.2265625,360.15625 Z M93.71875,358.671875 C94.4739621,358.671875 95.0234358,358.459638 95.3671875,358.035156 C95.7109392,357.610675 95.8880208,356.92188 95.8984375,355.96875 L95.8984375,355.710938 C95.8984375,354.62239 95.7213559,353.848961 95.3671875,353.390625 C95.0130191,352.932289 94.4583371,352.703125 93.703125,352.703125 C93.0572884,352.703125 92.5598976,352.964841 92.2109375,353.488281 C91.8619774,354.011721 91.6875,354.757808 91.6875,355.726562 C91.6875,356.684901 91.8567691,357.415362 92.1953125,357.917969 C92.5338559,358.420575 93.0416633,358.671875 93.71875,358.671875 Z M107.945312,355.664062 C107.945312,357.075528 107.583337,358.177079 106.859375,358.96875 C106.135413,359.760421 105.127611,360.15625 103.835938,360.15625 C103.028642,360.15625 102.315107,359.97396 101.695312,359.609375 C101.075518,359.24479 100.59896,358.721358 100.265625,358.039062 C99.93229,357.356767 99.765625,356.565109 99.765625,355.664062 C99.765625,354.263014 100.124996,353.169275 100.84375,352.382812 C101.562504,351.59635 102.575514,351.203125 103.882812,351.203125 C105.132819,351.203125 106.122392,351.605465 106.851562,352.410156 C107.580733,353.214848 107.945312,354.299472 107.945312,355.664062 Z M101.65625,355.664062 C101.65625,357.658864 102.393222,358.65625 103.867188,358.65625 C105.325528,358.65625 106.054688,357.658864 106.054688,355.664062 C106.054688,353.690094 105.32032,352.703125 103.851562,352.703125 C103.080725,352.703125 102.522137,352.958331 102.175781,353.46875 C101.829425,353.979169 101.65625,354.710933 101.65625,355.664062 Z M116.820312,360 L115.703125,355.96875 C115.567708,355.541665 115.322918,354.549487 114.96875,352.992188 L114.898438,352.992188 C114.596353,354.398445 114.356772,355.39583 114.179688,355.984375 L113.03125,360 L111,360 L108.578125,351.359375 L110.453125,351.359375 L111.554688,355.617188 C111.804689,356.669276 111.98177,357.570309 112.085938,358.320312 L112.132812,358.320312 C112.184896,357.940102 112.264322,357.503909 112.371094,357.011719 C112.477865,356.519529 112.570312,356.151043 112.648438,355.90625 L113.960938,351.359375 L115.976562,351.359375 L117.25,355.90625 C117.328125,356.16146 117.425781,356.552081 117.542969,357.078125 C117.660157,357.604169 117.729167,358.013019 117.75,358.304688 L117.8125,358.304688 C117.890625,357.664059 118.072915,356.768235 118.359375,355.617188 L119.476562,351.359375 L121.320312,351.359375 L118.882812,360 L116.820312,360 Z M130.40625,360 L128.5625,360 L128.5625,354.6875 C128.5625,354.02083 128.428387,353.523439 128.160156,353.195312 C127.891926,352.867186 127.466149,352.703125 126.882812,352.703125 C126.106767,352.703125 125.539064,352.932289 125.179688,353.390625 C124.820311,353.848961 124.640625,354.617182 124.640625,355.695312 L124.640625,360 L122.804688,360 L122.804688,351.359375 L124.242188,351.359375 L124.5,352.492188 L124.59375,352.492188 C124.854168,352.080727 125.223956,351.763022 125.703125,351.539062 C126.182294,351.315103 126.713539,351.203125 127.296875,351.203125 C129.369802,351.203125 130.40625,352.257802 130.40625,354.367188 L130.40625,360 Z M144.25,360 L136.507812,360 L136.507812,358.609375 L139.453125,355.648438 C140.322921,354.757808 140.899738,354.126304 141.183594,353.753906 C141.467449,353.381509 141.674479,353.031252 141.804688,352.703125 C141.934896,352.374998 142,352.023439 142,351.648438 C142,351.13281 141.845054,350.726564 141.535156,350.429688 C141.225259,350.132811 140.796878,349.984375 140.25,349.984375 C139.812498,349.984375 139.389325,350.065103 138.980469,350.226562 C138.571613,350.388022 138.098961,350.679685 137.5625,351.101562 L136.570312,349.890625 C137.205732,349.354164 137.822914,348.973959 138.421875,348.75 C139.020836,348.526041 139.658851,348.414062 140.335938,348.414062 C141.398443,348.414062 142.249997,348.691403 142.890625,349.246094 C143.531253,349.800784 143.851562,350.54687 143.851562,351.484375 C143.851562,352.000003 143.759116,352.489581 143.574219,352.953125 C143.389322,353.416669 143.105471,353.894529 142.722656,354.386719 C142.339842,354.878909 141.703129,355.544267 140.8125,356.382812 L138.828125,358.304688 L138.828125,358.382812 L144.25,358.382812 L144.25,360 Z M145.976562,359.023438 C145.976562,358.643227 146.07552,358.351564 146.273438,358.148438 C146.471355,357.945311 146.757811,357.84375 147.132812,357.84375 C147.513023,357.84375 147.802082,357.949218 148,358.160156 C148.197918,358.371095 148.296875,358.658852 148.296875,359.023438 C148.296875,359.393231 148.196616,359.686197 147.996094,359.902344 C147.795572,360.118491 147.507814,360.226562 147.132812,360.226562 C146.757811,360.226562 146.471355,360.119793 146.273438,359.90625 C146.07552,359.692707 145.976562,359.398439 145.976562,359.023438 Z M155.429688,360 L153.59375,360 L153.59375,352.625 C153.59375,351.744787 153.614583,351.046878 153.65625,350.53125 C153.536458,350.656251 153.389324,350.79427 153.214844,350.945312 C153.040364,351.096355 152.455734,351.575517 151.460938,352.382812 L150.539062,351.21875 L153.898438,348.578125 L155.429688,348.578125 L155.429688,360 Z M169.742188,357.539062 C169.742188,358.382817 169.434899,359.029946 168.820312,359.480469 C168.205726,359.930992 167.325527,360.15625 166.179688,360.15625 C165.02864,360.15625 164.10417,359.981773 163.40625,359.632812 L163.40625,358.046875 C164.42188,358.515627 165.367183,358.75 166.242188,358.75 C167.372401,358.75 167.9375,358.408858 167.9375,357.726562 C167.9375,357.507811 167.875001,357.325522 167.75,357.179688 C167.624999,357.033853 167.419272,356.882813 167.132812,356.726562 C166.846353,356.570312 166.447919,356.39323 165.9375,356.195312 C164.942703,355.809894 164.269533,355.424481 163.917969,355.039062 C163.566404,354.653644 163.390625,354.153649 163.390625,353.539062 C163.390625,352.799475 163.688799,352.225262 164.285156,351.816406 C164.881513,351.40755 165.692703,351.203125 166.71875,351.203125 C167.73438,351.203125 168.695308,351.408852 169.601562,351.820312 L169.007812,353.203125 C168.075516,352.817706 167.29167,352.625 166.65625,352.625 C165.687495,352.625 165.203125,352.901039 165.203125,353.453125 C165.203125,353.72396 165.329426,353.953124 165.582031,354.140625 C165.834637,354.328126 166.385412,354.585936 167.234375,354.914062 C167.94792,355.190106 168.466144,355.442707 168.789062,355.671875 C169.111981,355.901043 169.351562,356.165363 169.507812,356.464844 C169.664063,356.764324 169.742188,357.122394 169.742188,357.539062 Z M174.945312,358.671875 C175.393231,358.671875 175.841144,358.601563 176.289062,358.460938 L176.289062,359.84375 C176.085936,359.932292 175.82422,360.00651 175.503906,360.066406 C175.183592,360.126302 174.851564,360.15625 174.507812,360.15625 C172.76822,360.15625 171.898438,359.239593 171.898438,357.40625 L171.898438,352.75 L170.71875,352.75 L170.71875,351.9375 L171.984375,351.265625 L172.609375,349.4375 L173.742188,349.4375 L173.742188,351.359375 L176.203125,351.359375 L176.203125,352.75 L173.742188,352.75 L173.742188,357.375 C173.742188,357.817711 173.852863,358.14453 174.074219,358.355469 C174.295574,358.566407 174.585936,358.671875 174.945312,358.671875 Z M183.421875,360 L183.054688,358.796875 L182.992188,358.796875 C182.575519,359.322919 182.156252,359.680989 181.734375,359.871094 C181.312498,360.061199 180.770837,360.15625 180.109375,360.15625 C179.260412,360.15625 178.597659,359.927086 178.121094,359.46875 C177.644529,359.010414 177.40625,358.361983 177.40625,357.523438 C177.40625,356.632808 177.736976,355.96094 178.398438,355.507812 C179.059899,355.054685 180.067702,354.807292 181.421875,354.765625 L182.914062,354.71875 L182.914062,354.257812 C182.914062,353.705726 182.785158,353.29297 182.527344,353.019531 C182.26953,352.746092 181.869794,352.609375 181.328125,352.609375 C180.885414,352.609375 180.46094,352.674479 180.054688,352.804688 C179.648435,352.934896 179.257814,353.088541 178.882812,353.265625 L178.289062,351.953125 C178.757815,351.708332 179.270831,351.522136 179.828125,351.394531 C180.385419,351.266926 180.911456,351.203125 181.40625,351.203125 C182.505214,351.203125 183.334633,351.442706 183.894531,351.921875 C184.45443,352.401044 184.734375,353.153641 184.734375,354.179688 L184.734375,360 L183.421875,360 Z M180.6875,358.75 C181.35417,358.75 181.889321,358.563804 182.292969,358.191406 C182.696617,357.819009 182.898438,357.296878 182.898438,356.625 L182.898438,355.875 L181.789062,355.921875 C180.924475,355.953125 180.295575,356.097655 179.902344,356.355469 C179.509113,356.613283 179.3125,357.00781 179.3125,357.539062 C179.3125,357.924481 179.427082,358.222655 179.65625,358.433594 C179.885418,358.644532 180.229164,358.75 180.6875,358.75 Z M191.679688,351.203125 C192.049481,351.203125 192.354165,351.229166 192.59375,351.28125 L192.414062,352.992188 C192.153645,352.929687 191.882814,352.898438 191.601562,352.898438 C190.867184,352.898438 190.272138,353.138018 189.816406,353.617188 C189.360675,354.096357 189.132812,354.718746 189.132812,355.484375 L189.132812,360 L187.296875,360 L187.296875,351.359375 L188.734375,351.359375 L188.976562,352.882812 L189.070312,352.882812 C189.356772,352.367185 189.730466,351.958335 190.191406,351.65625 C190.652346,351.354165 191.148435,351.203125 191.679688,351.203125 Z M200,357.539062 C200,358.382817 199.692711,359.029946 199.078125,359.480469 C198.463539,359.930992 197.583339,360.15625 196.4375,360.15625 C195.286453,360.15625 194.361983,359.981773 193.664062,359.632812 L193.664062,358.046875 C194.679693,358.515627 195.624996,358.75 196.5,358.75 C197.630214,358.75 198.195312,358.408858 198.195312,357.726562 C198.195312,357.507811 198.132813,357.325522 198.007812,357.179688 C197.882812,357.033853 197.677085,356.882813 197.390625,356.726562 C197.104165,356.570312 196.705732,356.39323 196.195312,356.195312 C195.200516,355.809894 194.527346,355.424481 194.175781,355.039062 C193.824217,354.653644 193.648438,354.153649 193.648438,353.539062 C193.648438,352.799475 193.946612,352.225262 194.542969,351.816406 C195.139326,351.40755 195.950516,351.203125 196.976562,351.203125 C197.992193,351.203125 198.95312,351.408852 199.859375,351.820312 L199.265625,353.203125 C198.333329,352.817706 197.549482,352.625 196.914062,352.625 C195.945308,352.625 195.460938,352.901039 195.460938,353.453125 C195.460938,353.72396 195.587238,353.953124 195.839844,354.140625 C196.092449,354.328126 196.643225,354.585936 197.492188,354.914062 C198.205733,355.190106 198.723957,355.442707 199.046875,355.671875 C199.369793,355.901043 199.609374,356.165363 199.765625,356.464844 C199.921876,356.764324 200,357.122394 200,357.539062 Z M213.804688,355.664062 C213.804688,357.075528 213.442712,358.177079 212.71875,358.96875 C211.994788,359.760421 210.986986,360.15625 209.695312,360.15625 C208.888017,360.15625 208.174482,359.97396 207.554688,359.609375 C206.934893,359.24479 206.458335,358.721358 206.125,358.039062 C205.791665,357.356767 205.625,356.565109 205.625,355.664062 C205.625,354.263014 205.984371,353.169275 206.703125,352.382812 C207.421879,351.59635 208.434889,351.203125 209.742188,351.203125 C210.992194,351.203125 211.981767,351.605465 212.710938,352.410156 C213.440108,353.214848 213.804688,354.299472 213.804688,355.664062 Z M207.515625,355.664062 C207.515625,357.658864 208.252597,358.65625 209.726562,358.65625 C211.184903,358.65625 211.914062,357.658864 211.914062,355.664062 C211.914062,353.690094 211.179695,352.703125 209.710938,352.703125 C208.9401,352.703125 208.381512,352.958331 208.035156,353.46875 C207.6888,353.979169 207.515625,354.710933 207.515625,355.664062 Z M223.515625,360 L221.671875,360 L221.671875,354.6875 C221.671875,354.02083 221.537762,353.523439 221.269531,353.195312 C221.001301,352.867186 220.575524,352.703125 219.992188,352.703125 C219.216142,352.703125 218.648439,352.932289 218.289062,353.390625 C217.929686,353.848961 217.75,354.617182 217.75,355.695312 L217.75,360 L215.914062,360 L215.914062,351.359375 L217.351562,351.359375 L217.609375,352.492188 L217.703125,352.492188 C217.963543,352.080727 218.333331,351.763022 218.8125,351.539062 C219.291669,351.315103 219.822914,351.203125 220.40625,351.203125 C222.479177,351.203125 223.515625,352.257802 223.515625,354.367188 L223.515625,360 Z M237.476562,354.289062 C237.476562,356.283864 237.149743,357.760412 236.496094,358.71875 C235.842445,359.677088 234.835944,360.15625 233.476562,360.15625 C232.158848,360.15625 231.165368,359.661463 230.496094,358.671875 C229.82682,357.682287 229.492188,356.221364 229.492188,354.289062 C229.492188,352.273427 229.817705,350.787765 230.46875,349.832031 C231.119795,348.876297 232.122389,348.398438 233.476562,348.398438 C234.794277,348.398438 235.790361,348.898432 236.464844,349.898438 C237.139326,350.898443 237.476562,352.36197 237.476562,354.289062 Z M231.890625,354.289062 C231.890625,355.690111 232.011718,356.694007 232.253906,357.300781 C232.496095,357.907555 232.903643,358.210938 233.476562,358.210938 C234.039065,358.210938 234.445311,357.903649 234.695312,357.289062 C234.945314,356.674476 235.070312,355.674486 235.070312,354.289062 C235.070312,352.888014 234.944012,351.881513 234.691406,351.269531 C234.438801,350.657549 234.033857,350.351562 233.476562,350.351562 C232.908851,350.351562 232.502605,350.657549 232.257812,351.269531 C232.01302,351.881513 231.890625,352.888014 231.890625,354.289062 Z M246.929688,357.632812 L245.554688,357.632812 L245.554688,360 L243.195312,360 L243.195312,357.632812 L238.320312,357.632812 L238.320312,355.953125 L243.328125,348.578125 L245.554688,348.578125 L245.554688,355.757812 L246.929688,355.757812 L246.929688,357.632812 Z M243.195312,355.757812 L243.195312,353.820312 C243.195312,353.497394 243.208333,353.028649 243.234375,352.414062 C243.260417,351.799476 243.28125,351.442709 243.296875,351.34375 L243.234375,351.34375 C243.041666,351.770835 242.809897,352.187498 242.539062,352.59375 L240.445312,355.757812 L243.195312,355.757812 Z M253.710938,348.578125 L249.453125,360 L247.289062,360 L251.546875,348.578125 L253.710938,348.578125 Z M262.351562,354.289062 C262.351562,356.283864 262.024743,357.760412 261.371094,358.71875 C260.717445,359.677088 259.710944,360.15625 258.351562,360.15625 C257.033848,360.15625 256.040368,359.661463 255.371094,358.671875 C254.70182,357.682287 254.367188,356.221364 254.367188,354.289062 C254.367188,352.273427 254.692705,350.787765 255.34375,349.832031 C255.994795,348.876297 256.997389,348.398438 258.351562,348.398438 C259.669277,348.398438 260.665361,348.898432 261.339844,349.898438 C262.014326,350.898443 262.351562,352.36197 262.351562,354.289062 Z M256.765625,354.289062 C256.765625,355.690111 256.886718,356.694007 257.128906,357.300781 C257.371095,357.907555 257.778643,358.210938 258.351562,358.210938 C258.914065,358.210938 259.320311,357.903649 259.570312,357.289062 C259.820314,356.674476 259.945312,355.674486 259.945312,354.289062 C259.945312,352.888014 259.819012,351.881513 259.566406,351.269531 C259.313801,350.657549 258.908857,350.351562 258.351562,350.351562 C257.783851,350.351562 257.377605,350.657549 257.132812,351.269531 C256.88802,351.881513 256.765625,352.888014 256.765625,354.289062 Z M269.53125,360 L267.117188,360 L267.117188,353.390625 L267.140625,352.304688 L267.179688,351.117188 C266.778644,351.518231 266.500001,351.781249 266.34375,351.90625 L265.03125,352.960938 L263.867188,351.507812 L267.546875,348.578125 L269.53125,348.578125 L269.53125,360 Z M278.585938,348.578125 L274.328125,360 L272.164062,360 L276.421875,348.578125 L278.585938,348.578125 Z M287.289062,360 L279.304688,360 L279.304688,358.320312 L282.171875,355.421875 C283.020838,354.552079 283.57552,353.94922 283.835938,353.613281 C284.096355,353.277342 284.283854,352.966147 284.398438,352.679688 C284.513021,352.393228 284.570312,352.096356 284.570312,351.789062 C284.570312,351.330727 284.444012,350.989584 284.191406,350.765625 C283.938801,350.541666 283.601565,350.429688 283.179688,350.429688 C282.736977,350.429688 282.307294,350.531249 281.890625,350.734375 C281.473956,350.937501 281.039065,351.226561 280.585938,351.601562 L279.273438,350.046875 C279.83594,349.567706 280.302081,349.229168 280.671875,349.03125 C281.041669,348.833332 281.44531,348.68099 281.882812,348.574219 C282.320315,348.467447 282.809893,348.414062 283.351562,348.414062 C284.065108,348.414062 284.69531,348.54427 285.242188,348.804688 C285.789065,349.065105 286.21354,349.429685 286.515625,349.898438 C286.81771,350.36719 286.96875,350.903643 286.96875,351.507812 C286.96875,352.033857 286.876303,352.527341 286.691406,352.988281 C286.506509,353.449221 286.220054,353.921873 285.832031,354.40625 C285.444008,354.890627 284.760422,355.580725 283.78125,356.476562 L282.3125,357.859375 L282.3125,357.96875 L287.289062,357.96875 L287.289062,360 Z M296.359375,354.289062 C296.359375,356.283864 296.032555,357.760412 295.378906,358.71875 C294.725257,359.677088 293.718757,360.15625 292.359375,360.15625 C291.04166,360.15625 290.04818,359.661463 289.378906,358.671875 C288.709632,357.682287 288.375,356.221364 288.375,354.289062 C288.375,352.273427 288.700518,350.787765 289.351562,349.832031 C290.002607,348.876297 291.005202,348.398438 292.359375,348.398438 C293.67709,348.398438 294.673174,348.898432 295.347656,349.898438 C296.022139,350.898443 296.359375,352.36197 296.359375,354.289062 Z M290.773438,354.289062 C290.773438,355.690111 290.89453,356.694007 291.136719,357.300781 C291.378907,357.907555 291.786455,358.210938 292.359375,358.210938 C292.921878,358.210938 293.328124,357.903649 293.578125,357.289062 C293.828126,356.674476 293.953125,355.674486 293.953125,354.289062 C293.953125,352.888014 293.826824,351.881513 293.574219,351.269531 C293.321613,350.657549 292.916669,350.351562 292.359375,350.351562 C291.791664,350.351562 291.385418,350.657549 291.140625,351.269531 C290.895832,351.881513 290.773438,352.888014 290.773438,354.289062 Z M303.539062,360 L301.125,360 L301.125,353.390625 L301.148438,352.304688 L301.1875,351.117188 C300.786456,351.518231 300.507813,351.781249 300.351562,351.90625 L299.039062,352.960938 L297.875,351.507812 L301.554688,348.578125 L303.539062,348.578125 L303.539062,360 Z M307.835938,360 L312.125,350.625 L306.492188,350.625 L306.492188,348.59375 L314.6875,348.59375 L314.6875,350.109375 L310.367188,360 L307.835938,360 Z M316.234375,359.023438 C316.234375,358.643227 316.333332,358.351564 316.53125,358.148438 C316.729168,357.945311 317.015623,357.84375 317.390625,357.84375 C317.770835,357.84375 318.059895,357.949218 318.257812,358.160156 C318.45573,358.371095 318.554688,358.658852 318.554688,359.023438 C318.554688,359.393231 318.454428,359.686197 318.253906,359.902344 C318.053384,360.118491 317.765627,360.226562 317.390625,360.226562 C317.015623,360.226562 316.729168,360.119793 316.53125,359.90625 C316.333332,359.692707 316.234375,359.398439 316.234375,359.023438 Z" id="James-Delgados-seti" fill="#656262"></path>
                <polygon id="Triangle-Copy-3" fill="#FFFFFF" transform="translate(54.488704, 351.970815) rotate(-210.000000) translate(-54.488704, -351.970815) " points="54.4887035 347.385713 60.4887035 356.555917 48.4887035 356.555917"></polygon>
                <polyline id="Path-4-Copy" stroke="#FFFFFF" stroke-width="2" points="33 335 39.6142188 345.22943 46.8388782 340.797407 52.4471922 348.567779"></polyline>
            </g>
        </g>
    </g>
</svg>