<?xml version="1.0" encoding="UTF-8"?>
<svg width="398px" height="356px" viewBox="0 0 398 356" version="1.1" xmlns="http://www.w3.org/2000/svg" xmlns:xlink="http://www.w3.org/1999/xlink">
    <!-- Generator: Sketch 43.1 (39012) - http://www.bohemiancoding.com/sketch -->
    <title>Group</title>
    <desc>Created with Sketch.</desc>
    <defs>
        <rect id="path-1" x="36" y="31" width="327.881748" height="291" rx="2.7"></rect>
        <filter x="-7.8%" y="-8.8%" width="115.6%" height="117.5%" filterUnits="objectBoundingBox" id="filter-2">
            <feOffset dx="0" dy="0" in="SourceAlpha" result="shadowOffsetOuter1"></feOffset>
            <feGaussianBlur stdDeviation="8.5" in="shadowOffsetOuter1" result="shadowBlurOuter1"></feGaussianBlur>
            <feColorMatrix values="0 0 0 0 0.71372549   0 0 0 0 0.71372549   0 0 0 0 0.71372549  0 0 0 0.5 0" type="matrix" in="shadowBlurOuter1"></feColorMatrix>
        </filter>
        <rect id="path-3" x="0" y="0" width="327.881748" height="291" rx="2.7"></rect>
        <filter x="-7.8%" y="-8.8%" width="115.6%" height="117.5%" filterUnits="objectBoundingBox" id="filter-4">
            <feOffset dx="0" dy="0" in="SourceAlpha" result="shadowOffsetOuter1"></feOffset>
            <feGaussianBlur stdDeviation="8.5" in="shadowOffsetOuter1" result="shadowBlurOuter1"></feGaussianBlur>
            <feColorMatrix values="0 0 0 0 0.71372549   0 0 0 0 0.71372549   0 0 0 0 0.71372549  0 0 0 0.5 0" type="matrix" in="shadowBlurOuter1"></feColorMatrix>
        </filter>
    </defs>
    <g id="Marketing" stroke="none" stroke-width="1" fill="none" fill-rule="evenodd">
        <g id="Artboard-2" transform="translate(-959.000000, -63.000000)">
            <g id="Group" transform="translate(976.000000, 80.000000)">
                <g id="Rectangle-Copy-14">
                    <use fill="black" fill-opacity="1" filter="url(#filter-2)" xlink:href="#path-1"></use>
                    <use fill="#FFFFFF" fill-rule="evenodd" xlink:href="#path-1"></use>
                </g>
                <g id="Rectangle-Copy-15">
                    <use fill="black" fill-opacity="1" filter="url(#filter-4)" xlink:href="#path-3"></use>
                    <use fill="#FFFFFF" fill-rule="evenodd" xlink:href="#path-3"></use>
                </g>
                <rect id="Rectangle-3-Copy-60" fill="#E6E6E6" x="39" y="255" width="26.1004016" height="6.0625"></rect>
                <rect id="Rectangle-3-Copy-61" fill="#E6E6E6" x="74" y="255" width="26.1004016" height="6.0625"></rect>
                <rect id="Rectangle-3-Copy-62" fill="#E6E6E6" x="110" y="255" width="26.1004016" height="6.0625"></rect>
                <polyline id="Rectangle-3-Copy-63" fill="#AF8DD8" points="39 249.5 39 201 65.8353178 201 65.8353178 249.5"></polyline>
                <polyline id="Rectangle-3-Copy-64" fill="#5DC9E3" points="74 248.875 74 164 100.835318 164 100.835318 248.875"></polyline>
                <polyline id="Rectangle-3-Copy-65" fill="#414A61" points="109 248.75 109 176 135.835318 176 135.835318 248.75"></polyline>
                <g id="Page-1-Copy" transform="translate(193.000000, 169.000000)">
                    <path d="M40.0160106,0.119522449 L40.0160106,1.23401224 C40.0160106,14.7728694 40.0282963,28.3117265 39.9988106,41.8505837 C39.9956514,43.3606735 40.4726882,44.5411551 41.5415453,45.5980776 C48.588631,52.5682898 55.605178,59.5690408 62.639978,66.5515388 C65.1711861,69.0641429 67.7227535,71.5560367 70.2743208,74.0482816 C70.5446065,74.312249 70.8766718,74.5137347 71.1852188,74.7485673 C58.9388188,86.2104367 38.1268188,89.998649 20.637578,79.5220939 C4.10100653,69.616298 -4.40983429,48.5024204 2.30518612,28.9751551 C8.73026367,10.2906898 25.9987127,0.562510204 40.0160106,0.119522449" id="Fill-1" fill="#AF8DD8"></path>
                    <path d="M75.23968,70.7300506 C65.8748065,61.3985241 56.5590759,52.1154384 47.2959984,42.8850057 C56.5861045,33.5626057 65.8590106,24.2574057 75.1312147,14.9515037 C88.1459984,28.7143118 90.2461535,53.96672 75.23968,70.7300506" id="Fill-3" fill="#414A61"></path>
                    <path d="M45.800862,35.4458302 L45.800862,0.000140408163 C55.3496702,0.754834286 63.6453355,4.29171592 70.8180865,10.4289567 C62.4817029,18.7649894 54.1755069,27.0711853 45.800862,35.4458302" id="Fill-5" fill="#5DC9E3"></path>
                </g>
                <path d="M34.5,135.5 L281.481781,135.5" id="Line-Copy" stroke="#C9C9C9" stroke-linecap="square"></path>
                <path d="M152.945801,58.3227539 L147.96582,58.3227539 L147.96582,66.0336914 L144.316895,66.0336914 L144.316895,58.3227539 L128,58.3227539 L128,54.9951172 L143.926758,32.2983398 L147.96582,32.2983398 L147.96582,54.8574219 L152.945801,54.8574219 L152.945801,58.3227539 Z M144.316895,54.8574219 L144.316895,43.7041016 C144.316895,41.5162651 144.393391,39.0454239 144.546387,36.2915039 L144.362793,36.2915039 C143.628414,37.7602612 142.939945,38.9765577 142.297363,39.9404297 L131.80957,54.8574219 L144.316895,54.8574219 Z M157.375,63.6010742 C157.375,62.576004 157.608315,61.7995632 158.074951,61.2717285 C158.541588,60.7438938 159.210933,60.4799805 160.083008,60.4799805 C160.970382,60.4799805 161.662677,60.7438938 162.159912,61.2717285 C162.657148,61.7995632 162.905762,62.576004 162.905762,63.6010742 C162.905762,64.5955453 162.653323,65.3605116 162.148438,65.8959961 C161.643552,66.4314805 160.955082,66.6992188 160.083008,66.6992188 C159.30273,66.6992188 158.656334,66.4582544 158.143799,65.9763184 C157.631264,65.4943824 157.375,64.7026422 157.375,63.6010742 Z M190.743164,66.0336914 L168.688965,66.0336914 L168.688965,62.7519531 L177.524414,53.8706055 C180.217136,51.1472846 181.991858,49.2042701 182.848633,48.0415039 C183.705408,46.8787377 184.34798,45.7465875 184.776367,44.6450195 C185.204755,43.5434515 185.418945,42.3577537 185.418945,41.0878906 C185.418945,39.2978426 184.875819,37.8788301 183.789551,36.8308105 C182.703282,35.782791 181.196299,35.2587891 179.268555,35.2587891 C177.876295,35.2587891 176.556728,35.488279 175.309814,35.9472656 C174.062901,36.4062523 172.674487,37.2400656 171.144531,38.4487305 L169.125,35.8554688 C172.21551,33.2851434 175.581362,32 179.222656,32 C182.374365,32 184.845206,32.8070395 186.635254,34.4211426 C188.425302,36.0352457 189.320313,38.2039252 189.320313,40.9272461 C189.320313,43.0538843 188.723639,45.1575417 187.530273,47.2382812 C186.336908,49.3190208 184.103206,51.9505049 180.829102,55.1328125 L173.485352,62.315918 L173.485352,62.4995117 L190.743164,62.4995117 L190.743164,66.0336914 Z" id="4.2-copy" fill="#656262"></path>
                <polygon id="Star-Copy-2" fill="#F2C96E" points="112 92.19474 106.437694 95.1190173 107.5 88.9252987 103 84.5388828 109.218847 83.6352314 112 78 114.781153 83.6352314 121 84.5388828 116.5 88.9252987 117.562306 95.1190173"></polygon>
                <polygon id="Star-Copy-3" fill="#F2C96E" points="134 92.19474 128.437694 95.1190173 129.5 88.9252987 125 84.5388828 131.218847 83.6352314 134 78 136.781153 83.6352314 143 84.5388828 138.5 88.9252987 139.562306 95.1190173"></polygon>
                <polygon id="Star-Copy-4" fill="#F2C96E" points="156 92.19474 150.437694 95.1190173 151.5 88.9252987 147 84.5388828 153.218847 83.6352314 156 78 158.781153 83.6352314 165 84.5388828 160.5 88.9252987 161.562306 95.1190173"></polygon>
                <polygon id="Star-Copy-5" fill="#F2C96E" points="178 92.19474 172.437694 95.1190173 173.5 88.9252987 169 84.5388828 175.218847 83.6352314 178 78 180.781153 83.6352314 187 84.5388828 182.5 88.9252987 183.562306 95.1190173"></polygon>
                <polygon id="Star-Copy-6" fill="#E6E6E6" points="200 92.19474 194.437694 95.1190173 195.5 88.9252987 191 84.5388828 197.218847 83.6352314 200 78 202.781153 83.6352314 209 84.5388828 204.5 88.9252987 205.562306 95.1190173"></polygon>
                <rect id="Rectangle-15-Copy-8" fill="#E6E6E6" x="124" y="106" width="67" height="14"></rect>
            </g>
        </g>
    </g>
</svg>